<svg xmlns="http://www.w3.org/2000/svg" width="24.493" height="26" viewBox="0 0 24.493 26">
  <g id="Group_546" data-name="Group 546" transform="translate(-139.507 -3419)">
    <rect id="Rectangle_785" data-name="Rectangle 785" width="16" height="26" transform="translate(148 3419)" fill="#262831" opacity="0.1"/>
    <g id="Icon_feather-printer" data-name="Icon feather-printer" transform="translate(140.007 3424.007)">
      <path id="Path_1318" data-name="Path 1318" d="M9,8.6V3h9.592V8.6" transform="translate(-5.803 -3)" fill="none" stroke="#f15d22" stroke-linecap="round" stroke-linejoin="round" stroke-width="1"/>
      <path id="Path_1319" data-name="Path 1319" d="M6.2,20.694H4.6A1.6,1.6,0,0,1,3,19.1v-4a1.6,1.6,0,0,1,1.6-1.6H17.388a1.6,1.6,0,0,1,1.6,1.6v4a1.6,1.6,0,0,1-1.6,1.6h-1.6" transform="translate(-3 -7.905)" fill="none" stroke="#f15d22" stroke-linecap="round" stroke-linejoin="round" stroke-width="1"/>
      <path id="Path_1320" data-name="Path 1320" d="M9,21h9.592v6.395H9Z" transform="translate(-5.803 -11.408)" fill="none" stroke="#f15d22" stroke-linecap="round" stroke-linejoin="round" stroke-width="1"/>
    </g>
  </g>
</svg>
