<?xml version="1.0" encoding="utf-8"?>
<!-- Generator: Adobe Illustrator 26.1.0, SVG Export Plug-In . SVG Version: 6.00 Build 0)  -->
<svg version="1.1" id="Layer_1" xmlns="http://www.w3.org/2000/svg" xmlns:xlink="http://www.w3.org/1999/xlink" x="0px" y="0px"
	 viewBox="0 0 142.1 181.9" style="enable-background:new 0 0 142.1 181.9;" xml:space="preserve">
<style type="text/css">
	.st0{opacity:0.357;fill:url(#Rectangle_904_00000071539056668820104800000003786795421832691891_);enable-background:new    ;}
	.st1{fill:#F8F8F8;}
	.st2{filter:url(#Path_1476);}
	.st3{fill:url(#Path_1476-3_00000029029765801972240880000016918975265010181525_);}
	.st4{filter:url(#Path_1476-2);}
	.st5{fill:#FFFFFF;}
</style>
<filter  filterUnits="userSpaceOnUse" height="187.074" id="Path_1476-2" width="131.021" x="0" y="11.397">
	<feOffset  dx="8" dy="4" input="SourceAlpha"></feOffset>
	<feGaussianBlur  result="blur-2" stdDeviation="3"></feGaussianBlur>
	<feFlood  flood-opacity="0.153" result="color"></feFlood>
	<feComposite  in="SourceGraphic" in2="blur-2" operator="out"></feComposite>
	<feComposite  in="color" operator="in"></feComposite>
	<feComposite  in2="SourceGraphic" operator="in"></feComposite>
</filter>
<filter  filterUnits="userSpaceOnUse" height="187.074" id="Path_1476" width="131.021" x="0" y="11.397">
	<feOffset  dx="-2" dy="7" input="SourceAlpha"></feOffset>
	<feGaussianBlur  result="blur" stdDeviation="3.5"></feGaussianBlur>
	<feFlood  flood-opacity="0.161"></feFlood>
	<feComposite  in2="blur" operator="in"></feComposite>
	<feComposite  in="SourceGraphic" operator="over"></feComposite>
</filter>
<g id="Group_786" transform="translate(12.369)">
	
		<linearGradient id="Rectangle_904_00000039842652109602496480000003452889846815446182_" gradientUnits="userSpaceOnUse" x1="-242.5962" y1="517.6286" x2="-242.8892" y2="517.5006" gradientTransform="matrix(142 0 0 -180.97 34520.6953 93762.4609)">
		<stop  offset="0" style="stop-color:#000000;stop-opacity:0"/>
		<stop  offset="1" style="stop-color:#000000"/>
	</linearGradient>
	
		<path id="Rectangle_904" style="opacity:0.357;fill:url(#Rectangle_904_00000039842652109602496480000003452889846815446182_);enable-background:new    ;" d="
		M7.8,0h122l0,0v181l0,0h-142l0,0V20C-12.2,9-3.3,0,7.8,0z"/>
	<path id="Path_1477" class="st1" d="M-12.4,18.2l71.5,163.8h-71.5V18.2z"/>
	<g>
		<g transform="matrix(1, 0, 0, 1, -12.37, 0)" class="st2">
			
				<linearGradient id="Path_1476-3_00000144326298535813278190000008670372599969329796_" gradientUnits="userSpaceOnUse" x1="-229.5357" y1="517.6231" x2="-230.0857" y2="517.4231" gradientTransform="matrix(110.0161 0 0 -166.0791 25344.4609 86035.7344)">
				<stop  offset="0" style="stop-color:#DEDEDE"/>
				<stop  offset="0.639" style="stop-color:#FFFFFF"/>
				<stop  offset="1" style="stop-color:#BABABA;stop-opacity:0.929"/>
			</linearGradient>
			
				<path id="Path_1476-3_00000137131986688198724360000002166707038044815531_" style="fill:url(#Path_1476-3_00000144326298535813278190000008670372599969329796_);" d="
				M0.1,19.2l8.3-4.3V23l7.6-2v6.7h6.3l0.9,6.2h7.2l1.2,6.6l4.6-1.8l1.5,8.4h5.8v5.8h5.1l0.9,6.2l5.2,0.7l1.4,5.9l5.5-1.3l1.7,7.3
				l5.2-1.2l2.7,6.2l5.2-2.2l1.9,6.8l6.4-0.9l1.4,5.7l5.9-1.4l2,5.5l7-1.2l1.4,6.4l4.8-2.4l3,6.8l-5.5,3l1.7,6.6l-5.4,3.4v6.8
				l-4.5,3.3l1.4,6.8l-5.9,2.9l2,5.7l-3.8,1.9l1.8,7.9l-4.1,1.4l1.3,7.1l-4.4,1.2l1.3,7.5l-4.5,2l1.7,6.8l-12,6.4L0.1,19.2z"/>
		</g>
		<g transform="matrix(1, 0, 0, 1, -12.37, 0)" class="st4">
			<path id="Path_1476-4_00000005262434962313266140000016113215829161081514_" class="st5" d="M0.1,19.2l8.3-4.3V23l7.6-2v6.7h6.3
				l0.9,6.2h7.2l1.2,6.6l4.6-1.8l1.5,8.4h5.8v5.8h5.1l0.9,6.2l5.2,0.7l1.4,5.9l5.5-1.3l1.7,7.3l5.2-1.2l2.7,6.2l5.2-2.2l1.9,6.8
				l6.4-0.9l1.4,5.7l5.9-1.4l2,5.5l7-1.2l1.4,6.4l4.8-2.4l3,6.8l-5.5,3l1.7,6.6l-5.4,3.4v6.8l-4.5,3.3l1.4,6.8l-5.9,2.9l2,5.7
				l-3.8,1.9l1.8,7.9l-4.1,1.4l1.3,7.1l-4.4,1.2l1.3,7.5l-4.5,2l1.7,6.8l-12,6.4L0.1,19.2z"/>
		</g>
	</g>
</g>
</svg>
