<svg xmlns="http://www.w3.org/2000/svg" width="22.447" height="26" viewBox="0 0 22.447 26">
  <g id="Group_546" data-name="Group 546" transform="translate(-141.553 -3419)">
    <rect id="Rectangle_785" data-name="Rectangle 785" width="16" height="26" transform="translate(148 3419)" fill="#262831" opacity="0.1"/>
    <path id="Icon_feather-phone" data-name="Icon feather-phone" d="M19.065,14.926v2.4a1.6,1.6,0,0,1-1.743,1.6,15.819,15.819,0,0,1-6.9-2.454,15.587,15.587,0,0,1-4.8-4.8,15.819,15.819,0,0,1-2.454-6.93A1.6,1.6,0,0,1,4.765,3h2.4a1.6,1.6,0,0,1,1.6,1.375,10.263,10.263,0,0,0,.56,2.246,1.6,1.6,0,0,1-.36,1.687L7.946,9.323a12.789,12.789,0,0,0,4.8,4.8L13.757,13.1a1.6,1.6,0,0,1,1.687-.36,10.263,10.263,0,0,0,2.246.56,1.6,1.6,0,0,1,1.375,1.623Z" transform="translate(138.885 3421.036)" fill="none" stroke="#f15d22" stroke-linecap="round" stroke-linejoin="round" stroke-width="1"/>
  </g>
</svg>
