<?xml version="1.0" standalone="no"?>
<!DOCTYPE svg PUBLIC "-//W3C//DTD SVG 1.1//EN" "http://www.w3.org/Graphics/SVG/1.1/DTD/svg11.dtd" >
<svg xmlns="http://www.w3.org/2000/svg" xmlns:xlink="http://www.w3.org/1999/xlink" version="1.1">
<metadata>
Created by FontForge 20200427 at Tue Jun 21 02:44:59 2016
 By www
Copyright (c) 2015 by Blue Vinyl Fonts. All rights reserved.
</metadata>
<defs>
<font id="FeltThatW01-Regular" horiz-adv-x="360" >
  <font-face 
    font-family="FeltThatW01-Regular"
    font-weight="400"
    font-stretch="normal"
    units-per-em="1000"
    panose-1="3 8 8 2 3 4 7 0 0 0"
    ascent="800"
    descent="-200"
    x-height="327"
    cap-height="624"
    bbox="-228.623 -319.545 879.333 854.846"
    underline-thickness="50"
    underline-position="-125"
    unicode-range="U+0020-2122"
  />
<missing-glyph horiz-adv-x="418" 
d="M44 600h330v-600h-330v600zM75 31h268v538h-268v-538z" />
    <glyph glyph-name=".notdef" horiz-adv-x="418" 
d="M44 600h330v-600h-330v600zM75 31h268v538h-268v-538z" />
    <glyph glyph-name="glyph1" horiz-adv-x="0" 
 />
    <glyph glyph-name="glyph1" horiz-adv-x="0" 
 />
    <glyph glyph-name="glyph2" horiz-adv-x="216" 
 />
    <glyph glyph-name="space" unicode=" " horiz-adv-x="322" 
 />
    <glyph glyph-name="exclam" unicode="!" horiz-adv-x="287" 
d="M385 486q-1 -5 -8 -21.5t-17.5 -40.5t-23.5 -53.5t-26 -60.5q-14 -31 -26.5 -61t-22.5 -54.5t-16 -41.5t-6 -22q1 -10 -5 -13t-13 2q-6 4 -10 13t-2 24q1 11 6.5 29.5t14 42t19 50.5t21.5 55q12 30 24 59.5t21.5 53.5t15.5 40.5t6 22.5q1 17 12 16t22 -10q7 -6 11.5 -14
t2.5 -16zM214 -70q-6 -7 -24 -4.5t-29 14.5q-7 7 -8 15t2 14.5t9 11.5t14 7q8 3 17.5 1.5t17 -5.5t12 -10.5t2.5 -12.5q-3 -11 -10 -17t-3 -14z" />
    <glyph glyph-name="quotedbl" unicode="&#x22;" horiz-adv-x="317" 
d="M322 505q-5 -6 -14 -18t-20 -28.5t-24 -35.5t-25 -38q-20 -30 -35 -55.5t-20 -38.5q-3 -7 -9.5 -7.5t-13.5 4.5q-8 5 -12 13.5t0 19.5q3 8 15 30t28 50q12 21 25.5 43t25 40t20 31t12.5 16q6 5 17.5 5.5t20.5 -4.5q8 -4 12 -10.5t-3 -16.5zM403 526q9 9 18 9t15 -5
q8 -7 9 -18.5t-7 -22.5q-4 -6 -12 -17.5t-18.5 -26.5t-22 -32.5t-22.5 -35.5q-17 -28 -31 -51.5t-18 -34.5q-5 -14 -12 -14t-13 6t-9 16.5t0 20.5q6 17 22 46t34 59q20 34 39 62.5t28 38.5z" />
    <glyph glyph-name="numbersign" unicode="#" horiz-adv-x="484" 
d="M556 575q6 7 14 6.5t15 -5.5t10 -11.5t-2 -12.5q-6 -6 -19.5 -27t-30.5 -50l-49 -82q18 0 32 -0.5t19 -2.5q6 -2 14 -8.5t12 -13.5q3 -5 1.5 -9.5t-12.5 -4.5q-13 1 -37.5 -0.5t-53.5 -3.5q-15 -26 -36 -64.5t-43 -81.5q26 1 47 1.5t31 -1.5q14 -1 16 -14q1 -8 -5 -15.5
t-17 -9.5l-93 -5q-14 -29 -26.5 -55t-22 -47t-15 -35.5t-5.5 -19.5q-2 -8 -8 -9.5t-13 2.5q-8 5 -13.5 15.5t-1.5 23.5q1 5 17.5 39.5t40.5 82.5q-15 -2 -28.5 -2.5t-23.5 -2.5l-74 -7q-32 -61 -53.5 -103.5t-23.5 -47.5q-3 -8 -11.5 -6.5t-13.5 10.5q-3 5 -4.5 12.5
t1.5 16.5q2 7 17 38t37 75q-11 -1 -19 -1h-12q-7 0 -12 7t-7 15q-2 10 1.5 19t14.5 10l61 4l69 136q-23 -4 -40.5 -7.5t-25.5 -5.5q-15 0 -26 13q-7 8 -8 16.5t10 12.5q10 4 42.5 8.5t71.5 8.5l39 75q18 33 30 54t15 25q5 7 15 10t20 2q12 -1 19.5 -6t0.5 -14
q-4 -4 -16 -23.5t-29 -51.5l-36 -65q15 2 28.5 2.5t24.5 2.5l72 4l54 97q18 32 32.5 56.5t21.5 30.5zM224 197q18 2 36 2.5t35 1.5h24.5t24.5 1q20 37 40 74.5t38 69.5q-17 -2 -34 -3t-32 -2t-29 -1.5t-28 -2.5q-19 -34 -37.5 -69.5t-37.5 -70.5z" />
    <glyph glyph-name="dollar" unicode="$" horiz-adv-x="367" 
d="M502 630q-5 -1 -16.5 -16.5t-28.5 -40.5q-7 -10 -13.5 -21t-14.5 -23q18 -1 32 -2.5t22 -3.5q10 -3 15 -14t4 -22t-7.5 -17t-18.5 2q-8 5 -28 7.5t-46 2.5q-15 -26 -30 -52.5t-28 -50.5q-5 -9 -10 -18.5t-10 -19.5q24 -26 42 -57t14 -65q-7 -54 -45.5 -88.5t-107.5 -51.5
q-18 -5 -34 -6q-18 -40 -29.5 -68.5t-11.5 -37.5q-1 -12 -9.5 -13.5t-16.5 3.5q-9 5 -14.5 15t-1.5 23q5 19 33 80q-38 6 -63.5 22t-31.5 34q-6 19 5 28q5 5 13.5 3.5t16.5 -10.5q9 -11 31.5 -17t51.5 -8q11 22 22 45t24 48q14 26 27.5 53.5t28.5 56.5q-11 14 -21.5 24
t-18.5 17q-11 12 -15.5 27.5t-1.5 32t14 32.5t31 28q24 16 56 24.5t64 11.5l44 76q13 22 23 37t16 23q9 10 18 9t16 -7q9 -8 12.5 -20.5t-3.5 -14.5zM315 168q22 27 13.5 60t-29.5 64l-46 -91l-35 -73q30 4 56 13.5t41 26.5zM256 424q-2 -8 8.5 -20.5t26.5 -29.5
q14 26 28.5 52t28.5 51q-32 -6 -58 -18.5t-34 -34.5z" />
    <glyph glyph-name="percent" unicode="%" horiz-adv-x="539" 
d="M310 506q-9 5 -21.5 -1t-27 -19.5t-29.5 -33t-28 -41.5q-11 -19 -20 -39t-13.5 -37.5t-4.5 -30t6 -16.5q17 -8 47.5 15t58.5 68q14 23 24 45t14.5 40.5t3 31.5t-9.5 18zM535 238q-6 3 -15 1.5t-20.5 -12t-27 -31.5t-35.5 -57q-54 -100 -24 -124q5 -4 16.5 -0.5t26 16
t31 33.5t33.5 53q7 14 14.5 33t11 36.5t1.5 32t-12 19.5zM278 549q13 2 27 -4t27 -16q15 -11 25.5 -25.5t12.5 -25.5t-1 -27t-10.5 -35.5t-19 -40.5t-25.5 -41q-24 -35 -52 -61.5t-54 -31.5q-15 -3 -29 2t-25 14q-14 11 -24 25.5t-12 22.5q-6 23 3.5 56t28.5 67
q13 22 28.5 43.5t32.5 38t34.5 27t32.5 12.5zM497 284q13 2 29.5 -4t30.5 -19q17 -14 27 -35.5t7 -47.5q-2 -26 -13.5 -52.5t-27.5 -52.5q-21 -34 -45.5 -59t-44.5 -32q-17 -7 -34 -3.5t-32 14.5q-30 21 -38 57q-4 20 6 52t28 67q11 21 24 40.5t27 35.5t28 26t28 13z
M623 505q-6 -3 -28.5 -23.5t-55 -52.5t-72 -73t-80.5 -84q-43 -46 -84 -92t-73.5 -85t-52 -68.5t-19.5 -42.5t-11 -13.5t-20 10.5q-6 8 -8 19.5t3 27.5q5 14 25.5 42.5t51.5 66t69.5 81t79.5 87.5q39 42 77 81t70.5 70t56.5 51.5t35 25.5q21 8 33 -2q8 -6 9 -14t-6 -12z" />
    <glyph glyph-name="ampersand" unicode="&#x26;" horiz-adv-x="321" 
d="M274 166q-3 11 5 10.5t17 -6.5q8 -5 14 -13t5 -17q-1 -14 -8.5 -28t-18.5 -28q-12 -16 -28 -30.5t-34 -28.5l-11 -9q2 -9 5 -18q5 -19 14.5 -38.5t20.5 -36.5q14 -22 26.5 -36t19.5 -15q12 -2 10.5 10.5t-1.5 24.5q14 -9 20.5 -24t-0.5 -27q-5 -8 -14 -16.5t-25 -6.5
q-11 1 -24 8t-30 23q-20 20 -35.5 52.5t-26.5 74.5q-29 -17 -62.5 -30.5t-69.5 -19.5q-35 -5 -58 -0.5t-36 15.5q-17 13 -20 29.5t2 27.5q8 17 30 41t53 56q28 29 61 64.5t67 77.5q-2 27 0 54q2 64 10.5 117t22.5 95q20 62 46 99.5t52 49.5q24 12 41.5 2t27.5 -33
q8 -20 11 -46t-2 -54q-7 -48 -48 -122q-39 -71 -102 -161l-13 -17q2 -49 6.5 -94t11.5 -82q14 12 26 25.5t21 26.5q12 17 17.5 31.5t3.5 22.5zM166 31q-8 36 -13.5 75t-7.5 78q-25 -27 -52 -54.5t-51 -51.5q-32 -32 -51.5 -55.5t-12.5 -31.5q8 -9 37.5 -9t75.5 16
q28 10 63 27zM199 411q-5 -23 -6.5 -47t-3.5 -49q15 21 30 45q17 28 31.5 53.5t25.5 48.5q62 125 32 164q-11 14 -34 -10t-46 -89q-17 -49 -29 -116z" />
    <glyph glyph-name="quotesingle" unicode="'" horiz-adv-x="195" 
d="M315 503q-4 -4 -11.5 -14.5t-17.5 -25.5t-21 -33.5t-22 -37.5q-11 -20 -21 -38.5t-17.5 -34t-11.5 -26.5t-3 -15q3 -7 -1 -11q-4 -5 -13 -4.5t-18 12.5q-5 6 -3.5 20.5t7.5 33.5t15.5 40t20.5 40q22 45 42 73t32 39q7 6 18.5 7t19.5 -3q7 -3 10 -8.5t-5 -13.5z" />
    <glyph glyph-name="parenleft" unicode="(" horiz-adv-x="281" 
d="M424 597q-18 -8 -48 -38.5t-64 -76t-69 -102.5t-64 -120q-36 -77 -58.5 -145.5t-33.5 -122.5t-12 -91t7 -51q7 3 15 3q7 0 15 -2t16 -9q12 -11 5 -20.5t-28 -11.5q-14 -2 -27.5 2.5t-24.5 17.5t-17.5 36.5t-5.5 61.5q2 76 30 171t82 207q30 62 65 120t70 103.5t67 75.5
t55 36t32 -8q6 -9 4 -20.5t-11 -15.5z" />
    <glyph glyph-name="parenright" unicode=")" horiz-adv-x="450" 
d="M325 573q-3 11 -1 16t13 -2q5 -3 11.5 -7.5t15.5 -12.5q16 -14 26.5 -56.5t6.5 -105.5q-3 -53 -17.5 -117t-46.5 -136q-34 -78 -71.5 -138t-72.5 -105q-37 -46 -67.5 -75t-49.5 -43q-11 -8 -22.5 -7t-18.5 8q-8 8 -7 20t20 22q18 11 51.5 44.5t71.5 87.5q32 45 65 102.5
t60 126.5q28 72 40.5 126.5t15.5 96.5q3 35 0.5 61t-7 45t-9.5 30.5t-7 18.5z" />
    <glyph glyph-name="asterisk" unicode="*" horiz-adv-x="390" 
d="M61 462q7 2 27.5 4.5t48.5 4.5l50 4q-3 13 -5.5 25.5t-4.5 23.5q-5 26 -7 43.5t-2 22.5q0 8 8 12.5t16 4.5q7 0 12.5 -3.5t5.5 -10.5t3 -34q2 -12 3.5 -27t4.5 -31l42 55q20 26 34 43t16 19t8 0t12 -7q8 -6 12.5 -14t-3.5 -13q-3 -2 -13 -14t-24 -31q-10 -13 -21.5 -27.5
t-23.5 -31.5q32 2 56 2.5t28 0.5q8 -2 17 -14q6 -8 8 -15.5t-6 -6.5q-4 0 -16 -1t-29 -2.5t-38.5 -3t-43.5 -3.5q6 -21 13 -40t14 -34q19 -41 26 -48q4 -6 2.5 -10t-6 -6t-10.5 -1.5t-10 3.5q-2 2 -12.5 17.5t-23.5 40.5q-11 21 -21 48q-11 -15 -21.5 -29.5t-19.5 -28.5
q-20 -29 -33 -48.5t-14 -24.5q-3 -11 -11 -5.5t-15 16.5q-9 14 -9 24q0 3 13.5 22.5t33.5 48.5l36 50l-38 -4l-40 -4q-6 -1 -16 4t-17 12q-6 6 -6.5 12.5t10.5 9.5z" />
    <glyph glyph-name="plus" unicode="+" horiz-adv-x="355" 
d="M131 286q12 -2 26 -3t34 -2q10 0 21 -0.5t25 -0.5q8 17 14.5 31.5t13.5 27.5q14 26 24.5 40.5t15.5 19.5q7 6 20 -1q8 -5 13 -14t0 -13q-6 -4 -15.5 -18.5t-20.5 -36.5l-18 -36h52q58 -2 72 -10q6 -2 8 -10q1 -7 -4.5 -14t-14.5 -6q-7 0 -24.5 -1t-38.5 -3
q-20 -2 -39 -2.5t-32 -0.5q-17 -38 -29 -67q-9 -22 -14.5 -40.5t-6.5 -32.5q1 -5 -8.5 0t-18.5 15q-5 6 -9 12.5t-2 12.5q3 13 20 54l21 46q-20 0 -39 1.5t-32 4.5q-8 1 -14.5 7t-10.5 14q-5 11 -3.5 19.5t14.5 6.5z" />
    <glyph glyph-name="comma" unicode="," horiz-adv-x="199" 
d="M194 74q0 5 7 5t15 -4t14 -11t4 -16t-13 -28.5t-27 -42.5q-11 -16 -22.5 -31.5t-21.5 -28.5t-17.5 -22.5t-10.5 -12.5q-5 -4 -11 -3t-11 6q-8 6 -11 16t4 16q5 5 18.5 25t29.5 45q10 15 19 29.5t16.5 26.5t12.5 20.5t5 10.5z" />
    <glyph glyph-name="hyphen" unicode="-" horiz-adv-x="422" 
d="M149 186q5 1 18.5 1.5t32.5 0.5t42 -0.5t47 -1.5q23 -1 45.5 -2t40.5 -1.5t30.5 -1.5t15.5 -1q7 -1 12 -5.5t7 -9.5q4 -9 0.5 -18t-14.5 -9h-131q-45 0 -81.5 0.5t-41.5 0.5q-10 0 -16.5 6t-10.5 14q-4 9 -3 17t7 10z" />
    <glyph glyph-name="period" unicode="." horiz-adv-x="180" 
d="M111 5q10 5 26 4t30 -9q14 -7 19 -19.5t-5 -18.5q-5 -3 -13.5 -4t-18.5 -0.5t-19.5 2.5t-15.5 5q-12 6 -12.5 20.5t9.5 19.5z" />
    <glyph glyph-name="slash" unicode="/" horiz-adv-x="312" 
d="M551 584q-6 -4 -32 -32.5t-64.5 -73t-85 -101t-93.5 -115.5t-91.5 -117t-78.5 -107t-54 -84t-18 -48t-1 -19t-8.5 -6t-11.5 5.5t-11 14.5t-7 21.5t1 26.5q3 15 25 50t55.5 83t76 104.5t87.5 114.5t89.5 112.5t82 98.5t65.5 73t39 36q13 7 22 3.5t14 -11.5t4.5 -16.5
t-5.5 -12.5z" />
    <glyph glyph-name="zero" unicode="0" horiz-adv-x="408" 
d="M275 518q27 25 52.5 27.5t48.5 -4.5q17 -5 36.5 -20.5t33.5 -44.5q13 -26 18.5 -61t-2.5 -83q-8 -45 -25.5 -90.5t-40.5 -88.5q-18 -32 -38 -60.5t-40 -50.5t-40 -37t-37 -19q-22 -6 -41 -2t-34 15q-20 14 -32.5 37.5t-14.5 51.5q-4 38 6.5 89.5t28.5 102.5q9 27 20 52.5
t22 47t22 37.5t20 25q2 16 10.5 37.5t26.5 38.5zM286 418q-5 -3 -13.5 -16t-19 -33.5t-22 -46.5t-22.5 -54q-15 -40 -27.5 -81.5t-17.5 -76.5t0 -59.5t25 -30.5q18 -6 40.5 8.5t46.5 41.5t47 64.5t43 78.5q26 54 41.5 106t13.5 89q-1 28 -7 45.5t-17 27.5q-12 11 -27.5 13
t-31.5 0q-9 -1 -18 -7t-17 -14t-14 -18t-9 -19q5 -6 6.5 -11t-0.5 -7z" />
    <glyph glyph-name="one" unicode="1" horiz-adv-x="289" 
d="M175 390q8 3 34.5 22.5t55.5 44.5q27 23 49.5 44t29.5 30q6 9 13.5 10t14.5 -3q8 -5 12.5 -16.5t-1.5 -23.5q-21 -41 -55.5 -112t-73.5 -169q-20 -50 -35.5 -92t-26 -74.5t-16 -54t-3.5 -29.5t-6.5 -5t-17.5 11q-7 7 -12 15.5t-5 19.5q0 9 6 30t16 48.5t23 60.5t27 67
q16 38 31.5 74t28 65.5t20.5 48.5t10 22q-2 -2 -14 -11.5t-27 -21t-29.5 -21.5t-21.5 -12q-8 -3 -16 0.5t-13 9.5t-5.5 12.5t7.5 9.5z" />
    <glyph glyph-name="two" unicode="2" 
d="M201 432q8 12 26.5 34t44.5 42q20 15 42.5 24.5t45.5 7.5q42 -4 64 -36q16 -23 18 -53t-13 -61q-17 -34 -49.5 -75t-70.5 -84q-33 -37 -66.5 -72t-59.5 -63t-42 -46t-14 -21q1 -3 11.5 -4t25.5 -1t34 1t38 3q32 2 58.5 5t30.5 4q10 3 13.5 -3.5t1.5 -15.5q-2 -8 -8 -15
t-16 -9q-13 -2 -35.5 -4.5t-48.5 -4.5q-29 -2 -56.5 -4t-43.5 0q-35 2 -53 25q-10 12 -10.5 27t11.5 28q6 6 24 25t44 46t57 60t61 68q31 36 59 71t47.5 66t27.5 54t-1 35q-12 16 -38.5 8.5t-54.5 -25.5q-14 -9 -27.5 -20t-24 -21.5t-17.5 -20.5t-10 -17q-6 -16 -14 -11
t-13 18q-3 8 -3.5 17.5t4.5 17.5z" />
    <glyph glyph-name="three" unicode="3" horiz-adv-x="345" 
d="M194 483q11 10 37 24.5t56 24.5q21 7 41.5 9t36.5 -3q13 -5 23 -15.5t17 -24.5q9 -19 9.5 -41.5t-13.5 -42.5q-10 -16 -26 -31.5t-36 -29.5q-23 -17 -46 -30.5t-42 -23.5q27 8 54.5 0.5t44.5 -28.5q12 -14 16.5 -34t-2.5 -46t-28.5 -56t-59.5 -64q-25 -22 -50 -39
t-48 -29q-37 -20 -65.5 -27.5t-41.5 -4.5q-7 2 -11.5 7t-7.5 11q-5 11 -4 20t7 6q9 -5 35 3t61 28q21 12 43 27.5t45 33.5q19 16 37 34t31.5 36t20.5 34.5t5 28.5q-2 14 -16 20.5t-33 5.5t-40.5 -9t-39.5 -23q-7 -5 -15 1.5t-12 18.5q-4 11 -2.5 23.5t12.5 21.5q5 5 17 13.5
t28.5 19.5t35 23.5t36.5 26.5q32 23 54.5 46.5t18.5 40.5q-5 19 -30.5 19t-56.5 -10q-27 -8 -51 -20t-34 -21q-8 -8 -14 0t-6 20q0 7 2 14t7 12z" />
    <glyph glyph-name="four" unicode="4" horiz-adv-x="407" 
d="M126 246q3 7 14.5 22t29 35t39.5 44t46 49t47.5 48.5t44 43t37 33.5t25.5 19q3 5 9.5 4t14.5 -6q7 -5 12.5 -12.5t4.5 -15.5q-2 -9 -7.5 -27t-13.5 -43t-19 -55.5t-23 -63.5q-10 -28 -20.5 -56.5t-21.5 -57.5q29 0 50.5 -0.5t25.5 -3.5q5 -5 6.5 -12t1.5 -14q0 -9 -4 -15
t-9 -1q-5 4 -29.5 5t-56.5 0l-26 -73q-17 -48 -26 -81t-7 -40q4 -11 -3 -12.5t-16 2.5t-16.5 11.5t-6.5 16.5q1 10 9.5 38t21.5 67l23 70l-85 -4q-16 -1 -30.5 5t-25.5 16q-14 13 -19 30t3 34zM173 213q2 -3 13 -5t28.5 -2.5t39 -0.5t43.5 1l48 137q12 33 22.5 63t18.5 55
q-24 -23 -56.5 -55.5t-63.5 -66.5q-21 -22 -39 -43t-31 -38t-19.5 -29t-3.5 -16z" />
    <glyph glyph-name="five" unicode="5" horiz-adv-x="400" 
d="M263 520q6 2 11 1l91 3q33 1 61 0.5t35 -3.5q12 -6 17 -22q4 -11 2 -19.5t-12 -5.5q-9 2 -38 1t-62 -3q-29 -2 -54.5 -4.5t-36.5 -7.5q-1 0 -1 -0.5t-1 -0.5q-8 -13 -17.5 -30.5t-19.5 -34.5q-15 -28 -25 -51t-5 -25q6 2 20.5 6.5t34.5 9.5q19 5 40.5 7.5t44.5 -2.5
q13 -2 29.5 -12.5t28.5 -28.5q11 -15 14.5 -36t-4.5 -47q-11 -37 -36.5 -77t-67.5 -77q-19 -17 -38.5 -31.5t-38.5 -26.5q-28 -18 -52 -28.5t-38 -9.5q-8 0 -15 5t-12 12q-8 11 -9.5 21.5t12.5 5.5q10 -3 33 7.5t52 29.5q18 12 37 26t36 31q24 22 44.5 47.5t35 50t20.5 45.5
t2 35q-6 19 -29.5 18t-51.5 -9q-24 -8 -46 -16t-33 -9q-11 -2 -22.5 6.5t-20.5 20.5q-8 11 -12 24t-2 24q2 9 13 34.5t26 54.5q11 23 23.5 44t22.5 34q3 11 14 13z" />
    <glyph glyph-name="six" unicode="6" horiz-adv-x="359" 
d="M339 492q-3 -7 -15 -28t-30 -52q-15 -26 -33 -57t-35 -64q29 20 58 25q10 1 22 0.5t24 -5t23 -13t18 -22.5q11 -23 10 -57q-1 -14 -8 -32t-18 -38t-25.5 -41.5t-30.5 -41.5q-26 -30 -54 -53t-55 -30q-27 -6 -49 4.5t-33 36.5q-14 29 -9 77q1 23 11 53t25 64t33 70t37 71
q18 32 34.5 61.5t30 53t22.5 40t10 22.5q3 14 11.5 10t16.5 -16q6 -9 9 -19.5t0 -18.5zM148 20q11 -5 26 1t31.5 18.5t34 31.5t33.5 40q16 22 30.5 45t23.5 44t12.5 39t-0.5 29q-8 19 -33.5 12.5t-53.5 -26.5q-21 -14 -39 -32t-29 -33q-7 -11 -13 -10q-8 -20 -15 -37
t-12 -34q-11 -35 -11 -59t15 -29z" />
    <glyph glyph-name="seven" unicode="7" horiz-adv-x="329" 
d="M174 524q8 -2 26 -2t41 1q25 1 52.5 2t50.5 -1q22 -2 40 -12.5t29 -27.5q9 -14 10.5 -31t-6.5 -35q-11 -23 -43 -71.5t-72 -105.5q-30 -44 -61 -87.5t-56.5 -80.5t-42 -62t-17.5 -31q-2 -10 -9 -10t-15 6t-13 17t-1 22q1 7 17.5 32t41 61t54.5 79l60 86q25 35 47.5 68
t39.5 59t27 43t9 21q-1 5 -9 7.5t-21 4t-29 1.5t-33 -1q-33 -2 -63 -4.5t-38 -2.5q-6 0 -11.5 5.5t-9.5 13.5q-6 13 -6 26t11 10z" />
    <glyph glyph-name="eight" unicode="8" horiz-adv-x="376" 
d="M430 515q12 -7 17 -13q3 5 5.5 8.5t4.5 6.5q6 10 13.5 10.5t12.5 -6.5q6 -8 7 -22t-7 -32q-6 -12 -30 -36t-58 -56l-94 -87q12 -36 22.5 -70.5t14.5 -67.5t0 -63t-20 -56q-15 -23 -39 -36.5t-50 -18.5t-51.5 -2.5t-43.5 11.5q-20 10 -34.5 27t-18.5 42q-4 24 5.5 55
t39.5 69q17 22 48 53t67 66q-12 26 -22 47t-15 36q-5 16 -8 35t1 38.5t17 37t39 31.5q25 13 52.5 16.5t51.5 1.5t43.5 -9t29.5 -16zM283 65q10 18 11.5 39.5t-2 45.5t-12 49.5t-18.5 50.5q-30 -29 -57 -57.5t-47 -53.5t-31.5 -46t-10.5 -36q1 -23 22 -34.5t48 -11t54.5 13.5
t42.5 40zM359 409l32.5 32.5t28.5 29.5q-15 9 -39 15.5t-49 8t-46.5 -3t-31.5 -17.5q-11 -14 -12 -30t5 -33t15.5 -36l19.5 -39z" />
    <glyph glyph-name="nine" unicode="9" horiz-adv-x="337" 
d="M129 8q5 5 23 30.5t41 58.5q18 26 36 53t32 49q-51 -17 -81 2.5t-35 68.5q-3 35 9 75.5t35 76.5q23 38 54 67.5t61 41.5q20 8 39.5 6.5t35.5 -10.5t27.5 -25.5t15.5 -38.5q5 -29 -1 -59.5t-19 -61t-30.5 -61t-35.5 -60.5q-20 -32 -42 -65.5t-43 -64.5q-32 -45 -57 -78.5
t-33 -43.5q-7 -8 -14.5 -6.5t-12.5 8.5q-6 8 -8 19t3 18zM263 248q8 8 13.5 1.5t6.5 -17.5q13 20 32.5 56t36.5 75q10 24 18 46.5t11 41t1 31t-12 17.5q-13 6 -29 0.5t-32.5 -18.5t-33.5 -33t-32 -42t-27 -45t-20 -44t-11 -39t1 -30t13.5 -16t21 -3t23 6.5t19.5 12.5z" />
    <glyph glyph-name="colon" unicode=":" horiz-adv-x="246" 
d="M263 281q-14 1 -24.5 5t-24.5 18q-14 16 -9 26t20 10q14 4 34 -3.5t28 -24.5q3 -6 1 -12t-6.5 -10t-10 -6.5t-8.5 -2.5zM115 24q10 5 26 4t30 -9q14 -7 19 -19.5t-5 -18.5q-5 -3 -13.5 -4t-18.5 -0.5t-19.5 2.5t-15.5 5q-12 6 -12.5 20.5t9.5 19.5z" />
    <glyph glyph-name="semicolon" unicode=";" horiz-adv-x="170" 
d="M139 44q1 5 7.5 4.5t13.5 -4.5t12 -11t3 -15q-2 -11 -15.5 -31.5t-31.5 -43.5q-11 -14 -22 -27.5t-20.5 -24.5t-16.5 -18.5t-10 -10.5q-6 -5 -12.5 -4t-11.5 6t-5.5 11.5t5.5 11.5q5 5 22.5 28.5t36.5 51.5q17 25 30.5 47t14.5 30zM283 270q-14 1 -24.5 5t-24.5 18
q-14 16 -9 26t20 10q14 4 34 -3.5t28 -24.5q3 -6 1 -12t-6.5 -10t-10 -6.5t-8.5 -2.5z" />
    <glyph glyph-name="less" unicode="&#x3c;" horiz-adv-x="367" 
d="M376 319q-7 -6 -20.5 -12.5t-30 -13.5t-36 -14.5t-38.5 -14.5t-37 -13.5t-32 -12.5t-22.5 -11t-8.5 -9q0 -2 11 -8.5t29 -15t41 -18.5l46 -20q36 -15 66 -27t35 -15q7 -2 6.5 -8t-5.5 -11q-7 -8 -19.5 -12.5t-25.5 -0.5q-14 5 -39.5 15t-53.5 22q-36 16 -67.5 30.5
t-40.5 19.5q-13 8 -22.5 18.5t-14.5 21.5q-7 16 -3.5 31t20.5 26q18 12 50 25t67 27q41 16 77.5 30.5t52.5 28.5q11 10 17.5 2t8.5 -22q2 -11 -0.5 -21.5t-10.5 -16.5z" />
    <glyph glyph-name="equal" unicode="=" horiz-adv-x="453" 
d="M211 348q12 -2 20 -3t20 -2t33 -1h58q57 0 90.5 -2t44.5 -10q5 -2 7 -7t1 -10q-1 -6 -6 -11t-13 -4q-8 0 -26.5 -1.5t-40 -3t-43 -2.5t-34.5 -1q-24 0 -48.5 1t-47.5 6q-8 1 -14 6.5t-11 13.5q-7 12 -5.5 22.5t15.5 8.5zM139 198q6 1 13.5 1.5t22.5 0.5h41h69
q39 0 65 -0.5t42.5 -1.5t27.5 -3.5t20 -6.5q10 -5 15.5 -12.5t6.5 -13.5q2 -10 -13 -9q-9 -1 -27 -1.5t-40 -0.5h-47.5h-49.5q-29 0 -46.5 -1t-29.5 -2t-21.5 -1.5t-21.5 0.5q-9 0 -17 5.5t-13 13.5q-6 9 -6 18.5t9 13.5z" />
    <glyph glyph-name="greater" unicode="&#x3e;" horiz-adv-x="414" 
d="M213 402q11 -14 36 -30.5t55 -35.5t60.5 -38t53.5 -39q7 -5 14 -18t8 -27q1 -13 -6.5 -24.5t-27.5 -18.5q-20 -8 -58.5 -19t-79.5 -24q-42 -13 -77 -25t-49 -20q-11 -8 -17.5 -2.5t-8.5 16.5q-2 13 2.5 28t17.5 21q18 8 54 17.5t74 20.5q45 12 80 23.5t37 18.5
q1 3 -6 8.5t-18.5 13.5t-27.5 17t-33 20q-30 18 -59 38t-45 38q-5 6 -6 15.5t2 17.5q3 10 10 13.5t15 -5.5z" />
    <glyph glyph-name="question" unicode="?" horiz-adv-x="382" 
d="M287 538q14 9 38 22.5t53 21.5q20 6 41 8t41 -3q37 -9 52 -38q11 -20 8.5 -45t-13.5 -48t-42.5 -60t-69.5 -78q-35 -38 -68 -74t-53 -62q-21 -29 -20 -37q3 -12 5.5 -15t4 -3h1.5l-3 -6q-2 -5 -8.5 -6.5t-14.5 0.5q-19 2 -29 16q-11 14 2 39.5t49 68.5q15 19 48 54t68 75
q23 26 44 51.5t36 48t22.5 40.5t2.5 27q-8 16 -30 14.5t-48 -10.5q-28 -10 -53.5 -23.5t-34.5 -19.5t-18.5 -3.5t-16.5 9.5q-7 8 -7 18t13 18zM175 -11q7 3 16 1.5t16.5 -5t13 -7t7.5 -5.5q10 -16 -0.5 -27.5t-23.5 -11.5q-11 0 -25.5 5.5t-20.5 14.5q-8 9 -4 18.5t21 16.5z
" />
    <glyph glyph-name="at" unicode="@" horiz-adv-x="705" 
d="M607 288q-12 -14 -27.5 -41t-29.5 -56q-8 -18 -14.5 -35t-9.5 -30.5t-2.5 -22.5t6.5 -10q13 -3 40.5 12t56.5 48q20 22 38 52t31 68q35 104 19 165t-71 74q-43 11 -87 0.5t-89 -39.5q-36 -24 -71.5 -60.5t-67.5 -85.5q-33 -50 -53 -100t-29 -94.5t-10 -80.5t4 -58
q10 -53 40 -72t75 -8q25 5 47.5 13.5t40 18.5t30.5 19t19 15q6 5 12 3t9 -9q4 -8 3 -18.5t-9 -21.5q-8 -9 -22.5 -19t-32.5 -18.5t-38 -14.5t-39 -9q-53 -8 -100 18.5t-75 98.5q-9 24 -10.5 61t5.5 80.5t22 90t39 88.5q26 49 70 102.5t103 91.5q26 17 54 28.5t59 16.5
q38 7 72 4t62 -16.5t48 -36.5t30 -57q9 -30 9.5 -63.5t-7 -68.5t-21.5 -69.5t-33 -67.5q-38 -63 -79 -87t-72 -25q-32 1 -48.5 18t-18.5 41q-1 15 5 41q-20 -21 -40 -38.5t-39 -28.5q-20 -12 -36 -7.5t-27 16.5q-12 13 -17 31t-1 32q7 26 19 54t29 54q22 34 50.5 59.5
t61.5 30.5q19 3 42.5 -8t37.5 -35q4 5 6.5 8.5t4.5 5.5q5 5 13 0t13 -14q5 -8 6 -17t-6 -17zM515 325q-11 1 -23 -5t-24 -16t-24 -24t-23 -30q-14 -20 -25.5 -40.5t-19 -38t-10.5 -29.5t0 -14q4 -3 13.5 1t22.5 14t29 25.5t34 33.5q20 21 41.5 45t41.5 48q-8 11 -16.5 20
t-16.5 10z" />
    <glyph glyph-name="A" unicode="A" horiz-adv-x="561" 
d="M536 517q10 -17 17 -32.5t13 -31.5l23 32q5 8 14 4.5t17 -12.5q7 -8 9.5 -18.5t-3.5 -18.5q-8 -12 -22.5 -35.5t-30.5 -51t-31.5 -56.5t-24.5 -51q-12 -28 -21 -54t-17 -49q-18 -57 -22.5 -93t7.5 -42q7 -4 21 4.5t31 24t36.5 37.5t38.5 45q31 38 56 72.5t34 50.5
q6 11 12 11.5t10 -5.5t5 -15t-3 -18q-8 -20 -34.5 -58t-58.5 -78q-27 -34 -54.5 -62t-47.5 -40q-14 -8 -30.5 -7.5t-31 9.5t-25 25t-12.5 38q-2 20 1 42.5t8 45.5q10 40 23 72t17 40q-4 -5 -17 -22.5t-33 -43.5t-46.5 -57.5t-57.5 -64.5q-41 -43 -86.5 -83t-93.5 -67
q-17 -9 -32.5 -9t-29.5 7q-18 9 -31 26.5t-19 37.5q-6 21 -0.5 58.5t21 84t40 98t55.5 100.5q79 124 149 190.5t113 84.5q27 11 49.5 8t40.5 -14t31.5 -27.5t22.5 -31.5zM72 -63q13 -4 34.5 6.5t48.5 32.5t58 53t64 67q35 39 70.5 81t69 83t63 79.5t52.5 68.5q-3 18 -8 38.5
t-14 40t-22.5 35t-34.5 21.5q-14 4 -42.5 -9.5t-66 -46t-82 -85t-90.5 -125.5q-34 -53 -60.5 -111t-41.5 -107t-15.5 -82.5t17.5 -39.5z" />
    <glyph glyph-name="B" unicode="B" horiz-adv-x="535" 
d="M275 549q5 10 15 6t18 -15q5 -7 7.5 -15t0.5 -16q-4 -10 -16 -36t-26.5 -58.5t-30 -67t-26.5 -62.5l-9 -20q18 4 44.5 13t61 24.5t75.5 38.5t87 56q76 56 101 94.5t18 62.5q-5 19 -33.5 32.5t-68.5 21t-86 10t-87 -0.5q-60 -5 -104.5 -15t-74 -21.5t-44 -22t-14.5 -14.5
q-1 -11 -11.5 -5.5t-18.5 16.5q-5 8 -7 16.5t4 13.5q7 6 35 21t73.5 29.5t107.5 23.5t138 4q64 -5 108 -17t71 -29.5t39 -39.5t12 -47q1 -28 -15 -56.5t-42 -55.5t-59 -52.5t-68.5 -46.5t-70 -37.5t-61.5 -26.5q39 -3 75 -11q31 -7 64 -19.5t56 -32.5q37 -35 35.5 -71.5
t-38.5 -72.5q-29 -28 -76 -51.5t-98 -40.5q-48 -16 -91 -24.5t-67 -6.5q-14 0 -24 5.5t-15 12.5q-6 8 -4 15t13 5q5 -1 22 1t41 7t54 13t61 19q42 15 82.5 34.5t67.5 45.5q29 28 32 50.5t-32 43.5q-8 5 -25.5 11t-41 11.5t-51 10t-55.5 6.5q-56 2 -84 -6t-39 -14
q-16 -38 -33 -81.5t-31.5 -82.5t-24 -69.5t-10.5 -42.5q-2 -18 -12 -19.5t-21 5.5q-9 6 -15 14.5t-4 15.5q3 7 16.5 41.5t31.5 81.5t39 99.5t39 96.5z" />
    <glyph glyph-name="C" unicode="C" horiz-adv-x="456" 
d="M498 442q-8 -11 -15.5 -9t-12.5 10t-7.5 18t1.5 18q3 8 9 22t11 31q6 20 8 37t-9 22q-15 7 -52 -14.5t-85 -65.5q-34 -32 -69.5 -72.5t-70.5 -90.5q-39 -57 -66.5 -110t-42.5 -101q-20 -64 -18 -113t27 -75q16 -17 39.5 -23.5t55.5 -0.5t73 25.5t91 56.5q33 24 68 60
t66 72t53.5 66t30.5 42q7 11 12 10.5t9 -7.5q3 -6 4 -16t-3 -19q-3 -8 -19 -31.5t-39 -53.5t-50.5 -61t-53.5 -55q-58 -53 -115 -86t-113 -39q-42 -5 -74.5 5t-56.5 30q-25 20 -39 48t-16 59q-5 69 25 149.5t96 177.5q43 63 84 111t77 81.5t66.5 53t53.5 26.5q20 6 38 0
t32 -18t23.5 -26.5t11.5 -28.5q2 -12 -1.5 -27.5t-9.5 -31.5t-13.5 -30.5t-13.5 -25.5z" />
    <glyph glyph-name="D" unicode="D" horiz-adv-x="521" 
d="M273 595q-61 -5 -114 -22.5t-92 -38t-61 -40t-22 -27.5q0 -14 -7.5 -13t-15.5 9t-12.5 18.5t-0.5 19.5q3 9 25.5 28.5t60.5 41t90 40.5t116 25q85 9 150 -2.5t110.5 -38.5t70.5 -69t29 -94q3 -42 -10 -91t-39 -98.5t-64 -95.5t-84 -82q-91 -71 -165.5 -100t-127.5 -27
q-40 2 -64 29q-11 13 -16 29.5t-1 35.5q6 29 28.5 91.5t74.5 166.5q50 100 81 166.5t35 94.5q2 10 12 5t19 -16q7 -8 10.5 -18.5t-0.5 -20.5q-13 -35 -39.5 -90.5t-69.5 -140.5q-57 -113 -85.5 -186t-15.5 -99q4 -9 26 -8.5t53.5 10t69 27.5t73.5 42q38 25 79.5 60.5
t77.5 80t62 98.5t33 117t-16 101t-64 57.5t-94 24t-106 0.5z" />
    <glyph glyph-name="E" unicode="E" horiz-adv-x="438" 
d="M522 608q5 -5 5 -10t-2 -9q-5 -7 -12.5 -9t-11.5 3q-8 9 -17.5 14.5t-23.5 4.5q-23 0 -61 -21t-80 -56q-63 -52 -85 -97.5t0 -68.5q8 -9 24 -16.5t33 -13.5q29 15 52 24t38 11q15 1 27.5 -2.5t20 -9t9.5 -12.5t-4 -13q-5 -5 -16 -12t-26.5 -14t-35.5 -11.5t-42 -3.5
q-38 -20 -91.5 -55t-103.5 -82q-45 -41 -72 -82q-31 -48 -33.5 -85t22.5 -52q30 -19 99 -5.5t157 66.5q57 34 101 70.5t77 71.5q32 34 53.5 63t36.5 51q10 14 17 0q4 -8 4.5 -19.5t-4.5 -20.5q-17 -34 -58 -84t-101 -100q-54 -46 -120 -84.5t-141 -56.5q-46 -11 -80.5 -6
t-57.5 21q-23 15 -35 38t-16 49q-4 29 9 65t44 75q16 20 36.5 40t45.5 40q34 27 69.5 52t70.5 45q-46 19 -61.5 52.5t-4.5 65.5q12 34 44 72.5t72 73.5q22 19 45 35.5t44 28.5t39 18.5t32 6.5q26 0 40.5 -15t28.5 -31z" />
    <glyph glyph-name="F" unicode="F" horiz-adv-x="438" 
d="M643 545q-2 -5 -6 -9l-9 -9q-11 -9 -21 -11t-3 13q3 8 -23 17.5t-74 11.5q-46 2 -94.5 1t-96.5 -6q8 -5 13.5 -15t4.5 -19q-1 -11 -16.5 -45.5t-44.5 -97.5l-52 -118q23 5 46.5 8.5t46.5 5.5q26 3 47 3.5t34 -4.5q19 -7 27 -18q4 -5 1.5 -9t-15.5 -3q-17 1 -43.5 -1.5
t-55.5 -7.5l-56 -10t-52 -10q-17 -41 -31.5 -79.5t-26.5 -73.5q-20 -58 -27.5 -99t1.5 -55q5 -7 -3 -7.5t-19 5.5q-9 5 -16.5 13.5t-9.5 20.5q-2 17 4.5 49.5t20.5 75.5q20 63 50 135q-4 -2 -5 -2q-10 -5 -19 0t-14 14q-6 10 -5 19.5t12 10.5q15 0 52 8l67 151
q28 63 45.5 103.5t20.5 50.5q-80 -8 -141.5 -23.5t-81.5 -36.5q-11 -11 -17 -6.5t-8 16.5q-2 11 2.5 25t15.5 21q10 6 49 17.5t108 22.5q45 7 101.5 11.5t127.5 4.5q50 0 87 -5.5t61 -13.5q47 -17 41 -40z" />
    <glyph glyph-name="G" unicode="G" horiz-adv-x="492" 
d="M474 460q-5 -8 -12.5 -4t-12.5 12q-4 7 -4.5 14.5t3.5 13.5q7 11 15.5 27.5t15.5 33.5q8 17 10.5 31t-2.5 17q-13 7 -49 -7t-91 -60q-33 -28 -72 -69t-83 -98q-36 -48 -64.5 -99t-45.5 -98q-22 -58 -25 -100t17 -53q8 -4 27 1.5t45 17t58 28t65 35.5q38 22 75.5 45t69 44
t54.5 37.5t32 25.5q8 8 17 4.5t15 -14.5q5 -9 5.5 -22t-7.5 -26q-23 -31 -64 -97t-87 -157q-11 -22 -24 -50.5t-23 -54.5t-16 -47t-3 -28q2 -5 7 -6t10.5 -2t10 -4t4.5 -10q0 -5 -9 -8.5t-22 -1.5q-12 2 -24.5 8.5t-19.5 23.5q-5 11 -0.5 32t16 50t28.5 64t37 74
q16 30 33.5 62t33.5 59q18 32 36 62q-20 -14 -43 -29q-20 -14 -45 -30.5t-54 -33.5q-25 -15 -50.5 -29.5t-50.5 -26.5t-47 -21t-39 -13q-26 -5 -45.5 0t-33.5 16q-17 14 -25.5 33t-9.5 37q-1 13 0 30.5t6.5 41.5t17 55t31.5 69q25 49 69 114q37 55 77.5 99.5t81.5 79.5
q76 64 141 85q19 6 36 2.5t29.5 -13t20.5 -22t10 -23.5q2 -10 -3 -24.5t-13 -31.5q-9 -19 -20.5 -38t-20.5 -33z" />
    <glyph glyph-name="H" unicode="H" horiz-adv-x="647" 
d="M12 224q20 11 78.5 24t136.5 24l30 69l39 97q22 57 33 90.5t15 52.5t3 26t-2 12q-2 6 9 5t23 -7q8 -4 13.5 -9.5t6.5 -13.5t-10 -46t-44 -120q-9 -23 -19.5 -49t-23.5 -56l-19 -45q27 3 54.5 5.5t55.5 4.5q69 4 117.5 5t82.5 0q20 52 38 94t32 77q26 63 40 98t13 48
q-1 11 9 9t20 -10q7 -6 12 -13.5t3 -15.5q-2 -12 -16.5 -45.5t-41.5 -98.5q-12 -29 -27 -64.5t-32 -79.5h23.5t14.5 2q8 2 12 -3t4 -12q1 -10 -6 -19.5t-21 -8.5q-8 0 -18 0.5t-24 1.5q-1 -1 -1 -3q-14 -36 -28 -75t-27 -76q-19 -56 -31.5 -99t-11.5 -57q1 -11 -7.5 -12.5
t-19.5 3.5t-19 15t-5 21q2 12 16 55.5t34 97.5q12 33 24.5 66.5t24.5 63.5q-33 -1 -81 -3t-118 -7q-61 -4 -116 -12q-20 -45 -37.5 -83t-32.5 -72q-32 -72 -51.5 -118.5t-20.5 -65.5q-1 -11 -12.5 -9t-20.5 13q-5 6 -8.5 14t-1.5 17q5 26 25.5 72.5t49.5 106.5q14 28 28 57
t28 61q-65 -11 -107.5 -23t-56.5 -23q-6 -5 -15 -0.5t-16 12.5t-8.5 18t9.5 16z" />
    <glyph glyph-name="I" unicode="I" horiz-adv-x="209" 
d="M333 590q2 -9 -7.5 -36.5t-28.5 -73.5q-18 -43 -43.5 -101t-58.5 -133q-30 -66 -56 -128t-43 -110q-14 -38 -20.5 -62.5t-4.5 -30.5q2 -9 -6.5 -7t-18.5 13q-7 8 -12 18.5t-4 22.5q1 11 8 31.5t18 48.5q19 46 47 108.5t59 135.5q25 58 46 110.5t38 95.5q18 47 28.5 78.5
t12.5 42.5q1 10 7.5 11t14.5 -4t15 -13t9 -17z" />
    <glyph glyph-name="J" unicode="J" horiz-adv-x="375" 
d="M753 536q0 -9 -13 -16q-5 -3 -11 -4.5t-10.5 -1.5t-6.5 2.5t0 7.5q2 4 -1 9.5t-13 11t-27.5 10t-45.5 6.5q-40 2 -73 3.5t-62 0.5q0 -2 -0.5 -4t-0.5 -4q-5 -17 -19.5 -53t-34.5 -81q-20 -46 -44.5 -96.5t-48.5 -99.5q-23 -45 -43 -82t-38 -66q-38 -62 -69.5 -96
t-60.5 -51q-30 -18 -55.5 -21.5t-45.5 3t-33 21t-17 32.5q-4 16 -1.5 33.5t8 34t12 29.5t11.5 19q2 3 8.5 3t12.5 -2q7 -2 11 -7.5t1 -14.5t-9 -28t-9.5 -38t-1 -35t17.5 -19q23 -5 58.5 20t85.5 95q25 35 53.5 83t60.5 111q23 45 45 92.5t42 91.5q17 38 30.5 71t24.5 57
q-35 -2 -66.5 -5.5t-64.5 -7.5q-59 -8 -95 -18.5t-50 -21.5q-7 -5 -12.5 0t-7.5 15q-3 11 -1 23.5t11 17.5q24 11 83 22t137 16q45 3 93 3.5t96 -2.5q49 -3 86 -9t61 -16q44 -17 42 -44z" />
    <glyph glyph-name="K" unicode="K" horiz-adv-x="536" 
d="M621 581q9 0 17.5 -5t13.5 -11q7 -8 8 -14.5t-9 -7.5q-9 0 -28 -7t-45 -18.5t-58 -27.5t-66 -35q-37 -20 -74 -42.5t-71 -45.5t-61.5 -45.5t-45.5 -42.5q3 -20 14 -51t37 -66q16 -22 38.5 -44t52.5 -42q35 -23 73 -29t70 0.5t52.5 23t21.5 39.5q1 12 8 13t14 -7
q6 -7 9 -19.5t-4 -28.5q-9 -22 -30 -37.5t-48.5 -24t-60 -9t-64.5 8.5q-59 16 -107 56q-55 46 -95 122q-17 33 -20 55q-13 -35 -27 -77.5t-26 -82t-19.5 -72.5t-7.5 -50q0 -21 -10 -22t-21 8q-10 8 -16.5 19t-4.5 19q3 15 16 55q11 34 32.5 96.5t59.5 166.5q23 64 46 123.5
t42 107t30.5 80.5t11.5 45q0 14 10 13.5t21 -8.5q8 -7 14.5 -17t4.5 -22q-2 -11 -13 -37t-27.5 -64.5t-37 -86t-42.5 -100.5l19 19q16 16 39 34.5t50.5 37t58 37t60.5 35.5q32 18 63 34t57 27.5t45.5 17.5t29.5 6z" />
    <glyph glyph-name="L" unicode="L" horiz-adv-x="354" 
d="M317 578q-5 -11 -16 -33t-31 -61q-17 -35 -41 -86t-56 -121q-18 -43 -38.5 -93t-36.5 -96q-9 -27 -15.5 -50.5t-9 -41t-0.5 -28t11 -11.5t28.5 3t44 11.5t53 16.5t55.5 19q38 14 68.5 26t38.5 17q11 8 15.5 -0.5t-3.5 -22.5q-5 -8 -13.5 -16t-22.5 -15q-21 -11 -47.5 -21
t-53.5 -21q-35 -14 -67 -24.5t-50 -15.5q-17 -4 -36.5 -0.5t-36.5 14.5t-26.5 28.5t-7.5 43.5q2 19 8.5 45.5t17.5 58.5q12 33 26.5 69t29.5 71t29.5 67.5t25.5 58.5q14 32 29 64.5t29 62.5q19 41 33 73t18 47q2 10 11.5 9.5t19.5 -7.5t16 -18.5t1 -22.5z" />
    <glyph glyph-name="M" unicode="M" horiz-adv-x="583" 
d="M-58 -44q4 10 20.5 39t40.5 70t54.5 91t63.5 103q36 59 72.5 117.5t67.5 107.5t53.5 84.5t31.5 49.5q10 15 21.5 16.5t21.5 -5.5q14 -10 21 -29.5t-1 -37.5q-3 -8 -11.5 -33t-20 -61t-24.5 -80t-25 -88q-12 -43 -22.5 -83t-17.5 -71t-9 -49.5t3 -20.5t20 13.5t37 43.5
q28 35 63.5 85t71.5 104q27 40 52.5 79.5t46 72.5t34 57.5t17.5 35.5q6 18 20.5 17t26.5 -12q11 -10 16 -24.5t0 -28.5q-3 -8 -15 -37t-27.5 -68t-33 -84t-31.5 -85q-11 -32 -22.5 -67.5t-20 -68t-11.5 -57.5t2 -37q5 -11 17.5 -11t26.5 4.5t26 11t15 8.5q9 5 13 -4
q2 -5 1.5 -13t-4.5 -13q-11 -15 -35 -25.5t-56 -0.5q-20 6 -32.5 25.5t-14.5 53.5q-3 48 21 126q14 43 33 94t36 95q20 51 42 102q-18 -30 -39 -63q-18 -29 -42 -66t-50 -76q-25 -37 -50.5 -73.5t-49 -67.5t-43.5 -54t-33 -32q-19 -12 -41 2q-13 8 -21.5 26.5t-9.5 47.5
q0 10 4 30.5t10 47.5t14.5 58.5t17.5 64.5q11 41 22.5 80.5t20.5 70.5q11 36 21 69q-28 -46 -60 -96q-27 -43 -61 -98t-69 -112q-33 -54 -64 -105.5t-55 -93.5t-39 -70t-15 -34q-1 -14 -9.5 -17.5t-17.5 1.5q-10 5 -16.5 18t0.5 30z" />
    <glyph glyph-name="N" unicode="N" horiz-adv-x="471" 
d="M11 -62q2 13 10 39.5t20 63t27.5 80t32.5 89.5q21 59 43 118t41 108.5t32.5 85t17.5 47.5q5 13 15.5 19.5t22.5 7.5q14 1 25 -8t9 -28q-2 -16 0 -46.5t6.5 -69.5t10.5 -84.5t13 -90.5q5 -35 10.5 -69t11 -63.5t10 -53.5l7.5 -40q11 37 27 81q14 38 33 88t43 108
q30 72 54.5 126t44.5 91t36.5 56.5t31.5 21.5q13 2 21.5 -4.5t13.5 -15.5q7 -12 6 -23t-12 -7q-23 7 -58 -51q-20 -35 -44 -89t-53 -123q-19 -46 -39 -98t-37.5 -98.5t-29.5 -81t-14 -46.5q-4 -20 -20 -15q-9 3 -19.5 14.5t-18.5 26.5q-6 12 -13.5 37t-14.5 58t-14.5 72.5
t-13.5 81.5q-11 69 -17.5 135t-7.5 110q-6 -14 -19 -48t-30 -80t-36.5 -99.5t-38.5 -107.5q-16 -45 -31 -87.5t-27 -77.5t-20 -60t-10 -35q-2 -8 -9 -7t-15 9q-7 6 -11.5 15.5t-2.5 17.5z" />
    <glyph glyph-name="O" unicode="O" horiz-adv-x="478" 
d="M111 412q14 40 36 75.5t51 64.5q29 27 64 45t78 24q34 5 66 -0.5t58.5 -21t45 -41t27.5 -61.5q10 -38 6 -82.5t-18 -91.5t-37.5 -95t-53.5 -92q-49 -73 -110 -128.5t-121 -75.5q-39 -13 -71.5 -10t-57.5 20q-29 20 -45 55.5t-18 83.5q-3 68 27 154q13 37 28.5 69.5
t31.5 58.5q5 26 13 49zM76 182q-20 -72 -20 -123q-1 -43 13.5 -69t43.5 -29q35 -4 95 24.5t125 100.5q30 34 59.5 78.5t55.5 101.5q25 54 35.5 102t8.5 88q-2 45 -16.5 76.5t-37.5 44.5q-29 17 -68.5 12t-80.5 -28q-33 -20 -62.5 -51t-49.5 -75q-17 -38 -25 -67t-10 -52
q-2 -42 12.5 -62t28.5 -25q11 -5 10 -10t-9 -8q-8 -4 -19 -4.5t-21 3.5q-13 5 -23 18t-17 33q-17 -41 -28 -79z" />
    <glyph glyph-name="P" unicode="P" horiz-adv-x="492" 
d="M34 552q7 7 34 24.5t71.5 35.5t106.5 32t140 14q64 0 113 -10.5t82.5 -28t51.5 -41t21 -50.5q3 -35 -17.5 -74t-55 -77t-76.5 -72t-82 -60q-32 -21 -64 -37.5t-60 -28.5t-50 -18.5t-34 -6.5q-13 -1 -25 11q-5 5 -8.5 10.5t-4.5 10.5l-8 -19q-38 -94 -60 -156t-22 -83
q0 -11 -5.5 -14t-13.5 1q-9 5 -17 16.5t-7 28.5q1 15 10 42t22.5 61.5t30 73.5t31.5 78q20 48 44 103t46 104t37.5 85t18.5 47q3 12 11.5 7.5t15.5 -15.5q5 -8 8.5 -18t0.5 -17q-4 -11 -16.5 -38t-31 -67t-41 -91.5t-47.5 -111.5q2 2 6 2q11 1 30 4.5t47 14t66 29.5t87 51
q43 28 80.5 61t64 66t39 62t5.5 50t-32.5 35.5t-62 23t-80.5 10.5t-88 -2q-50 -5 -98 -17.5t-87 -28t-64.5 -31.5t-30.5 -26q-5 -9 -12.5 -6t-14.5 11q-7 9 -10 20.5t5 19.5z" />
    <glyph glyph-name="Q" unicode="Q" horiz-adv-x="457" 
d="M164 157q5 -5 4.5 -8t-5.5 -3q-10 0 -25 11q-8 6 -16 15.5t-13 21.5q-8 20 -9 64.5t16 100.5q14 42 40 88t71 91q32 32 65.5 53t65.5 32q38 14 69.5 17t49.5 0q34 -6 60 -27q31 -25 36 -59q4 -20 -8.5 -68.5t-48.5 -119.5q-20 -39 -48.5 -83t-66.5 -92t-78 -88.5
t-78 -72.5q13 -5 27 -10l28 -10q26 -8 56 -19.5t59 -22.5q38 -14 71 -24t55 -9q10 -1 7.5 -10t-15.5 -17q-8 -5 -19.5 -8.5t-26.5 -1.5q-14 2 -46.5 12.5t-74.5 26.5q-38 14 -80 30.5t-80 31.5q-57 -45 -99.5 -69t-59.5 -29q-13 -3 -24 -1.5t-20 6.5q-19 10 -29.5 27.5
t-12.5 31.5q-5 37 14 69q13 23 34.5 37.5t47.5 13.5q30 0 64 -10t74 -25q36 29 73.5 64.5t72.5 76.5q41 48 73.5 98t56.5 98q19 37 31.5 71t18.5 61t5 45.5t-9 25.5q-12 11 -54 8t-95 -26q-38 -17 -75.5 -45t-69.5 -72q-19 -26 -32.5 -51.5t-22.5 -49.5q-16 -43 -20 -80
t1 -66q4 -24 7.5 -35t7.5 -16zM10 -53q7 -5 28.5 3t53.5 27q28 16 62 41q-29 11 -51 17.5t-33 8.5q-20 1 -35 -10.5t-24 -27.5q-10 -17 -10.5 -34t9.5 -25z" />
    <glyph glyph-name="R" unicode="R" horiz-adv-x="531" 
d="M47 590q4 3 25.5 13.5t58 22.5t86.5 21t111 9q60 0 112 -10t90.5 -29t62 -45t27.5 -58q3 -30 -9 -57.5t-35.5 -52t-56.5 -46t-72 -38.5q-62 -27 -109 -41t-78.5 -21t-48 -11t-17.5 -11q-2 -16 26.5 -53.5t78.5 -76.5q27 -21 59.5 -40t67.5 -33q21 -8 42.5 -11.5t39 -4
t29.5 1.5t15 6q4 6 9 5t8 -7t3.5 -15.5t-4.5 -18.5t-19.5 -14t-35.5 -5q-27 0 -61 7t-68 21q-39 17 -72 38.5t-61 44.5q-56 49 -86 94q-14 -36 -26.5 -69.5t-22.5 -62.5q-14 -41 -20.5 -69t-1.5 -36q4 -6 -3.5 -6.5t-18.5 5.5q-9 5 -16 14t-9 22q-2 15 8.5 47t27.5 74
l56 138v1q-2 23 3 35.5t19 20.5q19 49 40 96.5t38 87t28.5 67.5t13.5 38t9 9t15 -7t13 -14.5t4 -15.5q-1 -11 -7 -24.5t-18 -39t-31.5 -69t-48.5 -113.5q26 5 66.5 14.5t97.5 31.5q114 42 163.5 86.5t38.5 86.5q-11 37 -75 61.5t-173 22.5q-57 -1 -103.5 -8.5t-81.5 -18
t-58 -23.5t-33 -24q-8 -9 -14.5 -2.5t-8.5 19.5q-2 11 0.5 22t10.5 18z" />
    <glyph glyph-name="S" unicode="S" horiz-adv-x="401" 
d="M-24 -92q-27 8 -35.5 26t-3.5 37q4 16 11.5 25.5t14.5 13.5t10.5 0t-0.5 -9q-8 -11 -8.5 -23.5t9.5 -18.5q18 -11 63 -8.5t116 24.5q76 23 119.5 51t51.5 62q6 25 -0.5 45.5t-23 43t-42.5 49.5t-59 64q-19 21 -35.5 42t-28.5 42.5t-16.5 43.5t0.5 44q8 35 46.5 69.5
t91.5 60.5q68 34 144 45q26 4 42 -1t25 -14q12 -12 14 -27.5t-2 -26.5q-3 -10 -9 -24t-13 -28q-5 -11 -10.5 -20.5t-8.5 -16.5q-4 -13 -13 -4q-9 8 -13 22q-3 7 1 18.5t10 24.5q6 14 11 27t2 18q-4 5 -19.5 5t-39 -5t-52.5 -15.5t-61 -26.5q-55 -28 -79 -60.5t-19 -67.5
q3 -21 15 -40.5t30.5 -41t43 -47t52.5 -58.5q14 -17 27.5 -34.5t23.5 -37t14 -41t0 -45.5q-4 -20 -21 -39.5t-43.5 -36.5t-59 -32t-67.5 -27q-61 -20 -118 -28t-88 1z" />
    <glyph glyph-name="T" unicode="T" horiz-adv-x="314" 
d="M332 505q-10 -16 -44 -83t-88 -200q-18 -47 -35 -91.5t-30.5 -82.5t-22 -66.5t-9.5 -41.5q-2 -15 -10.5 -14t-17.5 12q-7 8 -10.5 16.5t-2.5 21.5q1 15 12 47t27.5 72.5t35 84.5t34.5 83q19 46 38.5 91.5t37 84.5t30.5 68t19 44q-31 -2 -59 -6t-57 -9q-168 -26 -195 -51
q-11 -11 -16.5 -6t-7.5 16q-2 12 2 26t15 20q10 5 58 18t126 24q54 8 119 11.5t138 0.5q98 -5 146.5 -25t42.5 -43q-4 -9 -13 -17q-6 -5 -12 -8t-10 -3t-5.5 3t1.5 11t-23 18t-74 15q-47 5 -83.5 6.5t-67.5 0.5q10 -12 15 -26q2 -7 0 -12.5t-4 -9.5z" />
    <glyph glyph-name="U" unicode="U" horiz-adv-x="585" 
d="M382 605q-2 -10 -16.5 -36.5t-38 -67.5t-53.5 -97t-63 -124q-28 -58 -51.5 -112t-37 -95t-14.5 -66t15 -26q11 0 32 14t47.5 36.5t56.5 52t59.5 60t55.5 59.5t45 51q41 49 78 99.5t66.5 94t49 75t25.5 41.5q7 13 17.5 11t18.5 -11q6 -8 8.5 -18t-3.5 -21q-7 -11 -19 -28
t-29.5 -44.5t-39.5 -69t-48 -101.5q-22 -50 -33 -92t-14 -73t2 -49.5t16 -20.5q9 -2 22.5 6t29.5 22.5t33 33.5t34 39q26 31 45.5 58.5t26.5 40.5q5 10 10.5 8.5t9.5 -9.5t4 -19t-5 -19q-14 -22 -35 -53.5t-46 -62.5q-28 -35 -57.5 -61t-55.5 -29q-14 -2 -27 5.5t-24 21.5
q-20 27 -25 67q-4 32 3 77t26 86q-32 -38 -65 -75q-28 -32 -61.5 -68.5t-62.5 -65.5q-49 -50 -91.5 -79.5t-61.5 -32.5q-17 -3 -38 11q-14 10 -24 26t-10 36q0 19 4.5 44t16 60.5t32 84t52.5 114.5q34 71 64 126t51.5 94.5t33 65t10.5 37.5q-1 10 11 6.5t23 -12.5
q8 -6 12.5 -12.5t2.5 -13.5z" />
    <glyph glyph-name="V" unicode="V" horiz-adv-x="414" 
d="M239 545q0 -11 -7.5 -36.5t-19.5 -62t-27.5 -82t-31.5 -97.5q-14 -44 -28.5 -97t-23.5 -98.5t-9.5 -76t13.5 -29.5t44.5 31.5t72.5 82.5q42 54 89.5 122.5t92.5 143.5q27 46 56 91.5t57 84.5q32 45 59 76.5t44 40.5q14 7 24.5 5t15.5 -9q11 -14 -9 -28q-25 -17 -86 -106
q-28 -41 -65 -98t-85 -132q-45 -69 -83.5 -125.5t-72.5 -98.5q-84 -105 -127 -122q-11 -5 -26 -1t-28 16q-14 12 -23.5 31.5t-8.5 44.5q-1 33 21.5 119.5t63.5 220.5q10 34 21 70.5t18.5 67.5t11.5 53.5t1 30.5q-2 9 11 8t26 -10q8 -5 13 -12.5t6 -18.5z" />
    <glyph glyph-name="W" unicode="W" horiz-adv-x="641" 
d="M183 592q-5 11 5.5 13.5t22.5 -4.5q7 -4 13 -11t8 -16q1 -6 -6 -32t-19 -66t-28 -89t-32 -101q-18 -56 -33.5 -111t-25.5 -98.5t-12.5 -71.5t7.5 -31q6 -2 22 11t39.5 37t52.5 58.5t62 76.5q39 49 72 98t57 91.5t38 75t14 49.5q1 10 13.5 10.5t24.5 -6.5q9 -5 15.5 -13.5
t4.5 -19.5t-9 -34t-17 -53.5t-20.5 -66.5t-20.5 -72t-17.5 -70t-10.5 -61.5t-0.5 -46.5t13.5 -24q13 -5 58.5 54.5t117.5 166.5q28 44 63.5 101t70.5 108q30 45 56.5 76t44.5 37q12 4 22 3t18 -4q9 -4 11.5 -9.5t-2.5 -9.5q-20 -11 -49.5 -47t-63.5 -85
q-35 -50 -69.5 -104.5t-64.5 -100.5q-24 -38 -49 -74t-48.5 -65.5t-43 -50.5t-33.5 -28q-14 -8 -29.5 -5t-29.5 13q-24 16 -36 45q-9 19 -8 51t5.5 64.5t10.5 58t7 30.5q-1 -2 -9.5 -14.5t-22 -31.5t-30.5 -42.5t-35 -45.5q-22 -26 -45 -54.5t-45 -52.5t-41 -40.5t-32 -20.5
q-19 -5 -34.5 0.5t-26.5 16.5q-15 15 -23 36t-6 40q0 13 6.5 40t16.5 63t23 78.5t27 86.5q16 53 32.5 104t28.5 92t19 67.5t5 30.5z" />
    <glyph glyph-name="X" unicode="X" horiz-adv-x="421" 
d="M621 627q-4 0 -17.5 -9.5t-33.5 -26.5t-46 -40t-56 -51q-47 -44 -97.5 -94.5t-98.5 -101.5l-4 -4l-4 -4q-5 -46 -7.5 -101t2.5 -100q4 -35 15 -59t32 -27q13 -2 29.5 6t35 22.5t38 34.5t38.5 42q17 20 33 40.5t28.5 38.5t22 32t13.5 22t9.5 6.5t10.5 -8.5q9 -14 2 -30
q-11 -21 -35 -57t-54 -74q-17 -21 -34 -40t-33.5 -34.5t-31 -26t-25.5 -13.5q-24 -6 -47.5 0t-43.5 22t-33.5 40.5t-17.5 54.5q-4 32 -4 69t3 78q-27 -32 -51.5 -60t-44.5 -53q-24 -29 -42.5 -52.5t-31.5 -40.5q-15 -19 -25 -34h4h9q6 -1 10 -3t-3 -7q-11 -8 -23 -20.5
t-33 -43.5q-5 -6 -14 -5t-17 9q-7 6 -10 16t1 23q3 9 11.5 24t24.5 37.5t41 53.5t60 72q24 29 54 62t65 73l21 24q2 13 3.5 25.5t3.5 25.5q3 27 10 62t11 69t3.5 61.5t-12.5 38.5q-11 11 -31 6t-42 -16q-23 -13 -44 -29t-29 -29q-6 -9 -14.5 -3.5t-11.5 19.5q-2 8 -0.5 17
t8.5 19q6 8 24.5 23.5t43.5 26.5q17 8 35.5 12t35.5 1q32 -4 55 -27q14 -14 21 -31.5t6 -35.5q-1 -32 -7.5 -79t-12.5 -95q46 49 90.5 94.5t84.5 82.5q48 45 84.5 73.5t52.5 32.5q17 3 27 -0.5t14 -8.5t2.5 -10t-6.5 -7z" />
    <glyph glyph-name="Y" unicode="Y" horiz-adv-x="458" 
d="M273 545q1 -7 -8 -32t-25 -61.5t-37.5 -81t-45.5 -90.5q-32 -62 -58.5 -114.5t-44 -92.5t-23.5 -64.5t2 -30.5q12 -9 42 12t69 56.5t82 79.5t80 82q46 46 84 86.5t67 72.5t47.5 55.5t25.5 35.5q4 7 11 8.5t14.5 -2t14.5 -10t11 -15.5q5 -11 4.5 -22.5t-10.5 -21.5
q-16 -14 -46.5 -63t-70.5 -119q-28 -50 -59.5 -106t-63.5 -116q-22 -41 -40 -78.5t-32 -69.5q-22 -51 -33 -85t-11 -39t4 -6.5t8.5 -2t9 -1.5t6.5 -5q1 -4 -5 -9.5t-16 -9.5q-11 -5 -24 -4.5t-21 12.5q-8 13 -3 48t34 105q12 29 28.5 65t38.5 80q31 61 61.5 116.5t54.5 97.5
q28 49 53 91q-40 -47 -78 -89q-16 -18 -33.5 -37t-34.5 -37t-32.5 -34t-27.5 -27q-32 -29 -60 -54t-51 -44t-42 -29.5t-34 -10.5q-28 2 -44 18q-17 16 -22 41t0 49q5 22 20 53.5t35 69.5t43 81t44 89q48 100 72 163t13 86q-3 5 0.5 7.5t10 2t14.5 -4t15 -10.5
q6 -6 10.5 -14.5t6.5 -19.5z" />
    <glyph glyph-name="Z" unicode="Z" horiz-adv-x="455" 
d="M168 541q8 10 24 27t39 30q15 8 32.5 13t37.5 2q11 -2 26 -8t32.5 -15t36.5 -19.5t38 -20.5q26 -14 49.5 -24.5t41.5 -14.5q22 5 38 17t30 23q5 6 14 3.5t15 -10.5t6 -19t-13 -21q-11 -8 -47 -37.5t-82.5 -67.5t-96.5 -79t-87 -73q-29 -24 -65.5 -56.5t-69.5 -61.5
q-39 -34 -78 -70q21 2 48 2q23 0 56 -2t76 -8q21 -3 48 -9t54 -13t50 -13.5t36 -10.5q14 -5 20.5 -12.5t8.5 -15.5q2 -10 -4 -16.5t-17 -1.5q-14 6 -40.5 14.5t-62 16.5t-78 15t-87.5 10q-139 11 -166 -16q-18 -11 -36.5 -27t-30.5 -24q-7 -5 -16 4.5t-14 24.5q-5 14 -4 29
t13 25q13 8 25.5 12.5t22.5 7.5q11 4 22 5q58 49 113 97q24 20 49 42t49.5 43.5t47 41.5t41.5 37q30 26 61.5 55t57.5 52q30 27 59 53q-11 5 -22 11q-10 5 -23 12t-28 15q-33 17 -66.5 32t-49.5 18q-30 0 -54.5 -15.5t-41.5 -32.5q-8 -8 -17 -9t-16 3q-8 5 -10 13t5 17z" />
    <glyph glyph-name="bracketleft" unicode="[" horiz-adv-x="297" 
d="M441 650q11 4 17 0.5t5 -11.5t-8 -17.5t-23 -16.5q-19 -8 -38.5 -10.5t-36 -3.5t-28.5 -1.5t-16 -4.5q-11 -8 -28.5 -48.5t-40.5 -99.5q-19 -49 -40 -106t-43 -116l-74 -194q-13 -34 -24 -64t-18.5 -53.5t-10.5 -39t0 -18.5q4 -5 19.5 -3.5t35.5 5.5q19 4 39 8t34 5
q28 1 30 -12q1 -6 -5 -12.5t-17 -10.5q-23 -9 -47.5 -16.5t-47.5 -12.5t-41 -5.5t-27 4.5q-10 6 -14.5 15t-6 19.5t0.5 22t6 22.5q3 8 6.5 21t9.5 33.5t15.5 49t23.5 68.5q13 39 33 90q32 85 63 165t56 144l57 145q5 13 9 22t10 15q12 12 39 11h21.5t34.5 0.5t38 3t32 7.5z
" />
    <glyph glyph-name="backslash" unicode="\" horiz-adv-x="422" 
d="M207 664q4 -5 10.5 -21.5t14 -41t16.5 -55t18 -62.5q8 -30 16 -59.5t15 -55t13 -45.5t9 -31l61 -217q14 -46 24 -78.5t15 -35.5q1 2 6 -0.5t6 -6.5q11 -7 10.5 -23t-6.5 -20q-3 -2 -6.5 -4.5t-8.5 -3t-12 1t-17 8.5q-11 8 -25 44.5t-28 86.5q-9 33 -18.5 68t-17.5 67
t-15 59.5t-11 45.5l-59 198l-51 168q-6 11 1 16.5t18 5.5q6 0 12.5 -2t9.5 -7z" />
    <glyph glyph-name="bracketright" unicode="]" horiz-adv-x="214" 
d="M283 621q27 -5 57 -4.5t68 0.5q45 2 56 -20q10 -17 -1 -55l-20 -65t-30 -93t-41.5 -121t-53.5 -151l-48 -126q-23 -60 -35.5 -91t-22.5 -50q-8 -19 -15.5 -33t-15.5 -24.5t-18.5 -17.5t-24.5 -12q-11 -4 -28 -3.5t-34.5 3.5t-32.5 8.5t-22 10.5q-15 10 -20 24t-0.5 23
t15.5 1q15 -10 31.5 -17t33 -9.5t30 -0.5t22.5 10q8 7 16.5 20.5t19 37.5t24.5 59t33 85q16 42 34.5 93.5t42.5 116.5q21 59 39.5 111t32.5 96q20 63 30.5 101t7.5 43q-3 6 -13 6t-24.5 -2t-31.5 -3t-35 3q-11 2 -20 7t-15 11q-13 12 -11.5 22.5t20.5 5.5z" />
    <glyph glyph-name="asciicircum" unicode="^" horiz-adv-x="310" 
d="M116 329q4 3 13.5 11.5t22 21t27 28t29.5 31.5q16 18 32 35.5t29 32.5t21 26t10 16q5 11 14 10.5t18 -6.5q8 -6 14 -15t4 -19q0 -11 1 -29t3 -37.5t5.5 -36.5t9.5 -27q9 -20 21.5 -37.5t20.5 -22.5q6 -6 1 -12q-3 -5 -9.5 -8t-12.5 -1q-16 4 -31 18t-29 36
q-11 16 -17 33.5t-9 32.5t-3.5 24.5t-0.5 10.5l-53 -57q-14 -15 -28.5 -30.5t-27.5 -28.5t-22 -22.5t-12 -11.5q-9 -7 -19 -4t-18 10t-10 15t6 13z" />
    <glyph glyph-name="underscore" unicode="_" horiz-adv-x="500" 
d="M0 -69h500v-42h-500v42z" />
    <glyph glyph-name="grave" unicode="`" horiz-adv-x="366" 
d="M368 424q5 1 6 -2t-1 -8q-3 -5 -10.5 -10t-20.5 -5q-21 0 -51.5 16.5t-52.5 39.5q-19 20 -33.5 47t-14.5 47q0 8 5.5 14.5t13.5 10.5q11 5 22 3.5t11 -12.5t10.5 -35t32.5 -48q28 -32 50 -45t33 -13z" />
    <glyph glyph-name="a" unicode="a" 
d="M222 336q21 4 46 -9.5t39 -41.5l17 22q5 7 11.5 7t12.5 -5q10 -7 15.5 -19.5t0.5 -20.5q-14 -20 -31.5 -57t-30.5 -74q-13 -38 -16 -67t12 -33q7 -2 17.5 4.5t23 18.5t27 27.5t28.5 33.5q16 19 31 39t27.5 37.5t20.5 30.5t11 18q5 9 11 6.5t10 -10.5q3 -6 3.5 -14
t-2.5 -14q-7 -14 -26.5 -44.5t-43.5 -62.5q-17 -23 -33.5 -42.5t-30.5 -31.5q-29 -26 -58.5 -31.5t-52.5 20.5q-20 23 -18 64q2 42 22 81q-14 -20 -34 -44.5t-42.5 -48.5t-45.5 -45.5t-43 -35.5q-17 -12 -30.5 -10.5t-23.5 11.5q-13 13 -19 33t-1 36q8 29 27.5 70.5
t45.5 83.5q14 22 29.5 42.5t31 36t31.5 26t31 13.5zM62 25q4 -3 15.5 4.5t27.5 23t36 37t42 46.5q26 30 52.5 61.5t49.5 60.5q-8 12 -18.5 24.5t-19.5 13.5q-11 1 -23 -7t-25.5 -21.5t-27.5 -31.5t-27 -38q-18 -28 -34.5 -58t-28 -54.5t-17 -41.5t-2.5 -19z" />
    <glyph glyph-name="b" unicode="b" horiz-adv-x="259" 
d="M206 321q-2 -5 -5 -10t-5 -11q11 11 26 19t33 13q32 6 55 -14q24 -21 26 -55q1 -29 -21 -72t-55 -86q-19 -25 -39.5 -47.5t-40 -40.5t-37 -29t-29.5 -13q-23 -4 -40 16q-7 8 -11.5 18.5t-5.5 21.5q-3 28 21 100q10 29 24 65.5t34 79.5l72 153q12 25 23.5 49.5t21.5 45
t18 35.5t12 22q8 12 15.5 13t12.5 -5q6 -7 8.5 -19.5t-2.5 -26.5t-20.5 -46.5t-35.5 -70.5zM192 234q-6 -8 -12 -10q-8 -1 -15 7q-10 -23 -20.5 -48t-19.5 -49q-17 -46 -27.5 -80.5t-4.5 -39.5t20 3.5t31.5 25.5t37 39.5t37.5 46.5q15 19 31.5 44.5t29 50t18 45t-0.5 29.5
q-5 7 -22 0.5t-37 -20.5q-14 -10 -26.5 -21.5t-19.5 -22.5z" />
    <glyph glyph-name="c" unicode="c" horiz-adv-x="241" 
d="M219 313q11 2 23 -2.5t22 -14.5q11 -11 17.5 -25.5t4.5 -29.5q-2 -14 -14.5 -32.5t-23.5 -26.5q-12 -8 -23 1q-5 5 -7 11.5t3 14.5q4 7 10.5 17.5t11.5 20t7 17.5t-2 11q-11 7 -26 0t-32 -23.5t-34.5 -40t-32.5 -49.5q-23 -42 -35.5 -82t-4.5 -62q7 -18 25.5 -18t43 14
t54 39.5t58.5 57.5q28 31 53.5 65t45.5 69q5 9 11 9.5t11 -4.5q6 -6 8.5 -16t-2.5 -18q-13 -21 -37.5 -58.5t-57.5 -75.5q-32 -38 -70 -69t-79 -41q-30 -8 -52 0.5t-36 27.5q-11 15 -16.5 35.5t-3.5 42.5q2 23 14 53.5t32 61.5q13 21 29.5 41.5t33.5 36.5t35 27.5t36 14.5z
" />
    <glyph glyph-name="d" unicode="d" horiz-adv-x="338" 
d="M216 331q25 7 42 -7t26 -35q20 37 38.5 75t33.5 73q20 47 33.5 82.5t20.5 49.5q6 13 14.5 12.5t15.5 -9.5q6 -9 8 -23.5t-3 -30.5q-3 -9 -9.5 -23.5t-14.5 -32.5t-18 -38.5t-20 -40.5q-11 -23 -21 -43l-18 -36q-10 -18 -18 -35q-3 -5 -8 -16.5t-11 -28t-12 -36t-12 -38.5
q-5 -19 -9 -36.5t-5 -32t1 -23.5t8 -11t16 3.5t22.5 16.5t26.5 26t28 32q29 33 54 67.5t36 54.5q9 14 18 3q5 -6 5.5 -18t-4.5 -23q-5 -9 -23 -38t-42 -61q-21 -28 -43.5 -52.5t-42.5 -35.5q-38 -21 -67 -7q-23 11 -31 39q-4 13 -3.5 27t2 26.5t4 21.5t3.5 12q-2 -2 -16 -21
t-36 -44q-23 -26 -49.5 -52.5t-51.5 -42.5q-10 -6 -23.5 -2t-25.5 15q-11 10 -18.5 23.5t-7.5 27.5q1 12 8 30.5t18.5 41t26.5 46.5t32 48q16 22 32.5 42.5t32.5 36.5t30.5 27t26.5 14zM265 257q-2 14 -6.5 23t-15.5 9q-21 -2 -50.5 -33t-58.5 -73q-19 -27 -35.5 -55
t-27.5 -51.5t-15.5 -39t1.5 -17.5q6 -3 17.5 4.5t27.5 22t34.5 35.5t38.5 46q19 23 37.5 49.5t36.5 53.5z" />
    <glyph glyph-name="e" unicode="e" horiz-adv-x="263" 
d="M290 268q-5 -24 -30 -54.5t-57 -59.5q-30 -27 -60 -49.5t-50 -33.5q-1 -26 7.5 -42.5t25.5 -17.5q16 -1 36 7.5t41 23.5t43 34.5t42 41.5q34 37 60.5 72.5t37.5 56.5q5 9 11 8t10 -8q7 -13 3 -25q-10 -26 -36 -66.5t-62 -79.5q-36 -40 -78 -69.5t-82 -32.5q-49 -3 -79 35
q-22 28 -24.5 73.5t23.5 101.5q32 69 68.5 102.5t71.5 42.5q21 5 37.5 1.5t27.5 -14.5q19 -19 13 -48zM117 159q-5 -10 -8.5 -19t-5.5 -18q22 16 48 39.5t49 48.5q25 27 40.5 50.5t10.5 32.5q-5 10 -25 -3t-44 -38q-18 -20 -35.5 -44t-29.5 -49z" />
    <glyph glyph-name="f" unicode="f" horiz-adv-x="217" 
d="M99 102q29 -3 61 0t65 21q29 16 58 45t58 78q6 10 10.5 7t9.5 -9q4 -5 4.5 -15t-4.5 -18q-26 -46 -52 -74t-52 -45q-29 -18 -56.5 -24.5t-53.5 -8.5q17 -29 18.5 -80.5t-27.5 -120.5q-27 -64 -58 -95.5t-56 -31.5q-13 0 -25 4t-22 13q-9 9 -14 24t-3 38q2 27 11.5 64
t23.5 80q18 55 42 114t51 116q24 51 50.5 113.5t55.5 119.5q14 28 28.5 52.5t29.5 43.5t29.5 30t28.5 13q38 4 56 -20q11 -14 12 -33.5t-9 -42.5q-11 -26 -40.5 -66t-64.5 -85q-37 -46 -75.5 -91t-70.5 -71q-5 -11 -9.5 -22.5t-9.5 -22.5zM0 -235q6 -7 20 0t30.5 26.5t33 51
t29.5 73.5q12 39 13.5 66.5t-4 45.5t-16 26t-22.5 8h-1q-16 -39 -30 -78t-26 -74q-19 -56 -27.5 -95.5t0.5 -49.5zM241 349q22 28 41.5 54.5t33.5 49t20 38.5t2 24q-6 10 -15 8t-19.5 -13t-22.5 -29.5t-24 -41.5q-17 -32 -34.5 -67l-33.5 -67q-5 -10 -11.5 -23.5
t-14.5 -30.5q18 21 38 46.5t40 51.5z" />
    <glyph glyph-name="g" unicode="g" horiz-adv-x="330" 
d="M229 63q9 21 16.5 40.5t13.5 34.5t10 24.5t4 11.5q-2 -4 -21.5 -28t-45.5 -53q-27 -30 -57 -58t-54 -39q-14 -7 -27 -1t-22 20q-8 13 -11.5 30.5t1.5 35.5q6 29 26 68t46 76q28 40 57.5 69t51.5 33q29 5 51 -9t33 -37q8 12 13 22q5 11 15 6.5t18 -15.5q7 -9 10 -19.5
t-1 -18.5q-8 -17 -19 -43t-24 -59q-12 -31 -25.5 -64.5t-28.5 -68.5q38 29 69 61.5t56 63.5q29 36 47 63.5t25 38.5q5 7 10.5 5t9.5 -9q3 -6 4 -15t-4 -17q-7 -14 -24.5 -40.5t-44.5 -58.5q-26 -31 -59 -64t-74 -64q-13 -9 -24.5 -17t-23.5 -16v-2q-17 -33 -34.5 -64.5
t-34.5 -58.5q-22 -35 -43 -60t-38 -37q-27 -18 -56 -11t-48 27q-17 17 -21.5 40t12.5 43q19 23 47.5 42t62.5 39q29 17 59.5 33.5t60.5 34.5l11 24zM76 36q4 -2 14 5t24 19.5t31.5 30.5t35.5 38q26 29 50 59t44 56q-5 13 -13 25t-17 14q-9 1 -20 -6t-23 -19.5t-25.5 -29
t-26.5 -35.5q-18 -26 -33.5 -52.5t-26.5 -49t-15 -38t1 -17.5zM30 -244q14 2 33 19.5t39 45.5q14 19 27.5 41.5t27.5 45.5q-35 -21 -63 -36q-34 -19 -58 -33.5t-38 -31.5q-6 -8 -6.5 -17t4 -17.5t13.5 -13.5t21 -3z" />
    <glyph glyph-name="h" unicode="h" horiz-adv-x="380" 
d="M297 492q-6 -21 -17 -44.5t-26 -51.5q-17 -31 -38.5 -69t-47.5 -87q-24 -48 -42.5 -87t-28.5 -67q5 9 14.5 23.5t22.5 32.5t28 38t31 39q25 29 49.5 52t44.5 30q14 5 27.5 -1t24.5 -17q11 -12 16 -26.5t1 -28.5q-3 -12 -12.5 -36.5t-19.5 -52.5q-7 -19 -13 -37.5
t-9.5 -33.5t-3.5 -25.5t6 -13.5q7 -3 19.5 4t27.5 21t32 33t34 40q16 20 31.5 40.5t27.5 37t19.5 28t8.5 14.5q3 8 9 6.5t11 -8.5q9 -12 3 -28q-5 -11 -25.5 -44t-49.5 -70q-23 -30 -49 -57.5t-49 -42.5q-21 -15 -39 -12.5t-31 15.5t-19 34t-4 44q2 26 11 51.5t18 48.5
q12 30 21.5 51.5t4.5 28.5q-3 4 -11 -0.5t-20.5 -16t-28 -28t-32.5 -35.5q-24 -27 -49 -58t-47 -59.5t-37.5 -51t-20.5 -33.5q-2 -5 -9.5 -3t-15.5 10q-7 7 -11.5 17t-2.5 23q2 8 8.5 26.5t17.5 44.5q17 42 42.5 97t51.5 111l65 135q19 38 31.5 62.5t14.5 32.5q3 8 11.5 8
t16.5 -8q6 -7 9 -18.5t-2 -27.5z" />
    <glyph glyph-name="i" unicode="i" horiz-adv-x="188" 
d="M192 472q10 5 26 4t30 -9q14 -7 19 -19.5t-5 -18.5q-5 -3 -13.5 -4t-18.5 -0.5t-19.5 2.5t-15.5 5q-12 6 -12.5 20.5t9.5 19.5zM192 280q-3 -6 -10 -21t-16 -35.5t-18.5 -44t-16.5 -46.5q-11 -34 -15.5 -60t6.5 -32q7 -4 19.5 3t28 21.5t32.5 34t34 40.5q27 35 48 65.5
t26 41.5q4 8 10 6t11 -10q7 -13 2 -25t-23.5 -42t-43.5 -63q-14 -20 -29.5 -38.5t-31 -33.5t-30 -24.5t-27.5 -11.5q-31 -4 -52 18q-15 16 -21 40.5t-1 50.5q5 24 14 50t20 50q14 34 27.5 61.5t18.5 38.5q2 7 8 8t13 -2q10 -5 16.5 -16t0.5 -24z" />
    <glyph glyph-name="j" unicode="j" horiz-adv-x="152" 
d="M162 353q4 11 11.5 6.5t13.5 -15.5t9 -23.5t-2 -21.5q-9 -19 -24 -55.5t-33 -82.5q-13 -33 -27 -68t-28 -69q34 26 64 57.5t55 61.5q29 35 48.5 64t26.5 41q5 8 10 6t9 -9t5 -16t-4 -17q-8 -14 -25 -40.5t-44 -59.5q-24 -29 -54.5 -60.5t-68.5 -60.5l-56 -41
q-18 -38 -38 -73t-39.5 -64t-38 -51t-34.5 -32q-24 -16 -50 -12t-46 20q-21 17 -28.5 43t11.5 48q20 23 50 44t65 41q27 16 56 31.5t57 32.5l11 24q11 26 29 71.5t38 96.5q12 30 23 58.5t20.5 53t17 43.5t10.5 28zM-178 -192q-6 -8 -6.5 -18.5t4.5 -18.5t12.5 -12.5
t19.5 -2.5t27 14.5t32 32.5t33.5 47t32.5 56q-27 -16 -50 -28.5t-42 -23.5q-21 -12 -37 -23.5t-26 -22.5zM186 509q9 5 25 4t31 -9q14 -7 19 -19.5t-5 -18.5q-5 -3 -14 -4t-18.5 -0.5t-19 2.5t-15.5 5q-12 6 -12.5 20.5t9.5 19.5z" />
    <glyph glyph-name="k" unicode="k" horiz-adv-x="321" 
d="M152 194q23 25 49 45.5t52 37.5q28 17 53 27.5t44 9.5q10 0 16.5 -4.5t11.5 -9.5q7 -9 6.5 -17.5t-11.5 -6.5q-18 3 -50.5 -13.5t-67.5 -42.5q-27 -20 -52.5 -43.5t-42.5 -46.5q-16 -20 -23 -37.5t-1 -28.5t20.5 -14.5t34.5 -1t43 9.5t46 16q38 15 68.5 33.5t38.5 32.5
q3 6 9 3t8 -13q4 -14 -8 -33q-8 -12 -36 -32t-64 -37q-25 -11 -51 -18.5t-49 -6.5q-45 2 -69.5 21.5t-27.5 50.5q-8 -22 -14 -41t-11 -35q-11 -38 -9 -52q2 -9 -6 -7t-16 10q-8 7 -13 17t-4 19q2 12 12.5 43.5t24.5 70.5q12 33 25.5 68t25.5 64l79 182q15 35 26.5 61.5
t15.5 33.5q7 14 16 11.5t16 -11.5q6 -7 9 -15.5t1 -14.5q-2 -5 -8 -19.5t-16 -35.5t-22.5 -48t-26.5 -57l-43 -92l-21 -47z" />
    <glyph glyph-name="l" unicode="l" horiz-adv-x="227" 
d="M139 20q8 -3 21 4.5t29.5 22.5t35 35t36.5 42q32 38 56.5 72.5t31.5 48.5q5 8 10 8.5t9 -4.5q5 -5 6.5 -15t-2.5 -19q-3 -8 -11.5 -21.5t-19.5 -30.5t-25.5 -36t-29.5 -38q-30 -38 -60 -69t-48 -38q-14 -5 -27.5 -3.5t-25.5 8.5q-14 8 -24 21.5t-14 28.5q-6 27 -4 64
t10 78t21.5 85.5t28.5 86.5q15 40 31 77.5t30.5 67t27 49.5t20.5 26q17 14 33 16t29 -5q17 -10 24.5 -33t-1.5 -53q-9 -31 -30.5 -70t-42.5 -73q-34 -54 -69 -100.5t-56 -72.5q-6 -21 -9 -44t-5 -49q-2 -28 1 -45.5t13 -21.5zM242 398q18 29 31 55t21 46t10.5 33t-0.5 16
q-11 11 -30 -16t-45 -87q-8 -20 -17.5 -42.5t-19.5 -48.5q-8 -19 -14 -38t-12 -39q14 22 32.5 51.5t43.5 69.5z" />
    <glyph glyph-name="m" unicode="m" horiz-adv-x="560" 
d="M199 288q-8 -12 -22 -37t-29 -53q-11 -20 -21 -40l-18 -36q-10 -18 -18 -35q17 22 36 47q17 21 37.5 47t43.5 52q33 37 66.5 66t56.5 34q8 2 17.5 -3.5t17.5 -15.5q15 -20 12 -47q-3 -19 -11.5 -42.5t-18.5 -47.5t-20 -46t-14 -38q10 12 23.5 28t29 34t32.5 36.5t34 36.5
q28 29 52.5 52t39.5 31q8 5 17 1.5t16 -10.5q7 -8 9.5 -16.5t-2.5 -13.5q-5 -6 -12.5 -20t-16 -32.5t-16.5 -39.5t-15 -42q-6 -20 -11 -38t-6.5 -31.5t1 -22t9.5 -8.5t18 7.5t24.5 20.5t29 30t30.5 35q27 32 50 63.5t32 48.5q5 10 10.5 10t10.5 -6t5.5 -17t-6.5 -22
q-8 -12 -25 -39t-40 -58q-25 -33 -54 -63t-55 -41q-28 -12 -51 2t-31 40q-6 19 -3 42.5t11 46.5q6 19 13.5 36.5t14.5 31.5q8 16 16 29q-12 -12 -24 -25q-11 -12 -25 -27.5t-30 -32.5q-17 -19 -35 -38.5t-33.5 -36.5t-27.5 -31.5t-18 -22.5t-13 -6.5t-14 8.5
q-8 8 -12.5 18.5t-6.5 19.5q-1 7 6 26t17 43.5t22 51.5t21.5 50.5t14 39t0.5 18.5q-5 3 -15.5 -4.5t-25.5 -21.5t-33.5 -34t-37.5 -42q-24 -28 -48 -57.5t-43.5 -55t-32.5 -45.5t-16 -28q-5 -14 -18 -9t-24 19q-8 10 -13 20.5t-3 19.5q1 9 7 25t15 36t20.5 42.5t23.5 45.5
q20 38 39 71t29 46q6 8 14 6.5t14 -7.5t8.5 -14.5t-1.5 -14.5z" />
    <glyph glyph-name="n" unicode="n" horiz-adv-x="381" 
d="M183 271q-5 -11 -16 -32.5t-23 -47.5q-13 -26 -24 -53t-19 -49q6 9 18 25t28 36t35 43t39 44q29 31 57 54.5t48 28.5q10 2 20 -3t18 -16q10 -14 13.5 -31t-4.5 -31q-7 -12 -21 -41t-26 -61q-13 -34 -18 -62t8 -35q6 -3 17 3t24.5 18t29 28.5t30.5 35.5q30 36 55 71t33 51
q3 6 9 6t11 -5t6 -13.5t-4 -19.5q-8 -17 -28.5 -49t-46.5 -65q-23 -29 -47.5 -54t-45.5 -38q-23 -14 -41.5 -9t-31.5 21q-12 15 -17.5 36.5t-1.5 42.5q5 29 15.5 54t21.5 46q17 31 28.5 51t6.5 26q-4 5 -15.5 -1.5t-27.5 -21.5t-35.5 -35.5t-40.5 -44.5q-25 -28 -49 -57.5
t-44 -55t-34 -44.5t-17 -26q-5 -9 -22 5q-10 8 -17 20t-3 26q5 16 20 52t33 77q20 44 38 81t26 49q3 5 9 4.5t11 -5.5q7 -5 11 -13.5t1 -15.5z" />
    <glyph glyph-name="o" unicode="o" horiz-adv-x="283" 
d="M335 283q2 -19 -4.5 -40.5t-17.5 -44.5q-10 -20 -23 -40t-28 -39q20 3 42 15.5t45 35.5q14 14 27.5 32.5t27.5 41.5q8 12 14.5 10t9.5 -12q5 -16 -2 -31q-32 -56 -71 -90q-64 -57 -128 -43q-12 -13 -23.5 -24.5t-22.5 -21.5q-34 -29 -53 -34q-16 -4 -29 -1t-24 11
q-14 10 -21.5 25t-7.5 30q1 35 18 78t40 81q22 38 44 65t35 34q11 5 19 2t13 -10q21 19 45 27t43 0q29 -11 32 -57zM294 291q-3 16 -12 19t-19.5 -3t-22 -17.5t-19.5 -23.5q-13 -19 -22 -41t-12 -42q-2 -17 1.5 -31.5t16.5 -22.5q2 -2 3 -2q29 33 50 67q19 29 29 54.5
t7 42.5zM92 32q7 -4 23 5.5t36 28.5q15 14 32 32q-18 13 -27 32q-11 21 -9 46q0 6 0.5 12t1.5 11q-14 -23 -26.5 -46.5t-21.5 -45.5q-12 -29 -16 -49.5t7 -25.5z" />
    <glyph glyph-name="p" unicode="p" horiz-adv-x="308" 
d="M180 14q-20 -5 -34.5 -1t-24 12.5t-16 19.5t-9.5 21q-17 -35 -33 -71t-30 -69q-19 -45 -32.5 -81t-17.5 -53q-3 -14 -9.5 -15.5t-13.5 4.5q-6 6 -10.5 17t-3.5 24q1 10 13.5 42.5t31.5 78t42.5 99.5t47.5 107q18 40 34 77.5t29.5 68.5t22 53.5t11.5 33.5q2 8 8 8t12 -6
q5 -5 9.5 -12.5t4.5 -15.5q0 -11 -6.5 -29t-14.5 -36.5t-16 -34t-10 -19.5q3 4 20.5 23t40.5 39q16 14 32.5 25t31.5 14q13 3 23.5 -0.5t18.5 -10.5q11 -10 17 -24.5t7 -28.5q1 -20 -9 -48.5t-30 -67.5q-13 -26 -30 -50.5t-35.5 -44t-37 -33t-34.5 -16.5zM315 301
q-8 3 -29.5 -11t-49.5 -40q-31 -29 -64 -67.5t-57 -80.5q6 -24 14.5 -39.5t25.5 -11.5t39.5 22.5t52.5 62.5q21 30 36 58.5t24 51.5t11.5 38t-3.5 17z" />
    <glyph glyph-name="q" unicode="q" horiz-adv-x="320" 
d="M225 345q15 3 30 -1.5t27.5 -12t22 -17t14.5 -16.5q12 16 20 27t11 16q7 12 16 9.5t14 -12.5q4 -8 4.5 -18.5t-5.5 -18.5q-7 -10 -21 -38.5t-32 -68.5t-38.5 -86.5t-38.5 -91.5q-25 -62 -40.5 -106t-24.5 -74t-12 -47.5t-3 -25.5q0 -17 9.5 -18.5t21.5 1.5q9 2 13 -4
q2 -4 -1 -9t-11 -8q-6 -2 -15 -3.5t-18.5 -0.5t-18.5 5.5t-15 15.5q-13 21 -2.5 69.5t44.5 143.5q27 78 46.5 127t21.5 54q-2 -2 -17 -22.5t-36 -45.5q-20 -23 -41 -43.5t-38 -28.5q-12 -5 -24.5 -2t-23.5 11q-21 16 -23 42q-1 13 3.5 33t13.5 43t21 48.5t27 49.5
q14 23 29 44.5t30.5 38t30.5 27.5t29 14zM84 30q3 -2 13.5 6.5t25 24t33 36.5t38.5 45q27 33 54.5 67.5t50.5 63.5q-12 13 -27.5 23.5t-23.5 8.5q-19 -4 -44.5 -33.5t-51.5 -67.5q-18 -28 -34 -57.5t-26.5 -54.5t-13 -42t5.5 -20z" />
    <glyph glyph-name="r" unicode="r" horiz-adv-x="282" 
d="M153 294q20 32 34 58t18 37q2 5 8 4.5t13 -5.5t11.5 -11t1.5 -13q-5 -13 -10 -20t-5 -18q0 -2 6 -3.5t14 -3t17.5 -3.5t15.5 -5q7 -3 10.5 -7.5t5.5 -9.5q4 -11 -0.5 -22.5t-9.5 -22.5q-5 -8 -15.5 -31t-22.5 -51q-9 -21 -18 -43.5t-14.5 -41t-7 -31.5t3.5 -16
q6 -4 17 1.5t24.5 17.5t29 28.5t31.5 35.5t31.5 39.5t28 38t22 31t12.5 20.5q5 10 12 7t10 -13q2 -7 1.5 -15.5t-5.5 -17.5q-12 -20 -33 -52.5t-47 -65.5q-20 -26 -42.5 -48.5t-44.5 -34.5q-25 -14 -44 -10t-32 19q-11 14 -16 33t0 41q5 23 13.5 46t19.5 45q15 32 28.5 57.5
t15.5 36.5q1 7 -5.5 10t-15.5 5q-11 2 -24 1l-27 -42q-11 -18 -25 -39l-26 -39q-12 -17 -24 -10q-7 4 -8 14.5t9 26.5z" />
    <glyph glyph-name="s" unicode="s" horiz-adv-x="220" 
d="M30 25q2 8 21.5 18t48.5 24q14 6 28.5 12.5t29.5 14.5q-5 15 -12 29.5t-13.5 30.5t-10.5 34t-2 39q2 23 17 48.5t35 48.5q18 20 37 34t34 18q9 2 17.5 -1t14.5 -8q11 -10 12.5 -22t-12.5 -14t-33 -15t-37 -31t-31 -38t-14 -35q-2 -25 9 -49.5t22 -51.5q8 5 16.5 9.5
t16.5 9.5q22 14 38.5 26.5t30.5 25.5q17 15 28.5 31.5t22.5 33.5q4 6 9 6t9 -5q5 -5 6.5 -13.5t-2.5 -19.5q-10 -29 -43 -60q-17 -16 -36.5 -31t-40.5 -28q-11 -7 -22.5 -13t-22.5 -12q1 -9 0.5 -18.5t-2.5 -19.5q-5 -20 -16 -34t-26 -23q-20 -12 -44.5 -15t-46.5 1
q-19 5 -30 24q-5 9 -7 19.5t1 19.5zM162 53q-16 -8 -30.5 -14t-27.5 -12q-17 -8 -28 -14.5t-15 -13.5l-2 -3q8 -3 29 0t40 14q13 7 22 17.5t12 25.5z" />
    <glyph glyph-name="t" unicode="t" horiz-adv-x="223" 
d="M75 337q12 1 36.5 2t54.5 2q14 30 27.5 56.5t24.5 48t18.5 36.5l10.5 21q6 11 14.5 12t15.5 -6q6 -7 8 -19t-3 -26q-7 -17 -22.5 -50t-34.5 -71q32 0 59 -1t41 -6q10 -3 18.5 -9t10.5 -11q3 -8 -16 -8q-25 1 -61 -0.5t-72 -3.5q-12 -25 -23.5 -49t-21.5 -46t-18.5 -44
t-15.5 -43q-15 -46 -18.5 -78.5t9.5 -36.5q8 -2 22 5.5t31 21.5t36 34t38 42q32 38 60.5 75.5t42.5 62.5q3 5 8 4t10 -7t6 -16t-6 -23q-12 -21 -34 -54t-50 -67q-33 -41 -69 -73t-67 -40q-17 -5 -35.5 1.5t-31.5 23.5q-9 12 -13.5 29t-2.5 40q2 14 7 33t13 42q12 35 29 76
t36 82l-46 -4q-11 -2 -20.5 4t-14.5 14t-3.5 15.5t12.5 8.5z" />
    <glyph glyph-name="u" unicode="u" horiz-adv-x="388" 
d="M163 320q5 9 14 7t16 -10t9.5 -18t-3.5 -18q-11 -13 -32 -49.5t-41 -77.5q-11 -23 -19.5 -45t-12.5 -39t-2.5 -28.5t10.5 -12.5q6 -1 16.5 6.5t23.5 21t28 32t31 38.5q19 24 37.5 49t34 46.5t26.5 37.5t16 23q6 9 16.5 7t19.5 -9q10 -8 15.5 -18t0.5 -18q-10 -14 -21 -45
t-19 -63q-4 -18 -6.5 -34.5t-2.5 -29.5t3 -21.5t9 -10.5q7 -2 20.5 8t29.5 26.5t34 38t35 43.5q25 32 43.5 58t21.5 32q7 11 16 0q5 -5 8 -14.5t-2 -17.5q-4 -8 -20.5 -34.5t-40.5 -59.5q-13 -18 -27.5 -36t-29.5 -33.5t-30 -27t-28 -16.5q-26 -11 -49.5 0t-33.5 40
q-5 14 -5 32t3 35q2 13 5 24t5 20q3 10 6 19q-8 -14 -27 -41.5t-42 -56.5t-47 -53.5t-44 -35.5q-17 -9 -33 -2.5t-27 22.5q-11 14 -15.5 33t-2.5 37q3 23 11.5 48t19.5 50q20 44 43 82t36 59z" />
    <glyph glyph-name="v" unicode="v" horiz-adv-x="314" 
d="M338 339q5 5 12 4t13 -6q8 -5 14 -15.5t1 -24.5q-3 -8 -8.5 -19t-13.5 -25q-9 -17 -21 -35.5t-25 -37.5q-8 -28 -9 -47.5t13 -18.5q15 1 36 21.5t41 45.5q17 20 29 38t16 25q6 10 12.5 9t10.5 -7q7 -11 3 -22q-4 -10 -14.5 -28t-25.5 -39q-18 -25 -40.5 -48t-46.5 -32
t-41 2t-25 33l-3 10l-46 -53q-29 -33 -51.5 -53.5t-39.5 -27.5q-25 -9 -43 15q-10 13 -14.5 33.5t-0.5 46.5q3 21 10 46.5t17 51.5q16 42 33 79t26 52q5 8 11 7.5t13 -5.5q8 -6 13 -15t0 -15q-4 -5 -16.5 -34t-26.5 -66q-10 -26 -19.5 -53t-15.5 -48.5t-7 -36t5 -15.5
t29.5 21.5t53.5 58.5q14 16 27.5 33.5t27.5 36.5l26 35q12 41 30 74q9 19 17 31.5t13 17.5z" />
    <glyph glyph-name="w" unicode="w" horiz-adv-x="484" 
d="M276 191q-6 -6 -16.5 -18.5t-22.5 -27l-24 -29t-21 -25.5q-38 -45 -61.5 -71t-33.5 -29q-16 -5 -34 16q-8 10 -12.5 23t-2.5 25q1 8 7 26.5t15 41.5t19.5 48t20.5 46t20 40.5t19 35t16 27t12 15.5q6 6 16 5.5t18 -6.5q5 -4 6 -10t-5 -14q-7 -9 -25.5 -43t-38.5 -74
q-12 -23 -23.5 -48.5t-20.5 -47.5t-13.5 -36.5t-0.5 -15.5q3 -1 16 12.5t30.5 34.5t38 46t39.5 47q16 19 31.5 38t27.5 35t20.5 28t10.5 17q3 8 12.5 10.5t23.5 -5.5q10 -6 18 -15t-2 -21q-4 -5 -10 -17.5t-13 -30t-14.5 -38.5t-14.5 -42t-12.5 -41t-8.5 -36t-3 -25.5
t4 -10.5t12 4.5t18 14.5t21.5 22t23.5 27q15 18 30 37t26 35q13 18 26 35l8 22q4 10 9.5 22t11.5 25q11 23 21 41.5t16 21.5q13 7 28 -5q8 -6 13 -15.5t0 -20.5q-4 -8 -12.5 -23t-18.5 -32q-7 -11 -13.5 -22t-11.5 -19q-6 -10 -12 -18q-5 -20 -7 -36q-2 -14 -0.5 -25
t10.5 -10q12 1 31 17.5t39 40.5q15 17 29 36.5t25 37.5q6 11 14 9t13 -10q3 -5 4 -11.5t-2 -11.5q-8 -14 -22 -37t-34 -47q-21 -26 -44.5 -46t-45.5 -23t-32.5 5.5t-15.5 19.5q-5 13 -6 31q-5 -7 -12 -16q-6 -8 -14 -17t-17 -20q-12 -14 -26 -28.5t-27.5 -26.5t-25.5 -19.5
t-20 -7.5q-29 0 -42 23t-13 47q0 12 4 31t10 39t12.5 37.5t10.5 25.5z" />
    <glyph glyph-name="x" unicode="x" horiz-adv-x="381" 
d="M383 340q8 4 18.5 1.5t18.5 -8.5q7 -5 8 -11.5t-8 -11.5q-14 -8 -40 -30t-66 -62q-17 -17 -36 -37.5t-42 -43.5l-38 -42q6 -22 18.5 -37t33.5 -19q31 -6 62.5 8t60.5 39q23 19 43.5 42.5t37.5 45.5t30 40.5t20 28.5q8 11 14 10.5t9 -7.5q4 -8 3 -19.5t-8 -23.5
q-18 -29 -40.5 -59t-48.5 -56q-29 -29 -61 -51.5t-66 -31.5q-21 -5 -50.5 -3t-55.5 28q-8 8 -15 17t-12 20l-50 -58q-19 -23 -33.5 -41t-19.5 -26q-6 -9 -13 -7.5t-12 9.5t-5.5 18.5t7.5 20.5l44 56q14 17 30 37t34 40q-5 26 -2 50l6 67q-8 -14 -16.5 -27.5t-16.5 -24.5
q-6 -9 -14 -11t-14 2t-7 13.5t7 21.5l22 34l22 34q9 14 16.5 27.5t13.5 24.5q2 3 4.5 9.5t6.5 8.5q10 7 24 0q7 -3 10.5 -9t0.5 -14q-5 -13 -10 -35t-10 -49q-8 -43 -8 -84l19 18l86 88q31 31 55.5 53.5t32.5 26.5z" />
    <glyph glyph-name="y" unicode="y" horiz-adv-x="372" 
d="M150 0q-24 -12 -44 -6.5t-31 25.5q-20 32 -9 82q5 24 14.5 49.5t20.5 50.5q11 24 22 46.5t21 41t17 31t10 17.5q4 6 12.5 2t16.5 -12t11.5 -17t-1.5 -15q-2 -3 -8 -13t-14.5 -25.5t-19 -35.5t-20.5 -41q-12 -24 -22 -48.5t-17 -45.5t-8.5 -36t4.5 -20t22 6.5t38 33t48 51
t52 60.5q18 22 35 43t31 39t25.5 32.5t17.5 23.5q5 6 13.5 3t16.5 -11t12 -17.5t-1 -17.5q-11 -19 -26.5 -51t-33.5 -73l-57 -131q32 26 58.5 52t49.5 52q37 42 59.5 75t30.5 47q4 7 9.5 6t9.5 -7t5 -15.5t-4 -18.5q-9 -17 -30 -51.5t-68 -84.5q-40 -43 -106 -97
q-13 -11 -25.5 -20t-23.5 -18q-15 -33 -31.5 -62.5t-33.5 -53.5q-43 -62 -81 -84q-24 -13 -46 -11.5t-39 12.5q-20 14 -25.5 37.5t14.5 46.5q14 15 34 30.5t46 32.5q29 20 62.5 40t66.5 43q3 8 6 15t7 15q11 27 22 55t20 51t15 39t7 18q-2 -4 -20 -27t-43 -52
q-23 -27 -48.5 -51.5t-45.5 -34.5zM57 -198q-13 -14 -8 -24.5t25 -6.5q17 3 32.5 15t32.5 31q13 15 26 33.5t25 41.5q-51 -33 -84 -52.5t-49 -37.5z" />
    <glyph glyph-name="z" unicode="z" horiz-adv-x="279" 
d="M234 64q-5 11 -18.5 12.5t-30.5 -2.5t-33.5 -10t-24.5 -9q-7 -3 -13.5 3t-10.5 16t-3 20t12 17q15 10 38.5 31.5t48.5 47.5q19 21 36.5 42.5t29 41t15 35.5t-3.5 25q-6 7 -14.5 5t-19.5 -10.5t-22.5 -21t-23.5 -26.5q-16 -20 -29.5 -39t-22.5 -32q-5 -8 -12 -7.5t-12 5.5
q-11 11 -4 24q11 20 26.5 44.5t33.5 46.5q18 23 37.5 38t37.5 15q13 0 25 -8t21 -21q11 -17 15.5 -37.5t-3.5 -38.5q-12 -26 -29.5 -51t-36.5 -45q-13 -14 -25 -26t-21 -20q-11 -10 -20 -18q13 8 29 10.5t31 -2.5q13 -4 23.5 -12.5t15.5 -22.5q20 21 36 40t30 38
q17 22 30.5 43t26.5 41q5 8 11 6.5t11 -8.5q4 -6 5.5 -14t-3.5 -15q-11 -18 -25.5 -39.5t-32.5 -45.5q-19 -26 -42 -53t-49 -53q-5 -14 -11 -29t-14 -32q-10 -19 -21.5 -38t-25.5 -36q-14 -18 -34.5 -39t-42.5 -38q-21 -17 -41 -28t-34 -11q-12 0 -21 6t-16 15
q-9 13 -10.5 28t6.5 27q7 10 14.5 18t18 16.5t24.5 19.5t35 27q16 12 35 27.5t44 36.5q30 25 56 50v11t-2 9zM53 -189q24 10 52.5 35.5t65.5 67.5q10 12 18.5 24t15.5 24q-54 -47 -92 -77q-26 -21 -43.5 -35t-22.5 -21q-11 -13 -5.5 -16.5t11.5 -1.5z" />
    <glyph glyph-name="braceleft" unicode="{" horiz-adv-x="369" 
d="M521 630q8 -8 3 -16q-3 -5 -10.5 -6.5t-18.5 3.5q-9 4 -17.5 8.5t-16.5 6.5t-16.5 0.5t-18.5 -8.5q-7 -5 -15 -19.5t-17.5 -35t-19 -45.5t-19.5 -51q-11 -28 -20.5 -55.5t-18.5 -50.5t-16 -40t-11 -23q-13 -19 -24.5 -30t-20.5 -17t-15 -8t-7 -2q1 -1 9.5 -7.5
t16.5 -21.5q6 -11 10.5 -25t5.5 -33q0 -12 -4 -29.5t-11.5 -38.5t-16.5 -45t-19 -48q-11 -26 -21 -51t-17.5 -46t-12 -37t-3.5 -25q1 -14 11 -19.5t23 -6t26 2t21 5.5q8 2 12.5 -2t6.5 -11q1 -6 -1.5 -12.5t-10.5 -8.5q-16 -5 -34.5 -8t-42.5 8q-21 9 -33 27q-28 42 -5 115
q11 32 22.5 64t22.5 61q16 41 28 73t14 50q1 9 -1.5 18.5t-8.5 17.5t-16 13.5t-25 5.5q-8 0 -12 6.5t-4 14.5t4 14.5t12 5.5q11 -1 23.5 -1.5t29.5 10.5q9 6 18 22t18 39t19 51t20 58q11 32 22 63.5t23 58t24 46t25 28.5q19 13 37.5 15.5t35.5 -0.5q20 -4 35.5 -12.5
t22.5 -15.5z" />
    <glyph glyph-name="bar" unicode="|" horiz-adv-x="333" 
d="M397 666q5 11 14 9t14 -13q5 -10 5 -24.5t-8 -32.5l-37 -81q-21 -48 -50.5 -114t-67.5 -160q-51 -125 -88.5 -218.5t-63.5 -160.5q-29 -75 -42.5 -116.5t-15.5 -54.5q-1 -11 -8 -14t-15 1q-9 5 -16 17t-2 29q3 15 22.5 66.5t48.5 125.5q16 40 34.5 85.5t37.5 92.5
t38.5 94.5t37.5 93.5q35 85 62 148.5t47 109.5q21 48 34.5 77t18.5 40z" />
    <glyph glyph-name="braceright" unicode="}" horiz-adv-x="240" 
d="M287 675q7 -1 23.5 -5t34.5 -12t34.5 -19t23.5 -26q14 -29 13.5 -59t-11.5 -65q-5 -17 -19 -51t-28 -74q-8 -22 -15.5 -44t-13.5 -41t-9 -34.5t-2 -24.5q2 -23 13 -30t25 -10q9 -1 13.5 -9t4.5 -17q0 -8 -3.5 -14t-9.5 -5q-8 1 -16 1.5t-16.5 -1.5t-17 -8.5t-16.5 -19.5
t-20 -50.5t-28 -85.5q-17 -50 -37.5 -100.5t-45.5 -83.5q-18 -24 -38.5 -35.5t-40 -14.5t-37 1.5t-30.5 12.5q-20 13 -18 30q1 11 9.5 17t17.5 -3q19 -19 34 -28t31 -2q22 10 42.5 53.5t44.5 110.5q29 79 44 129t34 73q9 12 19.5 18.5t19.5 10.5t15.5 5t7.5 1q-2 1 -10 5.5
t-17 14t-16 24t-5 34.5q2 25 18.5 73t34.5 102q9 27 17.5 53t14.5 48.5t9 40t0 27.5q-5 17 -14.5 25.5t-20 13t-21.5 6.5t-18 6q-8 5 -12.5 12.5t-4.5 13.5q0 11 13 10z" />
    <glyph glyph-name="asciitilde" unicode="~" horiz-adv-x="399" 
d="M124 223q4 7 12.5 17t18 19.5t20 17t18.5 10.5q37 12 56 -3q11 -8 22 -21.5t23 -27.5q11 -13 22.5 -22.5t25.5 -11.5q12 -1 21.5 5.5t16.5 15.5t11 17.5t5 11.5q2 6 7 15.5t12 8.5q8 -2 14.5 -14t6.5 -23q0 -6 -4 -16t-10 -20.5t-13.5 -20t-15.5 -14.5q-17 -11 -42 -8.5
t-41 12.5q-10 6 -17.5 12.5t-14.5 13.5q-16 16 -26 29t-21 15q-11 1 -21.5 -5t-20.5 -15t-18 -19t-12 -17t-10.5 -5.5t-13.5 8.5t-11.5 17t0.5 18z" />
    <glyph glyph-name="uni00A0" unicode="&#xa0;" horiz-adv-x="322" 
 />
    <glyph glyph-name="exclamdown" unicode="&#xa1;" horiz-adv-x="313" 
d="M27 -232q1 5 7.5 20.5t16.5 38t22.5 50t26.5 56.5q15 31 29.5 61.5t27.5 55.5t22 42.5t13 22.5q6 8 13.5 8t12.5 -5t5.5 -13.5t-4.5 -18.5q-3 -7 -11.5 -25t-20 -43t-25 -54.5t-26.5 -59.5q-12 -27 -23 -53t-19.5 -47t-14 -35.5t-5.5 -19.5q-2 -15 -11 -17t-18 4
q-8 5 -14 14t-4 18zM252 326q5 8 17 6t22 -15q11 -17 5 -40.5t-26 -31.5q-8 -3 -16 0t-14 9t-8 12.5t3 11.5q11 11 16 24t1 24z" />
    <glyph glyph-name="cent" unicode="&#xa2;" horiz-adv-x="312" 
d="M390 555q0 -7 -7.5 -26t-18.5 -45l-20 -44q11 -1 20 -5t16 -9q8 -7 12.5 -15.5t6.5 -13.5q3 -13 -2 -25q-5 -11 -11.5 -15t-6.5 4q-2 6 -6.5 13t-11 12t-16.5 7t-22 -1q-16 -34 -29.5 -65t-21.5 -51l-24 -60q32 5 58.5 11t34.5 10q18 8 25.5 3t5.5 -14q-4 -19 -27 -32
q-17 -9 -48.5 -14.5t-64.5 -7.5q-17 -44 -28.5 -77.5t-11.5 -42.5q-1 -8 -7 -7t-14 6q-7 5 -12 11.5t-6 14.5q-2 9 6 35t22 60l-21 3q-36 8 -55 33q-21 27 -8 63q7 19 30.5 44.5t55.5 50.5q26 20 54.5 37.5t54.5 27.5q11 23 20.5 45t17.5 40q17 41 19 54q3 16 19 11
q8 -2 15 -9t7 -17zM134 226q6 -9 23 -12.5t40 -2.5l39 95l25 57q-18 -11 -37 -25t-36 -29q-29 -26 -45.5 -49t-8.5 -34z" />
    <glyph glyph-name="sterling" unicode="&#xa3;" horiz-adv-x="400" 
d="M112 283q13 2 39.5 3.5t57.5 0.5q7 16 13 31.5t14 32.5q17 40 36 73t39 59q25 32 53.5 50t62.5 20q17 1 34 -7.5t31 -22.5q15 -17 24 -38.5t5 -44.5q-2 -9 -7 -21t-11 -24t-12.5 -23.5t-11.5 -18.5q-6 -11 -16 -8t-17 11q-5 7 -7.5 15t1.5 13q27 40 36.5 75t-4.5 48
q-22 20 -53.5 5t-68.5 -65q-21 -29 -43 -69t-44 -92l54 -3q15 -2 26 -3.5t16 -3.5q8 -4 16.5 -10.5t11.5 -13.5q7 -14 -15 -13q-10 1 -25 2t-32 2q-16 1 -33.5 1.5t-34.5 0.5q-2 -2 -2 -4q-17 -44 -36.5 -91.5t-34.5 -82.5q11 1 22 1.5t25 0.5q48 0 83 -4t59 -12
q22 -7 35.5 -16t21.5 -19q5 -5 4.5 -12t-3.5 -12q-3 -6 -8 -9.5t-9 1.5q-10 11 -36 21.5t-63 16.5q-34 5 -72.5 5t-76.5 -8q-12 -16 -28 -27t-32.5 -17.5t-30.5 -8.5t-21 1q-5 1 -10 7t-5 14.5t7 19t25 22.5q6 4 19.5 11t37.5 14q11 27 29.5 75.5t44.5 113.5q-18 -1 -31 -2
t-17 -3q-9 -5 -19 -1t-16 12q-8 9 -8 19t11 12z" />
    <glyph glyph-name="currency" unicode="&#xa4;" horiz-adv-x="469" 
d="M145 135q-18 49 -1 104q8 27 21 50.5t30 43.5q-8 10 -20 22.5t-25 25.5q-14 14 -26 25.5t-20 18.5q-9 8 -3.5 17.5t16.5 17.5t24 10.5t15 -5.5t13.5 -20.5t25.5 -26.5l42 -41q28 23 56 37.5t54 21.5q36 10 66 3t49 -27q5 -7 9.5 -13t6.5 -11q14 14 27.5 26.5t29.5 26.5
l26 22q4 3 11 0t13 -10q8 -8 10 -20t-10 -22l-18 -14l-66 -51q-3 -2 -9 -4q9 -14 12.5 -39.5t-6.5 -63.5q-8 -26 -25.5 -51t-40.5 -48l22.5 -18t25.5 -21q10 -8 18.5 -17t14.5 -18q3 -5 1.5 -11t-5.5 -13q-7 -11 -18.5 -18.5t-17.5 0.5t-16.5 19t-21.5 22l-43 43
q-34 -23 -71.5 -36.5t-69.5 -11.5q-27 2 -47 11.5t-34 24.5q-8 -6 -19 -14.5t-22 -19.5q-11 -10 -21 -20.5t-18 -19.5q-11 -12 -21.5 -6t-15.5 19q-4 10 -3.5 20t8.5 15l41 31zM462 260q9 24 4.5 43.5t-14.5 30.5q-8 0 -12.5 4t-1.5 13q5 14 -1.5 27t-40.5 17
q-26 2 -56.5 -11t-60 -35.5t-55 -53t-40.5 -63.5q-24 -51 -4.5 -86.5t69.5 -39.5q28 -2 61 10.5t63.5 33.5t54.5 49.5t34 60.5z" />
    <glyph glyph-name="yen" unicode="&#xa5;" horiz-adv-x="352" 
d="M463 499q-24 -19 -60.5 -74t-93.5 -151q-5 -9 -10.5 -18t-10.5 -20q26 1 48.5 1t31.5 2q10 1 19 -11q4 -6 4.5 -12t-7.5 -8q-3 -2 -16.5 -4t-30.5 -3.5t-36 -3t-33 -2.5q-6 -13 -11.5 -25.5t-10.5 -26.5q13 1 27.5 1.5t28 0.5t25 -0.5t18.5 -2.5q11 -3 18 -15
q4 -6 3 -11.5t-11 -4.5h-21.5t-32 -1t-36 -2t-33.5 -2q-6 -17 -10.5 -33.5t-8.5 -30.5q-5 -20 -6.5 -33.5t1.5 -19.5q8 -18 0 -21.5t-23 1.5q-16 7 -21 28q-5 22 1 62q1 5 4.5 16t8.5 28q-14 -2 -27 -2t-24 2q-9 1 -15.5 6.5t-8.5 12.5q-2 6 0 11t10 5q10 0 32.5 0.5
t46.5 2.5l21 52q-20 -1 -41 -1t-29 1q-10 1 -17.5 6.5t-10.5 12.5q-3 6 -2 11.5t7 5.5q14 2 41.5 4t69.5 3q-9 16 -17.5 40t-13.5 56q-4 23 -4.5 47t0.5 48q2 38 5 69t1 43q-2 11 3.5 15.5t13.5 3.5q11 -1 22 -8.5t12 -16.5t0 -18t-3 -20t-3.5 -27t-2.5 -38
q-1 -12 -0.5 -26.5t0.5 -31.5q2 -52 11 -91q17 33 38 67.5t42 66.5q29 45 54 77.5t36 40.5q10 6 18.5 5t14.5 -6q8 -7 10.5 -17t-5.5 -16z" />
    <glyph glyph-name="brokenbar" unicode="&#xa6;" horiz-adv-x="343" 
d="M204 91q-4 -9 -14 -33.5t-23 -57.5t-28.5 -71.5t-29.5 -75.5q-22 -56 -37.5 -99.5t-17.5 -53.5q-1 -11 -7 -14t-14 1q-8 5 -14.5 17t-1.5 29q1 6 6 21t13 37t18 48.5t21 55.5q15 39 31.5 79.5t30.5 74.5t24 58t14 30q5 7 11.5 3t11.5 -13q5 -8 7 -18t-1 -18zM270 250
q-4 -14 -11.5 -12.5t-14.5 11.5q-6 8 -9.5 20t1.5 22q19 42 36 80.5t32 73.5q38 87 62 146t32 75q5 10 13 9t14 -10t7.5 -25t-7.5 -35q-5 -11 -14 -29.5t-19.5 -41.5t-22.5 -49.5t-24 -53.5q-13 -30 -25.5 -58.5t-23 -53t-17.5 -42.5t-9 -27z" />
    <glyph glyph-name="section" unicode="&#xa7;" horiz-adv-x="468" 
d="M507 664q3 -14 -2.5 -19t-13.5 -3q-9 2 -18 8t-11 14q-2 7 3.5 18.5t12 25.5t12.5 29.5t6 30.5q-14 4 -41 -3.5t-55 -21.5q-33 -17 -58.5 -40.5t-27.5 -49.5q-2 -22 6.5 -39.5t22.5 -34.5t31 -35t32 -41q17 -26 35.5 -52t24.5 -60q4 -20 1.5 -42t-13.5 -50
q-13 -34 -36.5 -60.5t-55.5 -45.5q-36 -22 -78 -32t-84 -6h-8q28 -32 63 -57t60 -48q18 -17 30.5 -35.5t16 -39.5t-3.5 -44.5t-28 -50.5q-24 -30 -64 -46.5t-83 -24.5q-45 -8 -86 -6.5t-62 7.5q-9 2 -16.5 7t-13.5 10q-8 7 -12 14.5t-4 13t5 8t16 -1.5q20 -8 60 -9.5t85 3.5
q26 3 51.5 9t46.5 15t36 21.5t21 29.5q9 26 -1 47.5t-31 42t-49 41t-55 43.5q-55 48 -67 102.5t23 121.5q18 35 46 63.5t59.5 50t63 35t55.5 18.5q-19 23 -37.5 43t-31.5 35q-30 35 -28 74t34 73q40 42 89 63t89 32q30 7 46.5 -5t23.5 -34q3 -10 -2.5 -26t-12.5 -32.5
t-13 -31t-4 -22.5zM405 299q22 40 11.5 80.5t-35.5 78.5q-15 -4 -33.5 -11.5t-39 -18.5t-41 -25t-39.5 -30q-29 -25 -49.5 -55t-23.5 -63q-2 -14 0 -26.5t6 -23.5q21 -4 57.5 -2t74.5 13q34 11 64 30.5t48 52.5z" />
    <glyph glyph-name="dieresis" unicode="&#xa8;" horiz-adv-x="347" 
d="M202 551q-7 -2 -12 4t-8 15t-4 19.5t0 18.5q2 16 13 28.5t25 14.5q15 4 27.5 -10t14.5 -28q0 -7 -6 -16.5t-14.5 -18.5t-18 -16.5t-17.5 -10.5zM328 617q14 0 27.5 -12.5t11.5 -30.5q-1 -5 -6.5 -14t-14 -18t-17 -16.5t-15.5 -9.5q-14 -3 -22.5 13t-6.5 31q0 7 4.5 17
t11 19t14 15t13.5 6z" />
    <glyph glyph-name="copyright" unicode="&#xa9;" horiz-adv-x="711" 
d="M670 590q12 -14 17 -28.5t6 -27t-0.5 -23t-2.5 -16.5q11 -9 23.5 -27t21.5 -46.5t10.5 -66.5t-10.5 -86q-17 -67 -59.5 -127t-99.5 -106q-61 -49 -128.5 -76t-127.5 -22q-65 5 -108.5 36t-67.5 78t-28 103t12 112q22 76 60.5 137t85.5 107q50 49 102 80t98 44
q62 18 113 5.5t83 -50.5zM692 311q14 57 4.5 95.5t-28.5 59.5q-11 0 -17 8q-9 12 -2 37q4 14 4.5 29t-7.5 28t-26.5 22.5t-50.5 13.5q-30 3 -62 -4.5t-64.5 -23.5t-64 -40t-60.5 -52q-51 -50 -89 -109.5t-53 -117.5q-31 -117 1 -188q16 -35 46.5 -56t78.5 -25
q56 -4 120.5 21t122.5 74q51 42 89.5 100t57.5 128zM534 352q-6 -8 -11.5 -7.5t-10.5 5.5t-6.5 12t0.5 12q2 4 5 14t5 20t2.5 18t-2.5 10q-16 6 -49 -21t-78 -91q-27 -38 -40.5 -67.5t-18 -50.5t-1.5 -34t9 -18q10 -7 32.5 -3t47.5 13.5t47.5 22t33.5 24.5q5 6 9 1.5
t5 -12.5t-1 -15.5t-7 -12.5q-12 -9 -26 -19t-28 -19t-28 -15.5t-25 -8.5q-20 -4 -39.5 0t-35.5 13q-19 11 -30.5 28t-12.5 38q-1 18 4 37t12.5 38t17 35.5t18.5 30.5q42 64 79.5 97t59.5 40q11 3 23 0t23 -9q15 -8 26 -19.5t13 -19.5q1 -7 -1 -16t-5.5 -18.5t-7.5 -18
t-8 -14.5z" />
    <glyph glyph-name="ordfeminine" unicode="&#xaa;" horiz-adv-x="277" 
d="M308 272q-4 -1 -11.5 4t-15.5 13q-6 8 -10.5 17.5t-3.5 20.5q1 15 10 38t17 41q-2 -2 -17.5 -24.5t-36.5 -47.5q-14 -17 -28.5 -31.5t-26.5 -20.5q-11 -6 -22 -4.5t-21 8.5q-11 8 -18 19t-9 25q-1 20 15 55.5t39 71.5q12 19 26 37t27.5 32t26 23.5t23.5 12.5
q21 5 36.5 -8t24.5 -31v1q5 11 14.5 7t17.5 -15t12.5 -25.5t-2.5 -22.5q-6 -7 -18.5 -29t-24.5 -48q-13 -28 -21.5 -52t-3.5 -29q2 -2 10 2.5t19 9.5t19 9t10 2q2 -3 -3.5 -11.5t-13.5 -17.5q-11 -12 -22.5 -21.5t-17.5 -10.5zM156 313q3 -2 10 3t17 15.5t22.5 24.5t26.5 31
q24 29 47.5 60.5t37.5 52.5q-5 9 -10 16.5t-13 9.5q-5 1 -13.5 -5t-19.5 -18t-23.5 -28t-24.5 -34q-14 -21 -27 -42t-21.5 -39t-11.5 -31t3 -16z" />
    <glyph glyph-name="guillemotleft" unicode="&#xab;" horiz-adv-x="410" 
d="M349 395q-3 -6 -20 -24.5t-37 -38.5t-36.5 -37.5t-18.5 -22.5q-3 -8 1.5 -24t12.5 -33q6 -14 11.5 -24.5t9.5 -15.5t1 -8.5t-9 -5.5q-16 -7 -30 1q-7 4 -14.5 17t-15.5 30q-6 14 -10.5 27.5t-6.5 21.5q-2 11 0.5 24t12.5 24l20.5 20.5t34.5 33.5q23 23 44 43.5t24 25.5
q4 4 9 0.5t10 -9.5t7 -13t0 -12zM432 349q-6 -9 -15.5 -19t-20.5 -20q-17 -16 -31 -29t-16 -18q-1 -5 2.5 -15t8.5 -23q7 -17 13.5 -32.5t7.5 -19.5q2 -5 -4 -9t-14 -5q-7 -1 -13.5 1.5t-11.5 10.5l-21 36q-8 15 -15.5 30t-7.5 22q0 9 4 21.5t16 22.5l54 47q15 14 27 25
t16 16q5 7 10.5 2t9.5 -14q3 -8 4 -16.5t-3 -13.5z" />
    <glyph glyph-name="logicalnot" unicode="&#xac;" horiz-adv-x="387" 
d="M154 352q4 -4 12 -8.5t22 -5.5q6 -2 21.5 -3.5t54.5 0.5q23 0 46 2t43.5 4t36 5t23.5 6q11 4 18 1t12 -9q5 -7 6 -15.5t-4 -11.5q-6 -6 -27.5 -28.5t-49.5 -64.5q-6 -10 -13.5 -23.5t-13.5 -26.5t-9.5 -24t-1.5 -17q1 -6 -6 -6.5t-15 4.5q-8 4 -14 11t-7 15q-2 13 6 33.5
t20 42.5t24 41t18 27q-12 -5 -33 -8t-45 -4.5t-47 -1t-37 2.5q-16 2 -28 5t-20 7q-24 11 -24 31q0 16 13 21.5t19 -2.5z" />
    <glyph glyph-name="uni00AD" unicode="&#xad;" horiz-adv-x="422" 
d="M149 186q5 1 18.5 1.5t32.5 0.5t42 -0.5t47 -1.5q23 -1 45.5 -2t40.5 -1.5t30.5 -1.5t15.5 -1q7 -1 12 -5.5t7 -9.5q4 -9 0.5 -18t-14.5 -9h-131q-45 0 -81.5 0.5t-41.5 0.5q-10 0 -16.5 6t-10.5 14q-4 9 -3 17t7 10z" />
    <glyph glyph-name="registered" unicode="&#xae;" horiz-adv-x="586" 
d="M566 720q16 -17 18.5 -31t-1.5 -25q13 -9 22.5 -37t-3.5 -80q-8 -29 -29.5 -58t-50.5 -53q-38 -32 -83 -51t-84 -17q-38 4 -63 21.5t-37.5 42.5t-14 55.5t7.5 59.5q13 42 36.5 75.5t52 58t58.5 40.5t56 23q36 10 66 3t49 -27zM568 567q9 25 4.5 44.5t-14.5 30.5
q-8 0 -12.5 4t-1.5 13q2 7 2 14.5t-4 13.5t-14 10.5t-27 6.5q-26 2 -57 -11t-61 -36t-55.5 -53.5t-41.5 -64.5q-12 -26 -12.5 -48t8.5 -39.5t27 -28t43 -12.5q28 -2 61.5 10.5t64.5 34t55.5 50.5t34.5 61zM376 642q8 0 23 1t32 0.5t34 -4t29 -12.5q14 -9 20 -18.5t7 -18
t-3 -16t-11 -11.5q-10 -7 -21.5 -10t-22.5 -5q-12 -2 -25 -2q10 -16 21 -27q9 -11 19.5 -19t19.5 -9q8 -1 6 -5.5t-8 -9.5q-12 -9 -22 -7q-11 2 -19.5 8t-20.5 18q-11 10 -20 24.5t-14 27.5q-17 -24 -31.5 -46t-14.5 -29q-2 -7 -8 -6.5t-12 5.5t-10 11t-2 11q2 8 10 22
t19 31t22.5 33t18.5 27q-6 -1 -11.5 3.5t-9.5 11.5t-3.5 13t8.5 8zM434 603q-2 -5 -6 -12t-9 -15q8 -1 19 -0.5t21 2.5t16.5 5.5t6.5 8.5q-1 7 -15.5 11t-31.5 6q0 -4 -1 -6z" />
    <glyph glyph-name="macron" unicode="&#xaf;" horiz-adv-x="365" 
d="M206 589q10 2 31.5 -4t72.5 -17q47 -10 67.5 -15t32.5 -14q12 -8 14 -21q2 -16 -11 -17q-11 2 -39.5 9t-63.5 13q-68 12 -91 21q-13 6 -20 22q-4 8 -2.5 15t9.5 8z" />
    <glyph glyph-name="degree" unicode="&#xb0;" horiz-adv-x="143" 
d="M150 503q13 19 26 29.5t25 16t22 6t15 -0.5q14 0 24.5 -10t15.5 -26t4.5 -35t-8.5 -37q-20 -29 -51.5 -41t-54.5 -4q-12 5 -18.5 17.5t-8.5 28t0.5 31t8.5 25.5zM179 450q3 -5 11.5 -6t18 1t19 7.5t14.5 12.5q8 11 6 24.5t-13 17.5l-1 -1q-1 0 -3 2h-5q-3 0 -4 3
q-5 0 -17 -6q-7 -4 -14 -11.5t-11 -15.5t-5 -16t4 -12z" />
    <glyph glyph-name="plusminus" unicode="&#xb1;" horiz-adv-x="344" 
d="M131 286q18 -3 40 -4.5t66 -1.5l23 49q15 29 27 47t18 23q5 5 11.5 3.5t11.5 -6.5q8 -6 11.5 -13.5t-1.5 -11.5q-6 -4 -15 -17.5t-20 -34.5l-19 -39h54q56 -2 70 -10q5 -2 7 -7t0 -10t-6 -9.5t-12 -3.5q-8 0 -26.5 -1t-40.5 -3q-19 -2 -37 -2.5t-30 -0.5l-23 -51
q-11 -27 -18.5 -49.5t-8.5 -39.5q1 -5 -6.5 -1.5t-15.5 11.5q-7 7 -12.5 15t-3.5 15q2 9 9 25.5t18 42.5l14 32q-20 0 -39 1.5t-32 4.5q-8 1 -14.5 7t-10.5 14q-5 11 -3.5 19.5t14.5 6.5zM54 28q6 1 15 1.5t24.5 0.5t40 -0.5t60.5 -1.5q64 -2 93.5 -3.5t43.5 -8.5
q12 -11 14 -22q2 -12 -11 -12q-8 0 -24.5 0.5t-37 1t-43 1t-42.5 0.5q-47 1 -73 -1t-45 0q-10 1 -16 8.5t-8 15.5q-3 15 9 20z" />
    <glyph glyph-name="uni00B2" unicode="&#xb2;" horiz-adv-x="250" 
d="M157 473q6 8 19.5 23t30.5 29q17 13 35.5 21t35.5 5t31.5 -14.5t24.5 -27.5q12 -20 13.5 -43.5t-12.5 -43.5q-12 -18 -31.5 -37.5t-41.5 -39.5q-20 -17 -39 -33t-34 -28t-24 -20.5t-8 -10.5t8 -2.5t17 0t22.5 1.5t25.5 3q21 2 37.5 4.5t19.5 2.5q7 2 10.5 -5t2.5 -15
t-4.5 -14.5t-10.5 -6.5l-64 -8q-24 -3 -47.5 -4.5t-34.5 0.5q-12 1 -20.5 8t-13.5 18t-3.5 22.5t9.5 20.5q4 5 16 15.5t28.5 24.5t35.5 31t38 35q18 18 34.5 35t27.5 32.5t15.5 28t-0.5 20.5q-8 11 -26 6t-38 -19t-37 -30.5t-22 -27.5t-12 -6t-12 16q-4 9 -5 18.5t3 15.5z
" />
    <glyph glyph-name="uni00B3" unicode="&#xb3;" horiz-adv-x="242" 
d="M201 505q7 5 24.5 14t37.5 15q18 5 35 7t28 -3q21 -10 32 -30q7 -12 7.5 -25t-7.5 -24q-7 -10 -18.5 -20.5t-25.5 -19.5t-29 -17t-27 -14q15 4 30.5 1.5t26 -10.5t15.5 -22t-1 -33q-8 -28 -58 -69q-21 -17 -44 -28t-43.5 -17t-36.5 -7.5t-22 -0.5q-5 1 -9.5 6.5
t-8.5 13.5q-5 11 -5.5 20.5t7.5 6.5q5 -2 20 -0.5t34.5 6.5t41 14.5t40.5 23.5q26 20 35 30t10 25q0 8 -9 12.5t-21.5 5t-26.5 -2.5t-23 -9q-5 -3 -10 3t-7 15t-1 19t8 16q5 5 22.5 13.5t37.5 19.5q15 8 29.5 16t25 16t15 14.5t-0.5 11.5q-5 6 -24.5 2t-40.5 -12
q-17 -7 -31.5 -14t-20.5 -12q-5 -5 -9.5 2.5t-6.5 18.5q-1 7 0 13t5 9z" />
    <glyph glyph-name="acute" unicode="&#xb4;" horiz-adv-x="309" 
d="M235 472q-2 -7 -8.5 -5.5t-12.5 9.5q-12 14 -11 35q2 18 21 38t46 38q32 23 59.5 32.5t41.5 14.5q8 2 14 -2t10 -9t3.5 -10.5t-8.5 -7.5q-14 -5 -38.5 -17t-50.5 -34q-15 -12 -26 -24.5t-19 -24t-13 -20.5t-8 -13z" />
    <glyph glyph-name="uni00B5" unicode="&#xb5;" horiz-adv-x="386" 
d="M160 317q5 8 13 7.5t15 -6.5q8 -7 12 -18.5t-3 -19.5q-6 -8 -16 -23.5t-21 -36t-22.5 -44t-21.5 -46.5q-8 -19 -14 -37t-9 -32.5t-1.5 -25t8.5 -14.5q6 -4 19.5 7t30.5 30.5t36 45.5t38 53q15 21 28.5 41.5t25 37.5t20 29.5t12.5 17.5q8 11 18.5 10.5t18.5 -7.5
q11 -8 17 -21.5t1 -21.5q-10 -14 -22 -45t-20 -63q-9 -36 -11 -64.5t11 -31.5q7 -2 19 6t26 21.5t30 31.5t32 38q15 19 29 37.5t25 34t18.5 27t9.5 15.5q4 7 8.5 4.5t8.5 -10.5q3 -6 4 -14t-2 -15q-5 -12 -25.5 -45.5t-48.5 -69.5q-25 -32 -52 -58t-50 -34q-27 -9 -50 1.5
t-32 39.5q-5 15 -3.5 33.5t5.5 35.5t8 30.5t5 17.5q-10 -16 -29.5 -43t-42.5 -56q-19 -23 -38 -43t-36 -31q-10 -7 -24 -8.5t-27 2.5t-22.5 15t-9.5 30q-14 -26 -30 -59t-30 -65q-17 -38 -28.5 -66.5t-10.5 -33.5q1 -6 -4.5 -4.5t-13.5 8.5t-13.5 17t-0.5 21
q11 32 35.5 85.5t54.5 114.5q19 39 39 78t38.5 74t35.5 65t29 50z" />
    <glyph glyph-name="uni00B5" unicode="&#x3bc;" horiz-adv-x="386" 
d="M160 317q5 8 13 7.5t15 -6.5q8 -7 12 -18.5t-3 -19.5q-6 -8 -16 -23.5t-21 -36t-22.5 -44t-21.5 -46.5q-8 -19 -14 -37t-9 -32.5t-1.5 -25t8.5 -14.5q6 -4 19.5 7t30.5 30.5t36 45.5t38 53q15 21 28.5 41.5t25 37.5t20 29.5t12.5 17.5q8 11 18.5 10.5t18.5 -7.5
q11 -8 17 -21.5t1 -21.5q-10 -14 -22 -45t-20 -63q-9 -36 -11 -64.5t11 -31.5q7 -2 19 6t26 21.5t30 31.5t32 38q15 19 29 37.5t25 34t18.5 27t9.5 15.5q4 7 8.5 4.5t8.5 -10.5q3 -6 4 -14t-2 -15q-5 -12 -25.5 -45.5t-48.5 -69.5q-25 -32 -52 -58t-50 -34q-27 -9 -50 1.5
t-32 39.5q-5 15 -3.5 33.5t5.5 35.5t8 30.5t5 17.5q-10 -16 -29.5 -43t-42.5 -56q-19 -23 -38 -43t-36 -31q-10 -7 -24 -8.5t-27 2.5t-22.5 15t-9.5 30q-14 -26 -30 -59t-30 -65q-17 -38 -28.5 -66.5t-10.5 -33.5q1 -6 -4.5 -4.5t-13.5 8.5t-13.5 17t-0.5 21
q11 32 35.5 85.5t54.5 114.5q19 39 39 78t38.5 74t35.5 65t29 50z" />
    <glyph glyph-name="paragraph" unicode="&#xb6;" horiz-adv-x="539" 
d="M291 375q-12 -6 -38 -6q-15 -38 -29.5 -75.5t-28.5 -69.5q-12 -28 -26.5 -61.5t-29.5 -69.5t-30 -73t-28 -71q-20 -51 -34.5 -90t-19.5 -56q-7 -22 -15.5 -16t-13.5 24q-5 16 -6 35.5t5 32.5q5 10 15.5 33t24.5 56q23 53 52 123.5t61 145.5q12 32 26 66.5t28 69.5
q-31 5 -62.5 12t-56.5 17q-23 8 -41 22t-28.5 31t-12.5 36.5t7 39.5q8 20 35 41t64 40t79.5 35t81.5 25q39 10 74.5 16t65 9.5t50.5 4.5t31 1q11 -2 18.5 -12.5t12.5 -25.5q4 -14 4 -29t-6 -26q-3 -6 -10 -22.5t-17.5 -40.5t-23 -54t-26.5 -63q-15 -35 -30 -71t-29 -70
t-26 -64.5t-20 -53.5l-102 -277q-18 -50 -31 -88t-15 -51q-2 -15 -11.5 -17t-18.5 6t-15 22t-1 31q4 14 16 47t29 78q12 31 25.5 66t27 69.5t26 67t23.5 59.5q9 22 21 53.5t26 67.5t29.5 74.5t30.5 76.5q16 40 30.5 76t25.5 64q13 33 24 60q-18 1 -40 0q-19 -1 -43.5 -2.5
t-53.5 -6.5q2 -11 2 -23.5t-4 -21.5q-3 -6 -9 -23.5t-15 -42.5t-20.5 -56t-23.5 -64q12 0 22 2q13 3 18.5 -1t5.5 -11q0 -8 -7 -17t-19 -14zM42 496q1 -15 19 -27.5t44.5 -22.5t57.5 -16.5t59 -9.5q14 35 27.5 68.5t25.5 62.5t21.5 52.5t15.5 38.5q-4 0 -10 -2
q-47 -11 -94 -28t-84 -37t-60 -40.5t-22 -38.5z" />
    <glyph glyph-name="periodcentered" unicode="&#xb7;" horiz-adv-x="326" 
d="M226 378q6 -1 16.5 -4t20 -9t16 -14.5t4.5 -19.5q-5 -20 -17.5 -29t-23.5 -7q-6 0 -13.5 5.5t-13.5 13t-10 15t-3 12.5q0 4 2 10.5t5 12.5t7 10t10 4z" />
    <glyph glyph-name="cedilla" unicode="&#xb8;" horiz-adv-x="165" 
d="M77 -21q-5 -5 -14 -10t-18 -11t-15.5 -13t-7.5 -15q0 -5 5 -15t12 -22q8 -16 15.5 -34t4.5 -35q-3 -21 -22 -40.5t-42 -36.5q-24 -17 -46.5 -28t-30.5 -13q-6 -2 -12 3t-10 12t-3 13.5t9 8.5q9 2 29.5 14.5t39.5 29.5q14 13 23.5 26.5t11.5 26.5q2 11 -5.5 23.5
t-14.5 26.5q-5 11 -8.5 23.5t1.5 27.5q4 13 17 25t28 22q17 12 27 17q6 4 13 6q5 3 11 -0.5t9 -9.5q2 -5 1 -11t-8 -11z" />
    <glyph glyph-name="uni00B9" unicode="&#xb9;" horiz-adv-x="219" 
d="M168 427q7 2 25.5 15.5t39.5 30.5q24 20 45 39.5t28 29.5q6 9 14 7.5t14 -9.5t8.5 -19t-2.5 -19q-3 -5 -11.5 -20.5t-20 -37t-25 -48t-26.5 -52.5q-21 -43 -35.5 -78.5t-11.5 -45.5q2 -6 -5 -6t-16 5q-8 5 -14.5 13.5t-6.5 19.5q0 8 11.5 33.5t25.5 54.5q9 19 18.5 37.5
t17.5 32.5q9 17 18 32q-4 -2 -8 -6q-4 -3 -9 -7l-10 -8q-11 -8 -21.5 -15t-16.5 -9q-12 -4 -24 6q-7 6 -9 13t7 11z" />
    <glyph glyph-name="ordmasculine" unicode="&#xba;" horiz-adv-x="224" 
d="M250 557q24 -2 49 -23t31 -52q5 -23 -6.5 -57t-35.5 -68q-38 -52 -65.5 -74t-40.5 -24q-12 -2 -24 3t-23 14q-11 10 -18 22t-7 25q0 22 9.5 57t32.5 70q11 17 19.5 29.5t17.5 18.5q-1 7 3 17t12.5 19.5t20 16t25.5 6.5zM233 477q-8 -8 -21 -27.5t-26 -43.5
q-9 -18 -17.5 -36t-13.5 -33t-6 -25t4 -12q7 -3 18.5 3t26 18.5t29.5 31t29 41.5q28 48 32.5 81.5t-5.5 41.5q-5 3 -11.5 1.5t-13.5 -6.5t-14 -12t-12 -14q6 -6 1 -9z" />
    <glyph glyph-name="guillemotright" unicode="&#xbb;" horiz-adv-x="443" 
d="M206 426q7 -7 16 -20t20 -27q13 -18 25.5 -36t22.5 -29q13 -17 19 -37t-8 -37q-7 -8 -21.5 -21t-31.5 -27t-32.5 -24.5t-23.5 -15.5q-5 -5 -11 -3t-10 7t-4 13.5t6 17.5q3 5 17 18t31 27t30 26.5t13 16.5q0 5 -13.5 23.5t-27.5 38.5q-10 13 -17.5 23.5t-10.5 15.5
q-6 10 -4 24q1 14 6 22.5t9 3.5zM336 413q6 -6 20 -26.5t28 -43.5q14 -22 25.5 -40.5t16.5 -23.5q8 -11 10 -28t-12 -35q-5 -8 -19.5 -22.5t-31.5 -29.5q-21 -19 -39.5 -34t-23.5 -18q-11 -5 -16 7q-4 8 -2.5 19.5t9.5 20.5q7 8 21.5 20.5t29.5 26.5t26.5 25.5t10.5 16.5
q0 4 -10 21t-23 37q-11 18 -21 34t-13 22q-7 11 -6 24t6 21q7 13 14 6z" />
    <glyph glyph-name="onequarter" unicode="&#xbc;" horiz-adv-x="539" 
d="M357 141q8 14 26.5 35t41.5 43q29 28 57.5 51t44.5 30q4 6 10.5 4t13.5 -9q12 -12 12 -25q-3 -17 -12.5 -49t-20.5 -70l-14 -46q25 2 43 3t21 -2q7 -7 7 -23q0 -9 -3.5 -15.5t-8.5 -1.5q-5 4 -25 3t-46 -4q-12 -42 -19.5 -73t-4.5 -40q4 -11 -3 -14t-16 2q-8 4 -15 12.5
t-7 19.5t5.5 34.5t13.5 52.5q-11 -2 -20.5 -3t-16.5 -1q-14 -1 -27.5 6t-24.5 18q-11 13 -15.5 29.5t3.5 32.5zM609 505q-6 -3 -28.5 -24t-55.5 -53.5t-73.5 -73.5t-81.5 -85q-43 -46 -83.5 -91.5t-72 -84t-51 -67.5t-19.5 -42q0 -11 -9 -13t-18 6q-8 7 -11.5 20t2.5 31
q5 14 25.5 42.5t51.5 66t69.5 80.5t79.5 87q39 42 77 81.5t70.5 70.5t56.5 51.5t35 25.5q15 6 24.5 2t14.5 -11q7 -13 -3 -19zM168 427q8 3 28 17.5t43 33.5t42 37t25 27t13.5 7.5t13.5 -8.5q7 -8 9.5 -19t-2.5 -20q-2 -4 -8.5 -15.5t-15 -28t-19.5 -36.5t-22 -42
q-13 -26 -25.5 -52t-22 -48t-14.5 -38t-3 -22q2 -7 -6 -6.5t-18 7.5q-8 5 -13 13t-5 18q0 8 10.5 32t24.5 52l20 38t18 34q10 18 18 34q-14 -11 -26 -20q-11 -8 -22 -15.5t-17 -9.5q-12 -4 -24 6q-7 6 -9 13t7 11zM393 95q2 -4 24.5 -2t51.5 6l21 66l23 76
q-16 -14 -34 -31.5t-35 -34.5q-25 -26 -40.5 -47.5t-10.5 -32.5z" />
    <glyph glyph-name="onehalf" unicode="&#xbd;" horiz-adv-x="539" 
d="M168 427q8 3 31 20t47 37q20 17 37.5 33.5t22.5 24.5q7 10 15.5 7.5t14.5 -11.5q5 -8 7 -18t-3 -18q-2 -4 -9 -16t-16 -29t-20.5 -38.5t-22.5 -43.5q-13 -25 -25 -50t-21 -46.5t-13.5 -37t-2.5 -21.5q2 -8 -7.5 -6t-19.5 10q-6 5 -10.5 12t-4.5 16t13 37t29 60
q9 17 17.5 34t15.5 30q8 15 16 29q-14 -11 -26 -20q-11 -8 -22 -15.5t-17 -9.5q-12 -4 -24 6q-7 6 -9 13t7 11zM609 505q-6 -3 -28 -23t-54 -51.5t-71.5 -72t-80.5 -83.5q-44 -46 -85.5 -92.5t-73.5 -86t-52 -69.5t-20 -43q0 -10 -7 -12.5t-15 2.5q-9 5 -15.5 19t1.5 35
q5 14 26.5 44t54 69t72 83.5t81.5 89.5q38 40 74.5 78t68 67.5t54.5 49t34 24.5q15 6 24.5 2t14.5 -11q7 -13 -3 -19zM392 229q6 8 19.5 23t30.5 29q17 13 35.5 21t35.5 5q15 -3 28.5 -12.5t23.5 -23.5q14 -20 17 -45.5t-12 -47.5q-11 -17 -30 -36.5t-41 -38.5
q-20 -17 -39.5 -33t-35 -29t-24.5 -21.5t-8 -10.5q2 -4 23.5 -3t45.5 4q22 2 40 5t21 3q7 2 10 -3.5t3 -13.5t-3.5 -15.5t-11.5 -8.5l-56 -7q-26 -3 -51.5 -5t-38.5 0q-9 1 -16.5 5.5t-12.5 11.5q-8 11 -9 26t10 26q4 5 16.5 15.5t29 25t35.5 31.5t38 35q18 17 34.5 34.5
t27.5 32.5t15 27.5t-1 20.5q-9 13 -31 4t-45 -26q-17 -13 -29.5 -26.5t-17.5 -22.5q-5 -11 -11.5 -7t-11.5 15q-5 9 -6.5 19.5t3.5 16.5z" />
    <glyph glyph-name="threequarters" unicode="&#xbe;" horiz-adv-x="578" 
d="M386 141q8 16 29.5 39.5t47.5 47.5q27 25 53 45.5t40 26.5q3 5 9 4t12 -6t11 -12.5t4 -15.5q-3 -17 -11.5 -47t-19.5 -67l-16 -51q25 2 43 3t21 -2q5 -5 6.5 -12.5t0.5 -14.5q-1 -8 -4 -12.5t-8 -0.5t-25 3t-46 -4q-12 -42 -19.5 -73t-4.5 -40q4 -13 -4.5 -14.5
t-18.5 4.5q-7 5 -12.5 12.5t-5.5 17.5q0 11 5.5 34.5t13.5 52.5q-11 -2 -20.5 -3t-16.5 -1q-26 -2 -47 18q-14 13 -20 31.5t3 36.5zM638 505q-7 -3 -33 -27.5t-64 -62t-83 -84.5t-90 -95q-38 -42 -73.5 -82t-62.5 -74t-43 -59t-16 -37q0 -13 -11 -13.5t-20 10.5
q-6 8 -8 19.5t3 27.5q4 12 22 37t44 57.5t59.5 71t69.5 77.5q42 46 85 91t80 81.5t65 60.5t40 29q13 5 22 2.5t14 -7.5q5 -6 5.5 -13t-5.5 -10zM188 508q6 5 21 13t33 14q20 7 39.5 9.5t31.5 -3.5q23 -12 34 -33q5 -11 5.5 -23t-7.5 -23q-7 -10 -18.5 -20.5t-25.5 -19.5
t-29 -17t-27 -14q15 4 30.5 1.5t26 -10.5t15.5 -22t-1 -33q-8 -28 -58 -69q-21 -17 -44 -27.5t-43.5 -16.5t-36.5 -8t-22 -1q-5 1 -10.5 8t-8.5 15q-5 11 -5 19t8 5q5 -2 19.5 -0.5t34 7t41 14.5t41.5 23q26 20 35 30t10 25q0 8 -9 12.5t-21.5 5t-26.5 -2.5t-23 -9
q-5 -3 -10.5 3.5t-7.5 17.5q-2 8 -0.5 17t8.5 15q5 5 26.5 15.5t44.5 23.5q13 7 25.5 14.5t21.5 14t12 12.5t-1 11q-5 6 -24.5 2t-40.5 -12q-17 -7 -31.5 -14t-20.5 -12q-5 -5 -9.5 1.5t-6.5 16.5q-2 8 -1 15t6 10zM422 95q2 -4 24.5 -2t51.5 6l22 71l22 71
q-15 -14 -32.5 -30.5t-34.5 -33.5q-25 -26 -41.5 -48.5t-11.5 -33.5z" />
    <glyph glyph-name="questiondown" unicode="&#xbf;" horiz-adv-x="393" 
d="M274 -234q-11 -8 -30 -20t-42 -22t-48.5 -15t-50.5 0q-41 9 -56 41q-9 20 -8 43t11 45q6 14 20 34t32.5 44t40.5 50l44 52q21 25 40 48t33.5 42t22 32.5t6.5 19.5q-4 12 -6.5 15t-4 3h-1.5l3 6q2 4 8 6t14 1q18 -2 30 -15q11 -12 2 -36q-11 -28 -48 -74
q-14 -19 -41.5 -52.5t-59.5 -71.5q-23 -28 -44 -56.5t-37 -53t-23.5 -43.5t-1.5 -29q5 -9 16 -11.5t24.5 -0.5t29 8t30.5 13q22 11 39 21.5t25 16.5q10 8 21.5 3.5t17.5 -13.5q5 -7 4 -15t-12 -16zM361 319q-8 -3 -16.5 -2t-16 4t-13.5 6.5t-8 5.5q-11 15 -1 27t23 13
q11 1 26 -4t21 -14q8 -8 5 -18t-20 -18z" />
    <glyph glyph-name="Agrave" unicode="&#xc0;" horiz-adv-x="561" 
d="M536 517q10 -17 17 -32.5t13 -31.5l23 32q5 8 14 4.5t17 -12.5q7 -8 9.5 -18.5t-3.5 -18.5q-8 -12 -22.5 -35.5t-30.5 -51t-31.5 -56.5t-24.5 -51q-12 -28 -21 -54t-17 -49q-18 -57 -22.5 -93t7.5 -42q7 -4 21 4.5t31 24t36.5 37.5t38.5 45q31 38 56 72.5t34 50.5
q6 11 12 11.5t10 -5.5t5 -15t-3 -18q-8 -20 -34.5 -58t-58.5 -78q-27 -34 -54.5 -62t-47.5 -40q-14 -8 -30.5 -7.5t-31 9.5t-25 25t-12.5 38q-2 20 1 42.5t8 45.5q10 40 23 72t17 40q-4 -5 -17 -22.5t-33 -43.5t-46.5 -57.5t-57.5 -64.5q-41 -43 -86.5 -83t-93.5 -67
q-17 -9 -32.5 -9t-29.5 7q-18 9 -31 26.5t-19 37.5q-6 21 -0.5 58.5t21 84t40 98t55.5 100.5q79 124 149 190.5t113 84.5q27 11 49.5 8t40.5 -14t31.5 -27.5t22.5 -31.5zM72 -63q13 -4 34.5 6.5t48.5 32.5t58 53t64 67q35 39 70.5 81t69 83t63 79.5t52.5 68.5q-3 18 -8 38.5
t-14 40t-22.5 35t-34.5 21.5q-14 4 -42.5 -9.5t-66 -46t-82 -85t-90.5 -125.5q-34 -53 -60.5 -111t-41.5 -107t-15.5 -82.5t17.5 -39.5zM611 627q5 1 6 -2t-1 -8q-3 -5 -10.5 -10t-20.5 -5q-21 0 -51.5 16.5t-52.5 39.5q-19 20 -33.5 47t-14.5 47q0 8 5.5 14.5t13.5 10.5
q11 5 22 3.5t11 -12.5t10.5 -35t32.5 -48q28 -32 50 -45t33 -13z" />
    <glyph glyph-name="Aacute" unicode="&#xc1;" horiz-adv-x="561" 
d="M536 517q10 -17 17 -32.5t13 -31.5l23 32q5 8 14 4.5t17 -12.5q7 -8 9.5 -18.5t-3.5 -18.5q-8 -12 -22.5 -35.5t-30.5 -51t-31.5 -56.5t-24.5 -51q-12 -28 -21 -54t-17 -49q-18 -57 -22.5 -93t7.5 -42q7 -4 21 4.5t31 24t36.5 37.5t38.5 45q31 38 56 72.5t34 50.5
q6 11 12 11.5t10 -5.5t5 -15t-3 -18q-8 -20 -34.5 -58t-58.5 -78q-27 -34 -54.5 -62t-47.5 -40q-14 -8 -30.5 -7.5t-31 9.5t-25 25t-12.5 38q-2 20 1 42.5t8 45.5q10 40 23 72t17 40q-4 -5 -17 -22.5t-33 -43.5t-46.5 -57.5t-57.5 -64.5q-41 -43 -86.5 -83t-93.5 -67
q-17 -9 -32.5 -9t-29.5 7q-18 9 -31 26.5t-19 37.5q-6 21 -0.5 58.5t21 84t40 98t55.5 100.5q79 124 149 190.5t113 84.5q27 11 49.5 8t40.5 -14t31.5 -27.5t22.5 -31.5zM72 -63q13 -4 34.5 6.5t48.5 32.5t58 53t64 67q35 39 70.5 81t69 83t63 79.5t52.5 68.5q-3 18 -8 38.5
t-14 40t-22.5 35t-34.5 21.5q-14 4 -42.5 -9.5t-66 -46t-82 -85t-90.5 -125.5q-34 -53 -60.5 -111t-41.5 -107t-15.5 -82.5t17.5 -39.5zM523 599q-2 -7 -8.5 -5.5t-12.5 9.5q-12 14 -11 35q2 18 21 38t46 38q32 23 59.5 32.5t41.5 14.5q8 2 14 -2t10 -9t3.5 -10.5t-8.5 -7.5
q-14 -5 -38.5 -17t-50.5 -34q-15 -12 -26 -24.5t-19 -24t-13 -20.5t-8 -13z" />
    <glyph glyph-name="Acircumflex" unicode="&#xc2;" horiz-adv-x="561" 
d="M536 517q10 -17 17 -32.5t13 -31.5l23 32q5 8 14 4.5t17 -12.5q7 -8 9.5 -18.5t-3.5 -18.5q-8 -12 -22.5 -35.5t-30.5 -51t-31.5 -56.5t-24.5 -51q-12 -28 -21 -54t-17 -49q-18 -57 -22.5 -93t7.5 -42q7 -4 21 4.5t31 24t36.5 37.5t38.5 45q31 38 56 72.5t34 50.5
q6 11 12 11.5t10 -5.5t5 -15t-3 -18q-8 -20 -34.5 -58t-58.5 -78q-27 -34 -54.5 -62t-47.5 -40q-14 -8 -30.5 -7.5t-31 9.5t-25 25t-12.5 38q-2 20 1 42.5t8 45.5q10 40 23 72t17 40q-4 -5 -17 -22.5t-33 -43.5t-46.5 -57.5t-57.5 -64.5q-41 -43 -86.5 -83t-93.5 -67
q-17 -9 -32.5 -9t-29.5 7q-18 9 -31 26.5t-19 37.5q-6 21 -0.5 58.5t21 84t40 98t55.5 100.5q79 124 149 190.5t113 84.5q27 11 49.5 8t40.5 -14t31.5 -27.5t22.5 -31.5zM72 -63q13 -4 34.5 6.5t48.5 32.5t58 53t64 67q35 39 70.5 81t69 83t63 79.5t52.5 68.5q-3 18 -8 38.5
t-14 40t-22.5 35t-34.5 21.5q-14 4 -42.5 -9.5t-66 -46t-82 -85t-90.5 -125.5q-34 -53 -60.5 -111t-41.5 -107t-15.5 -82.5t17.5 -39.5zM409 676q8 0 27.5 11.5t42.5 27.5q23 17 43 33t25 24q5 7 13 5t15 -9q14 -14 14 -28q1 -8 3.5 -23t6.5 -31q5 -17 11.5 -31t14.5 -19
q15 -6 4 -17q-5 -5 -14 -8t-14 -1q-11 5 -19.5 19.5t-14.5 31.5q-7 18 -10.5 32.5t-3.5 15.5l-15 -10q-7 -5 -15.5 -11t-17.5 -13q-20 -14 -38.5 -26.5t-25.5 -16.5q-9 -3 -18 4t-14 17q-5 8 -5 15t5 8z" />
    <glyph glyph-name="Atilde" unicode="&#xc3;" horiz-adv-x="561" 
d="M536 517q10 -17 17 -32.5t13 -31.5l23 32q5 8 14 4.5t17 -12.5q7 -8 9.5 -18.5t-3.5 -18.5q-8 -12 -22.5 -35.5t-30.5 -51t-31.5 -56.5t-24.5 -51q-12 -28 -21 -54t-17 -49q-18 -57 -22.5 -93t7.5 -42q7 -4 21 4.5t31 24t36.5 37.5t38.5 45q31 38 56 72.5t34 50.5
q6 11 12 11.5t10 -5.5t5 -15t-3 -18q-8 -20 -34.5 -58t-58.5 -78q-27 -34 -54.5 -62t-47.5 -40q-14 -8 -30.5 -7.5t-31 9.5t-25 25t-12.5 38q-2 20 1 42.5t8 45.5q10 40 23 72t17 40q-4 -5 -17 -22.5t-33 -43.5t-46.5 -57.5t-57.5 -64.5q-41 -43 -86.5 -83t-93.5 -67
q-17 -9 -32.5 -9t-29.5 7q-18 9 -31 26.5t-19 37.5q-6 21 -0.5 58.5t21 84t40 98t55.5 100.5q79 124 149 190.5t113 84.5q27 11 49.5 8t40.5 -14t31.5 -27.5t22.5 -31.5zM72 -63q13 -4 34.5 6.5t48.5 32.5t58 53t64 67q35 39 70.5 81t69 83t63 79.5t52.5 68.5q-3 18 -8 38.5
t-14 40t-22.5 35t-34.5 21.5q-14 4 -42.5 -9.5t-66 -46t-82 -85t-90.5 -125.5q-34 -53 -60.5 -111t-41.5 -107t-15.5 -82.5t17.5 -39.5zM434 680q5 7 15.5 16.5t24.5 16.5q10 5 20.5 7t21.5 0q13 -2 19.5 -9.5t11.5 -16.5q5 -8 10.5 -16t16.5 -11q11 -2 21 2t18 12
q12 12 10 22q0 5 3 4t7 -5q2 -2 3 -4.5t3 -4.5q2 -12 -0.5 -28t-16.5 -30q-7 -7 -16 -10t-18 -5q-21 -3 -35 6q-9 6 -14.5 13.5t-10 14.5t-8.5 12t-10 6q-10 1 -23 -5q-10 -5 -19 -14t-14 -18q-4 -7 -10 -2.5t-10 13.5q-4 8 -4.5 17t4.5 17z" />
    <glyph glyph-name="Adieresis" unicode="&#xc4;" horiz-adv-x="561" 
d="M536 517q10 -17 17 -32.5t13 -31.5l23 32q5 8 14 4.5t17 -12.5q7 -8 9.5 -18.5t-3.5 -18.5q-8 -12 -22.5 -35.5t-30.5 -51t-31.5 -56.5t-24.5 -51q-12 -28 -21 -54t-17 -49q-18 -57 -22.5 -93t7.5 -42q7 -4 21 4.5t31 24t36.5 37.5t38.5 45q31 38 56 72.5t34 50.5
q6 11 12 11.5t10 -5.5t5 -15t-3 -18q-8 -20 -34.5 -58t-58.5 -78q-27 -34 -54.5 -62t-47.5 -40q-14 -8 -30.5 -7.5t-31 9.5t-25 25t-12.5 38q-2 20 1 42.5t8 45.5q10 40 23 72t17 40q-4 -5 -17 -22.5t-33 -43.5t-46.5 -57.5t-57.5 -64.5q-41 -43 -86.5 -83t-93.5 -67
q-17 -9 -32.5 -9t-29.5 7q-18 9 -31 26.5t-19 37.5q-6 21 -0.5 58.5t21 84t40 98t55.5 100.5q79 124 149 190.5t113 84.5q27 11 49.5 8t40.5 -14t31.5 -27.5t22.5 -31.5zM72 -63q13 -4 34.5 6.5t48.5 32.5t58 53t64 67q35 39 70.5 81t69 83t63 79.5t52.5 68.5q-3 18 -8 38.5
t-14 40t-22.5 35t-34.5 21.5q-14 4 -42.5 -9.5t-66 -46t-82 -85t-90.5 -125.5q-34 -53 -60.5 -111t-41.5 -107t-15.5 -82.5t17.5 -39.5zM473 661q-7 -2 -12 4t-8 15t-4 19.5t0 18.5q2 16 13 28.5t25 14.5q15 4 27.5 -10t14.5 -28q0 -7 -6 -16.5t-14.5 -18.5t-18 -16.5
t-17.5 -10.5zM599 727q14 0 27.5 -12.5t11.5 -30.5q-1 -5 -6.5 -14t-14 -18t-17 -16.5t-15.5 -9.5q-14 -3 -22.5 13t-6.5 31q0 7 4.5 17t11 19t14 15t13.5 6z" />
    <glyph glyph-name="Aring" unicode="&#xc5;" horiz-adv-x="561" 
d="M536 517q10 -17 17 -32.5t13 -31.5l23 32q5 8 14 4.5t17 -12.5q7 -8 9.5 -18.5t-3.5 -18.5q-8 -12 -22.5 -35.5t-30.5 -51t-31.5 -56.5t-24.5 -51q-12 -28 -21 -54t-17 -49q-18 -57 -22.5 -93t7.5 -42q7 -4 21 4.5t31 24t36.5 37.5t38.5 45q31 38 56 72.5t34 50.5
q6 11 12 11.5t10 -5.5t5 -15t-3 -18q-8 -20 -34.5 -58t-58.5 -78q-27 -34 -54.5 -62t-47.5 -40q-14 -8 -30.5 -7.5t-31 9.5t-25 25t-12.5 38q-2 20 1 42.5t8 45.5q10 40 23 72t17 40q-4 -5 -17 -22.5t-33 -43.5t-46.5 -57.5t-57.5 -64.5q-41 -43 -86.5 -83t-93.5 -67
q-17 -9 -32.5 -9t-29.5 7q-18 9 -31 26.5t-19 37.5q-6 21 -0.5 58.5t21 84t40 98t55.5 100.5q79 124 149 190.5t113 84.5q27 11 49.5 8t40.5 -14t31.5 -27.5t22.5 -31.5zM72 -63q13 -4 34.5 6.5t48.5 32.5t58 53t64 67q35 39 70.5 81t69 83t63 79.5t52.5 68.5q-3 18 -8 38.5
t-14 40t-22.5 35t-34.5 21.5q-14 4 -42.5 -9.5t-66 -46t-82 -85t-90.5 -125.5q-34 -53 -60.5 -111t-41.5 -107t-15.5 -82.5t17.5 -39.5zM508 699q13 19 26 29.5t25 16t22 6t15 -0.5q14 0 24.5 -10t15.5 -26t4.5 -35t-8.5 -37q-20 -29 -51.5 -41t-54.5 -4q-12 5 -18.5 17.5
t-8.5 28t0.5 31t8.5 25.5zM537 646q3 -5 11.5 -6t18 1t19 7.5t14.5 12.5q8 11 6 24.5t-13 17.5l-1 -1q-1 0 -3 2h-5q-3 0 -4 3q-5 0 -17 -6q-7 -4 -14 -11.5t-11 -15.5t-5 -16t4 -12z" />
    <glyph glyph-name="AE" unicode="&#xc6;" horiz-adv-x="673" 
d="M214 227q4 0 13.5 1t23.5 3q17 17 33.5 34t33.5 33q42 40 77 76.5t64 68.5q40 44 65.5 75t33.5 43q6 10 15.5 11.5t20.5 -1.5q9 -3 18 -8.5t15 -13.5q22 2 49.5 4t54.5 3q37 1 66.5 -1.5t34.5 -9.5q8 -11 8 -22t-5.5 -15.5t-12.5 2.5q-5 4 -31 5t-60 -1q-26 -1 -52 -3
t-49 -4q-10 -15 -30 -46t-45 -73q-18 -30 -37 -62.5t-36 -67.5l93 10q32 3 53.5 5t27.5 1q11 -2 17.5 -9t8.5 -15q4 -11 -0.5 -20.5t-17.5 -4.5q-7 2 -30 1.5t-58 -3.5q-26 -2 -55.5 -4.5t-60.5 -6.5q-15 -32 -26.5 -62.5t-18.5 -57.5q-10 -39 -6.5 -66.5t26.5 -37.5
q10 -5 26.5 -4.5t35.5 4.5t40 11.5t41 15.5q32 13 57.5 25t36.5 17q14 8 21.5 4.5t7.5 -11.5q0 -7 -5 -15t-13 -13q-10 -5 -30.5 -17.5t-46.5 -26.5q-28 -14 -59 -25t-63 -12q-26 0 -47.5 9.5t-36.5 26.5q-23 26 -30.5 65.5t3.5 86.5q4 17 11 36t17 40q-40 -5 -75 -9.5
t-59 -8.5q-27 -28 -53 -56t-50 -54q-28 -30 -52 -56.5t-43 -46.5t-31.5 -32t-17.5 -13q-14 -3 -25.5 0.5t-16.5 8.5q-6 7 -3.5 14.5t17.5 12.5q4 2 16 13.5t30.5 30.5t42 43.5t50.5 53.5l75 78q-11 11 -9 26q2 14 17 17zM561 489q-13 -11 -47.5 -49.5t-89.5 -95.5
q-30 -32 -66 -66q-10 -9 -19.5 -19t-19.5 -20q23 3 49.5 6.5t54.5 6.5q11 23 24 46l26 46q16 28 31.5 53.5t27.5 45t19.5 32t9.5 14.5z" />
    <glyph glyph-name="Ccedilla" unicode="&#xc7;" horiz-adv-x="456" 
d="M498 442q-8 -11 -15.5 -9t-12.5 10t-7.5 18t1.5 18q3 8 9 22t11 31q6 20 8 37t-9 22q-15 7 -52 -14.5t-85 -65.5q-34 -32 -69.5 -72.5t-70.5 -90.5q-39 -57 -66.5 -110t-42.5 -101q-20 -64 -18 -113t27 -75q16 -17 39.5 -23.5t55.5 -0.5t73 25.5t91 56.5q35 26 73.5 66
t70.5 78q27 32 47 58.5t27 37.5t12 10.5t9 -7.5q3 -6 4 -16t-3 -19q-3 -9 -21 -35.5t-44 -58.5q-23 -28 -48 -56.5t-49 -50.5q-58 -53 -115 -86t-113 -39q-36 -4 -65 3.5t-52 21.5q-11 -7 -26 -16.5t-16 -21.5q0 -5 4.5 -12.5t10.5 -18.5q7 -13 13 -28.5t4 -29.5
q-3 -18 -18.5 -34.5t-35.5 -30.5t-39.5 -23t-25.5 -11q-5 -2 -10.5 2.5t-8.5 9.5q-3 6 -2.5 11.5t7.5 7.5q8 1 25 11.5t33 25.5q25 22 30 45q2 9 -4.5 19.5t-12.5 22.5q-5 9 -7.5 19.5t1.5 23.5q3 11 14 21t24 18l14 10q-40 40 -43 96q-5 69 25 149.5t96 177.5q43 63 84 111
t77 81.5t66.5 53t53.5 26.5q20 6 38 0t32 -18t23.5 -26.5t11.5 -28.5q2 -12 -1.5 -27.5t-9.5 -31.5t-13.5 -30.5t-13.5 -25.5z" />
    <glyph glyph-name="Egrave" unicode="&#xc8;" horiz-adv-x="438" 
d="M522 608q5 -5 5 -10t-2 -9q-5 -7 -12.5 -9t-11.5 3q-8 9 -17.5 14.5t-23.5 4.5q-23 0 -61 -21t-80 -56q-63 -52 -85 -97.5t0 -68.5q8 -9 24 -16.5t33 -13.5q29 15 52 24t38 11q15 1 27.5 -2.5t20 -9t9.5 -12.5t-4 -13q-5 -5 -16 -12t-26.5 -14t-35.5 -11.5t-42 -3.5
q-38 -20 -91.5 -55t-103.5 -82q-45 -41 -72 -82q-31 -48 -33.5 -85t22.5 -52q30 -19 99 -5.5t157 66.5q57 34 101 70.5t77 71.5q32 34 53.5 63t36.5 51q10 14 17 0q4 -8 4.5 -19.5t-4.5 -20.5q-17 -34 -58 -84t-101 -100q-54 -46 -120 -84.5t-141 -56.5q-46 -11 -80.5 -6
t-57.5 21q-23 15 -35 38t-16 49q-4 29 9 65t44 75q16 20 36.5 40t45.5 40q34 27 69.5 52t70.5 45q-46 19 -61.5 52.5t-4.5 65.5q12 34 44 72.5t72 73.5q22 19 45 35.5t44 28.5t39 18.5t32 6.5q26 0 40.5 -15t28.5 -31zM587 701q5 1 6 -2t-1 -8q-3 -5 -10.5 -10t-20.5 -5
q-21 0 -51.5 16.5t-52.5 39.5q-19 20 -33.5 47t-14.5 47q0 8 5.5 14.5t13.5 10.5q11 5 22 3.5t11 -12.5t10.5 -35t32.5 -48q28 -32 50 -45t33 -13z" />
    <glyph glyph-name="Eacute" unicode="&#xc9;" horiz-adv-x="438" 
d="M522 608q5 -5 5 -10t-2 -9q-5 -7 -12.5 -9t-11.5 3q-8 9 -17.5 14.5t-23.5 4.5q-23 0 -61 -21t-80 -56q-63 -52 -85 -97.5t0 -68.5q8 -9 24 -16.5t33 -13.5q29 15 52 24t38 11q15 1 27.5 -2.5t20 -9t9.5 -12.5t-4 -13q-5 -5 -16 -12t-26.5 -14t-35.5 -11.5t-42 -3.5
q-38 -20 -91.5 -55t-103.5 -82q-45 -41 -72 -82q-31 -48 -33.5 -85t22.5 -52q30 -19 99 -5.5t157 66.5q57 34 101 70.5t77 71.5q32 34 53.5 63t36.5 51q10 14 17 0q4 -8 4.5 -19.5t-4.5 -20.5q-17 -34 -58 -84t-101 -100q-54 -46 -120 -84.5t-141 -56.5q-46 -11 -80.5 -6
t-57.5 21q-23 15 -35 38t-16 49q-4 29 9 65t44 75q16 20 36.5 40t45.5 40q34 27 69.5 52t70.5 45q-46 19 -61.5 52.5t-4.5 65.5q12 34 44 72.5t72 73.5q22 19 45 35.5t44 28.5t39 18.5t32 6.5q26 0 40.5 -15t28.5 -31zM406 683q-2 -7 -8.5 -5.5t-12.5 9.5q-12 14 -11 35
q2 18 21 38t46 38q32 23 59.5 32.5t41.5 14.5q8 2 14 -2t10 -9t3.5 -10.5t-8.5 -7.5q-14 -5 -38.5 -17t-50.5 -34q-15 -12 -26 -24.5t-19 -24t-13 -20.5t-8 -13z" />
    <glyph glyph-name="Ecircumflex" unicode="&#xca;" horiz-adv-x="438" 
d="M522 608q5 -5 5 -10t-2 -9q-5 -7 -12.5 -9t-11.5 3q-8 9 -17.5 14.5t-23.5 4.5q-23 0 -61 -21t-80 -56q-63 -52 -85 -97.5t0 -68.5q8 -9 24 -16.5t33 -13.5q29 15 52 24t38 11q15 1 27.5 -2.5t20 -9t9.5 -12.5t-4 -13q-5 -5 -16 -12t-26.5 -14t-35.5 -11.5t-42 -3.5
q-38 -20 -91.5 -55t-103.5 -82q-45 -41 -72 -82q-31 -48 -33.5 -85t22.5 -52q30 -19 99 -5.5t157 66.5q57 34 101 70.5t77 71.5q32 34 53.5 63t36.5 51q10 14 17 0q4 -8 4.5 -19.5t-4.5 -20.5q-17 -34 -58 -84t-101 -100q-54 -46 -120 -84.5t-141 -56.5q-46 -11 -80.5 -6
t-57.5 21q-23 15 -35 38t-16 49q-4 29 9 65t44 75q16 20 36.5 40t45.5 40q34 27 69.5 52t70.5 45q-46 19 -61.5 52.5t-4.5 65.5q12 34 44 72.5t72 73.5q22 19 45 35.5t44 28.5t39 18.5t32 6.5q26 0 40.5 -15t28.5 -31zM366 739q8 0 27.5 11.5t42.5 27.5q23 17 43 33t25 24
q5 7 13 5t15 -9q14 -14 14 -28q1 -8 3.5 -23t6.5 -31q5 -17 11.5 -31t14.5 -19q15 -6 4 -17q-5 -5 -14 -8t-14 -1q-11 5 -19.5 19.5t-14.5 31.5q-7 18 -10.5 32.5t-3.5 15.5l-15 -10q-7 -5 -15.5 -11t-17.5 -13q-20 -14 -38.5 -26.5t-25.5 -16.5q-9 -3 -18 4t-14 17
q-5 8 -5 15t5 8z" />
    <glyph glyph-name="Edieresis" unicode="&#xcb;" horiz-adv-x="438" 
d="M522 608q5 -5 5 -10t-2 -9q-5 -7 -12.5 -9t-11.5 3q-8 9 -17.5 14.5t-23.5 4.5q-23 0 -61 -21t-80 -56q-63 -52 -85 -97.5t0 -68.5q8 -9 24 -16.5t33 -13.5q29 15 52 24t38 11q15 1 27.5 -2.5t20 -9t9.5 -12.5t-4 -13q-5 -5 -16 -12t-26.5 -14t-35.5 -11.5t-42 -3.5
q-38 -20 -91.5 -55t-103.5 -82q-45 -41 -72 -82q-31 -48 -33.5 -85t22.5 -52q30 -19 99 -5.5t157 66.5q57 34 101 70.5t77 71.5q32 34 53.5 63t36.5 51q10 14 17 0q4 -8 4.5 -19.5t-4.5 -20.5q-17 -34 -58 -84t-101 -100q-54 -46 -120 -84.5t-141 -56.5q-46 -11 -80.5 -6
t-57.5 21q-23 15 -35 38t-16 49q-4 29 9 65t44 75q16 20 36.5 40t45.5 40q34 27 69.5 52t70.5 45q-46 19 -61.5 52.5t-4.5 65.5q12 34 44 72.5t72 73.5q22 19 45 35.5t44 28.5t39 18.5t32 6.5q26 0 40.5 -15t28.5 -31zM448 706q-7 -2 -12 4t-8 15t-4 19.5t0 18.5
q2 16 13 28.5t25 14.5q15 4 27.5 -10t14.5 -28q0 -7 -6 -16.5t-14.5 -18.5t-18 -16.5t-17.5 -10.5zM574 772q14 0 27.5 -12.5t11.5 -30.5q-1 -5 -6.5 -14t-14 -18t-17 -16.5t-15.5 -9.5q-14 -3 -22.5 13t-6.5 31q0 7 4.5 17t11 19t14 15t13.5 6z" />
    <glyph glyph-name="Igrave" unicode="&#xcc;" horiz-adv-x="209" 
d="M333 590q2 -9 -7.5 -36.5t-28.5 -73.5q-18 -43 -43.5 -101t-58.5 -133q-30 -66 -56 -128t-43 -110q-14 -38 -20.5 -62.5t-4.5 -30.5q2 -9 -6.5 -7t-18.5 13q-7 8 -12 18.5t-4 22.5q1 11 8 31.5t18 48.5q19 46 47 108.5t59 135.5q25 58 46 110.5t38 95.5q18 47 28.5 78.5
t12.5 42.5q1 10 7.5 11t14.5 -4t15 -13t9 -17zM449 660q5 1 6 -2t-1 -8q-3 -5 -10.5 -10t-20.5 -5q-21 0 -51.5 16.5t-52.5 39.5q-19 20 -33.5 47t-14.5 47q0 8 5.5 14.5t13.5 10.5q11 5 22 3.5t11 -12.5t10.5 -35t32.5 -48q28 -32 50 -45t33 -13z" />
    <glyph glyph-name="Iacute" unicode="&#xcd;" horiz-adv-x="209" 
d="M333 590q2 -9 -7.5 -36.5t-28.5 -73.5q-18 -43 -43.5 -101t-58.5 -133q-30 -66 -56 -128t-43 -110q-14 -38 -20.5 -62.5t-4.5 -30.5q2 -9 -6.5 -7t-18.5 13q-7 8 -12 18.5t-4 22.5q1 11 8 31.5t18 48.5q19 46 47 108.5t59 135.5q25 58 46 110.5t38 95.5q18 47 28.5 78.5
t12.5 42.5q1 10 7.5 11t14.5 -4t15 -13t9 -17zM347 676q-2 -7 -8.5 -5.5t-12.5 9.5q-12 14 -11 35q2 18 21 38t46 38q32 23 59.5 32.5t41.5 14.5q8 2 14 -2t10 -9t3.5 -10.5t-8.5 -7.5q-14 -5 -38.5 -17t-50.5 -34q-15 -12 -26 -24.5t-19 -24t-13 -20.5t-8 -13z" />
    <glyph glyph-name="Icircumflex" unicode="&#xce;" horiz-adv-x="209" 
d="M333 590q2 -9 -7.5 -36.5t-28.5 -73.5q-18 -43 -43.5 -101t-58.5 -133q-30 -66 -56 -128t-43 -110q-14 -38 -20.5 -62.5t-4.5 -30.5q2 -9 -6.5 -7t-18.5 13q-7 8 -12 18.5t-4 22.5q1 11 8 31.5t18 48.5q19 46 47 108.5t59 135.5q25 58 46 110.5t38 95.5q18 47 28.5 78.5
t12.5 42.5q1 10 7.5 11t14.5 -4t15 -13t9 -17zM229 723q8 0 27.5 11.5t42.5 27.5q23 17 43 33t25 24q5 7 13 5t15 -9q6 -6 10 -13.5t4 -14.5q1 -8 3.5 -23t6.5 -31q5 -17 11.5 -31t14.5 -19q15 -6 4 -17q-5 -5 -14 -8t-14 -1q-11 5 -19.5 19.5t-14.5 31.5q-7 18 -10.5 32.5
t-3.5 15.5l-15 -10q-7 -5 -15.5 -11t-17.5 -13q-20 -14 -38.5 -26.5t-25.5 -16.5q-9 -3 -18 4t-14 17q-5 8 -5 15t5 8z" />
    <glyph glyph-name="Idieresis" unicode="&#xcf;" horiz-adv-x="209" 
d="M333 590q2 -9 -7.5 -36.5t-28.5 -73.5q-18 -43 -43.5 -101t-58.5 -133q-30 -66 -56 -128t-43 -110q-14 -38 -20.5 -62.5t-4.5 -30.5q2 -9 -6.5 -7t-18.5 13q-7 8 -12 18.5t-4 22.5q1 11 8 31.5t18 48.5q19 46 47 108.5t59 135.5q25 58 46 110.5t38 95.5q18 47 28.5 78.5
t12.5 42.5q1 10 7.5 11t14.5 -4t15 -13t9 -17zM296 702q-7 -2 -12 4t-8 15t-4 19.5t0 18.5q2 16 13 28.5t25 14.5q15 4 27.5 -10t14.5 -28q0 -7 -6 -16.5t-14.5 -18.5t-18 -16.5t-17.5 -10.5zM422 768q14 0 27.5 -12.5t11.5 -30.5q-1 -5 -6.5 -14t-14 -18t-17 -16.5
t-15.5 -9.5q-14 -3 -22.5 13t-6.5 31q0 7 4.5 17t11 19t14 15t13.5 6z" />
    <glyph glyph-name="Eth" unicode="&#xd0;" horiz-adv-x="545" 
d="M303 595q-61 -5 -114 -22.5t-92 -38t-61 -40t-22 -27.5q0 -17 -11 -13t-19 17q-5 7 -7 15t1 15q3 9 25.5 28.5t60.5 41t90 40.5t116 25q85 9 150 -2.5t110.5 -38.5t70.5 -69t29 -94q3 -42 -10 -91t-39 -98.5t-64 -95.5t-84 -82q-91 -71 -165.5 -100t-127.5 -27
q-20 0 -36 7.5t-27 20.5t-16.5 29.5t-1.5 36.5q5 26 23.5 79.5t60.5 139.5l-44 -14q-21 -7 -25 -9q-11 -5 -20.5 1t-14.5 16q-5 9 -3.5 16.5t12.5 8.5q8 0 21.5 3t31.5 8q14 4 31 8.5t34 9.5l54 110q25 52 40.5 88t17.5 54q1 8 7 6.5t14 -7.5q10 -8 17.5 -21.5t2.5 -27.5
q-7 -17 -16.5 -39.5t-23.5 -51.5l-46 -94q17 4 33.5 7.5t30.5 5.5q20 3 35.5 3.5t25.5 -3.5q9 -3 17 -8t11 -10q7 -10 -15 -10q-13 1 -32.5 -2t-42.5 -8q-20 -5 -42 -10t-44 -11q-57 -113 -85.5 -186t-15.5 -99q4 -9 26 -8.5t53.5 10t69 27.5t73.5 42q38 25 79.5 60.5
t77.5 80t62 98.5t33 117t-16 101t-64 57.5t-94 24t-106 0.5z" />
    <glyph glyph-name="Ntilde" unicode="&#xd1;" horiz-adv-x="471" 
d="M11 -62q2 13 10 39.5t20 63t27.5 80t32.5 89.5q21 59 43 118t41 108.5t32.5 85t17.5 47.5q5 13 15.5 19.5t22.5 7.5q14 1 25 -8t9 -28q-2 -16 0 -46.5t6.5 -69.5t10.5 -84.5t13 -90.5q5 -35 10.5 -69t11 -63.5t10 -53.5l7.5 -40q11 37 27 81q14 38 33 88t43 108
q30 72 54.5 126t44.5 91t36.5 56.5t31.5 21.5q13 2 21.5 -4.5t13.5 -15.5q7 -12 6 -23t-12 -7q-23 7 -58 -51q-20 -35 -44 -89t-53 -123q-19 -46 -39 -98t-37.5 -98.5t-29.5 -81t-14 -46.5q-4 -20 -20 -15q-9 3 -19.5 14.5t-18.5 26.5q-6 12 -13.5 37t-14.5 58t-14.5 72.5
t-13.5 81.5q-11 69 -17.5 135t-7.5 110q-6 -14 -19 -48t-30 -80t-36.5 -99.5t-38.5 -107.5q-16 -45 -31 -87.5t-27 -77.5t-20 -60t-10 -35q-2 -8 -9 -7t-15 9q-7 6 -11.5 15.5t-2.5 17.5zM355 694q5 7 15.5 16.5t24.5 16.5q10 5 20.5 7t21.5 0q13 -2 19.5 -9.5t11.5 -16.5
q5 -8 10.5 -16t16.5 -11q11 -2 21 2t18 12q12 12 10 22q0 5 3 4t7 -5q2 -2 3 -4.5t3 -4.5q2 -12 -0.5 -28t-16.5 -30q-7 -7 -16 -10t-18 -5q-21 -3 -35 6q-9 6 -14.5 13.5t-10 14.5t-8.5 12t-10 6q-10 1 -23 -5q-10 -5 -19 -14t-14 -18q-4 -7 -10 -2.5t-10 13.5
q-4 8 -4.5 17t4.5 17z" />
    <glyph glyph-name="Ograve" unicode="&#xd2;" horiz-adv-x="478" 
d="M111 412q14 40 36 75.5t51 64.5q29 27 64 45t78 24q34 5 66 -0.5t58.5 -21t45 -41t27.5 -61.5q10 -38 6 -82.5t-18 -91.5t-37.5 -95t-53.5 -92q-49 -73 -110 -128.5t-121 -75.5q-39 -13 -71.5 -10t-57.5 20q-29 20 -45 55.5t-18 83.5q-3 68 27 154q13 37 28.5 69.5
t31.5 58.5q5 26 13 49zM76 182q-20 -72 -20 -123q-1 -43 13.5 -69t43.5 -29q35 -4 95 24.5t125 100.5q30 34 59.5 78.5t55.5 101.5q25 54 35.5 102t8.5 88q-2 45 -16.5 76.5t-37.5 44.5q-29 17 -68.5 12t-80.5 -28q-33 -20 -62.5 -51t-49.5 -75q-17 -38 -25 -67t-10 -52
q-2 -42 12.5 -62t28.5 -25q11 -5 10 -10t-9 -8q-8 -4 -19 -4.5t-21 3.5q-13 5 -23 18t-17 33q-17 -41 -28 -79zM560 654q5 1 6 -2t-1 -8q-3 -5 -10.5 -10t-20.5 -5q-21 0 -51.5 16.5t-52.5 39.5q-19 20 -33.5 47t-14.5 47q0 8 5.5 14.5t13.5 10.5q11 5 22 3.5t11 -12.5
t10.5 -35t32.5 -48q28 -32 50 -45t33 -13z" />
    <glyph glyph-name="Oacute" unicode="&#xd3;" horiz-adv-x="478" 
d="M111 412q14 40 36 75.5t51 64.5q29 27 64 45t78 24q34 5 66 -0.5t58.5 -21t45 -41t27.5 -61.5q10 -38 6 -82.5t-18 -91.5t-37.5 -95t-53.5 -92q-49 -73 -110 -128.5t-121 -75.5q-39 -13 -71.5 -10t-57.5 20q-29 20 -45 55.5t-18 83.5q-3 68 27 154q13 37 28.5 69.5
t31.5 58.5q5 26 13 49zM76 182q-20 -72 -20 -123q-1 -43 13.5 -69t43.5 -29q35 -4 95 24.5t125 100.5q30 34 59.5 78.5t55.5 101.5q25 54 35.5 102t8.5 88q-2 45 -16.5 76.5t-37.5 44.5q-29 17 -68.5 12t-80.5 -28q-33 -20 -62.5 -51t-49.5 -75q-17 -38 -25 -67t-10 -52
q-2 -42 12.5 -62t28.5 -25q11 -5 10 -10t-9 -8q-8 -4 -19 -4.5t-21 3.5q-13 5 -23 18t-17 33q-17 -41 -28 -79zM409 659q-2 -7 -8.5 -5.5t-12.5 9.5q-12 14 -11 35q2 18 21 38t46 38q32 23 59.5 32.5t41.5 14.5q8 2 14 -2t10 -9t3.5 -10.5t-8.5 -7.5q-14 -5 -38.5 -17
t-50.5 -34q-15 -12 -26 -24.5t-19 -24t-13 -20.5t-8 -13z" />
    <glyph glyph-name="Ocircumflex" unicode="&#xd4;" horiz-adv-x="478" 
d="M111 412q14 40 36 75.5t51 64.5q29 27 64 45t78 24q34 5 66 -0.5t58.5 -21t45 -41t27.5 -61.5q10 -38 6 -82.5t-18 -91.5t-37.5 -95t-53.5 -92q-49 -73 -110 -128.5t-121 -75.5q-39 -13 -71.5 -10t-57.5 20q-29 20 -45 55.5t-18 83.5q-3 68 27 154q13 37 28.5 69.5
t31.5 58.5q5 26 13 49zM76 182q-20 -72 -20 -123q-1 -43 13.5 -69t43.5 -29q35 -4 95 24.5t125 100.5q30 34 59.5 78.5t55.5 101.5q25 54 35.5 102t8.5 88q-2 45 -16.5 76.5t-37.5 44.5q-29 17 -68.5 12t-80.5 -28q-33 -20 -62.5 -51t-49.5 -75q-17 -38 -25 -67t-10 -52
q-2 -42 12.5 -62t28.5 -25q11 -5 10 -10t-9 -8q-8 -4 -19 -4.5t-21 3.5q-13 5 -23 18t-17 33q-17 -41 -28 -79zM312 709q8 0 27.5 11.5t42.5 27.5q23 17 43 33t25 24q5 7 13 5t15 -9q6 -6 10 -13.5t4 -14.5q1 -8 3.5 -23t6.5 -31q5 -17 11.5 -31t14.5 -19q15 -6 4 -17
q-5 -5 -14 -8t-14 -1q-11 5 -19.5 19.5t-14.5 31.5q-7 18 -10.5 32.5t-3.5 15.5l-15 -10q-7 -5 -15.5 -11t-17.5 -13q-20 -14 -38.5 -26.5t-25.5 -16.5q-9 -3 -18 4t-14 17q-5 8 -5 15t5 8z" />
    <glyph glyph-name="Otilde" unicode="&#xd5;" horiz-adv-x="478" 
d="M111 412q14 40 36 75.5t51 64.5q29 27 64 45t78 24q34 5 66 -0.5t58.5 -21t45 -41t27.5 -61.5q10 -38 6 -82.5t-18 -91.5t-37.5 -95t-53.5 -92q-49 -73 -110 -128.5t-121 -75.5q-39 -13 -71.5 -10t-57.5 20q-29 20 -45 55.5t-18 83.5q-3 68 27 154q13 37 28.5 69.5
t31.5 58.5q5 26 13 49zM76 182q-20 -72 -20 -123q-1 -43 13.5 -69t43.5 -29q35 -4 95 24.5t125 100.5q30 34 59.5 78.5t55.5 101.5q25 54 35.5 102t8.5 88q-2 45 -16.5 76.5t-37.5 44.5q-29 17 -68.5 12t-80.5 -28q-33 -20 -62.5 -51t-49.5 -75q-17 -38 -25 -67t-10 -52
q-2 -42 12.5 -62t28.5 -25q11 -5 10 -10t-9 -8q-8 -4 -19 -4.5t-21 3.5q-13 5 -23 18t-17 33q-17 -41 -28 -79zM361 711q5 7 15.5 16.5t24.5 16.5q10 5 20.5 7t21.5 0q13 -2 19.5 -9.5t11.5 -16.5q5 -8 10.5 -16t16.5 -11q11 -2 21 2t18 12q12 12 10 22q0 5 3 4t7 -5
q2 -2 3 -4.5t3 -4.5q2 -12 -0.5 -28t-16.5 -30q-7 -7 -16 -10t-18 -5q-21 -3 -35 6q-9 6 -14.5 13.5t-10 14.5t-8.5 12t-10 6q-10 1 -23 -5q-10 -5 -19 -14t-14 -18q-4 -7 -10 -2.5t-10 13.5q-4 8 -4.5 17t4.5 17z" />
    <glyph glyph-name="Odieresis" unicode="&#xd6;" horiz-adv-x="478" 
d="M111 412q14 40 36 75.5t51 64.5q29 27 64 45t78 24q34 5 66 -0.5t58.5 -21t45 -41t27.5 -61.5q10 -38 6 -82.5t-18 -91.5t-37.5 -95t-53.5 -92q-49 -73 -110 -128.5t-121 -75.5q-39 -13 -71.5 -10t-57.5 20q-29 20 -45 55.5t-18 83.5q-3 68 27 154q13 37 28.5 69.5
t31.5 58.5q5 26 13 49zM76 182q-20 -72 -20 -123q-1 -43 13.5 -69t43.5 -29q35 -4 95 24.5t125 100.5q30 34 59.5 78.5t55.5 101.5q25 54 35.5 102t8.5 88q-2 45 -16.5 76.5t-37.5 44.5q-29 17 -68.5 12t-80.5 -28q-33 -20 -62.5 -51t-49.5 -75q-17 -38 -25 -67t-10 -52
q-2 -42 12.5 -62t28.5 -25q11 -5 10 -10t-9 -8q-8 -4 -19 -4.5t-21 3.5q-13 5 -23 18t-17 33q-17 -41 -28 -79zM388 696q-7 -2 -12 4t-8 15t-4 19.5t0 18.5q2 16 13 28.5t25 14.5q15 4 27.5 -10t14.5 -28q0 -7 -6 -16.5t-14.5 -18.5t-18 -16.5t-17.5 -10.5zM514 762
q14 0 27.5 -12.5t11.5 -30.5q-1 -5 -6.5 -14t-14 -18t-17 -16.5t-15.5 -9.5q-14 -3 -22.5 13t-6.5 31q0 7 4.5 17t11 19t14 15t13.5 6z" />
    <glyph glyph-name="multiply" unicode="&#xd7;" horiz-adv-x="296" 
d="M192 398q1 -3 7 -21.5t16 -44.5l16 -40q18 17 36 32.5t35 29.5q24 20 41.5 32t22.5 13q7 1 15.5 -3.5t13.5 -11.5q5 -6 5.5 -12t-6.5 -10q-10 -5 -25.5 -17t-35.5 -28q-20 -17 -41 -35t-41 -34q22 -43 40 -71q10 -15 17 -24.5t10 -11.5q6 -5 4 -10t-8 -10t-13.5 -7
t-11.5 0t-16.5 18.5t-28.5 42.5q-6 11 -13 22t-13 23l-38 -35q-23 -21 -38 -37t-16 -22q-2 -11 -11.5 -9.5t-13.5 6.5q-6 5 -11.5 17t1.5 22q2 2 16 16.5t37 35.5q12 11 26 23t28 25q-5 11 -9.5 21.5t-8.5 20.5q-11 25 -16.5 43.5t-4.5 22.5q0 8 8 16q8 9 17 14t8 -2z" />
    <glyph glyph-name="Oslash" unicode="&#xd8;" horiz-adv-x="474" 
d="M576 618q-5 -3 -16 -16q7 -14 12 -29.5t7 -33.5q6 -42 -2 -90t-26 -98t-45.5 -100.5t-60.5 -98.5q-72 -101 -145 -157t-142 -72q-23 -5 -42 0.5t-33 19.5q-2 -9 -1 -12q4 -27 -10 -25t-24 26q-7 19 -3 41q1 4 2 8.5t4 9.5q-2 5 -3 8.5t-2 8.5q-3 14 -5 34.5t0.5 51.5
t11 73.5t25.5 99.5q9 31 22 62.5t26.5 60.5t28 52.5t26.5 37.5q17 35 40.5 68t52.5 60q31 29 65 47t69 20t66 -6t54 -28q4 4 7.5 7t6.5 5q21 11 32 -3q6 -8 6.5 -18t-4.5 -14zM115 -38q24 -7 65 13t89.5 62.5t99.5 104t93 137.5q21 37 35.5 76t23 76.5t10 71.5t-3.5 61
q-20 -23 -44.5 -53.5t-53 -66.5t-59 -75.5t-61.5 -79.5q-35 -45 -67.5 -90t-60.5 -86t-50 -76.5t-35 -60.5q7 -9 19 -14zM123 223q-14 -46 -24.5 -90t-12.5 -80q32 51 80.5 121t102.5 144q33 45 67 89.5t64.5 83.5t57.5 71.5t47 54.5q-6 7 -12 12q-21 15 -51 12.5t-62 -18.5
q-35 -17 -68.5 -47t-55.5 -67q-7 -11 -13 -21t-11 -21q0 -8 -7 -15q-20 -39 -26 -65q-6 -29 7 -36q12 -7 7 -15q-4 -6 -15 -9.5t-22 1.5q-7 2 -13 10q-9 -23 -19 -51.5t-21 -63.5z" />
    <glyph glyph-name="Ugrave" unicode="&#xd9;" horiz-adv-x="585" 
d="M382 605q-2 -10 -16.5 -36.5t-38 -67.5t-53.5 -97t-63 -124q-28 -58 -51.5 -112t-37 -95t-14.5 -66t15 -26q11 0 32 14t47.5 36.5t56.5 52t59.5 60t55.5 59.5t45 51q41 49 78 99.5t66.5 94t49 75t25.5 41.5q7 13 17.5 11t18.5 -11q6 -8 8.5 -18t-3.5 -21q-7 -11 -19 -28
t-29.5 -44.5t-39.5 -69t-48 -101.5q-22 -50 -33 -92t-14 -73t2 -49.5t16 -20.5q9 -2 22.5 6t29.5 22.5t33 33.5t34 39q26 31 45.5 58.5t26.5 40.5q5 10 10.5 8.5t9.5 -9.5t4 -19t-5 -19q-14 -22 -35 -53.5t-46 -62.5q-28 -35 -57.5 -61t-55.5 -29q-14 -2 -27 5.5t-24 21.5
q-20 27 -25 67q-4 32 3 77t26 86q-32 -38 -65 -75q-28 -32 -61.5 -68.5t-62.5 -65.5q-49 -50 -91.5 -79.5t-61.5 -32.5q-17 -3 -38 11q-14 10 -24 26t-10 36q0 19 4.5 44t16 60.5t32 84t52.5 114.5q34 71 64 126t51.5 94.5t33 65t10.5 37.5q-1 10 11 6.5t23 -12.5
q8 -6 12.5 -12.5t2.5 -13.5zM613 674q5 1 6 -2t-1 -8q-3 -5 -10.5 -10t-20.5 -5q-21 0 -51.5 16.5t-52.5 39.5q-19 20 -33.5 47t-14.5 47q0 8 5.5 14.5t13.5 10.5q11 5 22 3.5t11 -12.5t10.5 -35t32.5 -48q28 -32 50 -45t33 -13z" />
    <glyph glyph-name="Uacute" unicode="&#xda;" horiz-adv-x="585" 
d="M382 605q-2 -10 -16.5 -36.5t-38 -67.5t-53.5 -97t-63 -124q-28 -58 -51.5 -112t-37 -95t-14.5 -66t15 -26q11 0 32 14t47.5 36.5t56.5 52t59.5 60t55.5 59.5t45 51q41 49 78 99.5t66.5 94t49 75t25.5 41.5q7 13 17.5 11t18.5 -11q6 -8 8.5 -18t-3.5 -21q-7 -11 -19 -28
t-29.5 -44.5t-39.5 -69t-48 -101.5q-22 -50 -33 -92t-14 -73t2 -49.5t16 -20.5q9 -2 22.5 6t29.5 22.5t33 33.5t34 39q26 31 45.5 58.5t26.5 40.5q5 10 10.5 8.5t9.5 -9.5t4 -19t-5 -19q-14 -22 -35 -53.5t-46 -62.5q-28 -35 -57.5 -61t-55.5 -29q-14 -2 -27 5.5t-24 21.5
q-20 27 -25 67q-4 32 3 77t26 86q-32 -38 -65 -75q-28 -32 -61.5 -68.5t-62.5 -65.5q-49 -50 -91.5 -79.5t-61.5 -32.5q-17 -3 -38 11q-14 10 -24 26t-10 36q0 19 4.5 44t16 60.5t32 84t52.5 114.5q34 71 64 126t51.5 94.5t33 65t10.5 37.5q-1 10 11 6.5t23 -12.5
q8 -6 12.5 -12.5t2.5 -13.5zM518 632q-2 -7 -8.5 -5.5t-12.5 9.5q-12 14 -11 35q2 18 21 38t46 38q32 23 59.5 32.5t41.5 14.5q8 2 14 -2t10 -9t3.5 -10.5t-8.5 -7.5q-14 -5 -38.5 -17t-50.5 -34q-15 -12 -26 -24.5t-19 -24t-13 -20.5t-8 -13z" />
    <glyph glyph-name="Ucircumflex" unicode="&#xdb;" horiz-adv-x="585" 
d="M382 605q-2 -10 -16.5 -36.5t-38 -67.5t-53.5 -97t-63 -124q-28 -58 -51.5 -112t-37 -95t-14.5 -66t15 -26q11 0 32 14t47.5 36.5t56.5 52t59.5 60t55.5 59.5t45 51q41 49 78 99.5t66.5 94t49 75t25.5 41.5q7 13 17.5 11t18.5 -11q6 -8 8.5 -18t-3.5 -21q-7 -11 -19 -28
t-29.5 -44.5t-39.5 -69t-48 -101.5q-22 -50 -33 -92t-14 -73t2 -49.5t16 -20.5q9 -2 22.5 6t29.5 22.5t33 33.5t34 39q26 31 45.5 58.5t26.5 40.5q5 10 10.5 8.5t9.5 -9.5t4 -19t-5 -19q-14 -22 -35 -53.5t-46 -62.5q-28 -35 -57.5 -61t-55.5 -29q-14 -2 -27 5.5t-24 21.5
q-20 27 -25 67q-4 32 3 77t26 86q-32 -38 -65 -75q-28 -32 -61.5 -68.5t-62.5 -65.5q-49 -50 -91.5 -79.5t-61.5 -32.5q-17 -3 -38 11q-14 10 -24 26t-10 36q0 19 4.5 44t16 60.5t32 84t52.5 114.5q34 71 64 126t51.5 94.5t33 65t10.5 37.5q-1 10 11 6.5t23 -12.5
q8 -6 12.5 -12.5t2.5 -13.5zM435 716q8 0 27.5 11.5t42.5 27.5q23 17 43 33t25 24q5 7 13 5t15 -9q14 -14 14 -28q1 -8 3.5 -23t6.5 -31q5 -17 11.5 -31t14.5 -19q15 -6 4 -17q-5 -5 -14 -8t-14 -1q-11 5 -19.5 19.5t-14.5 31.5q-7 18 -10.5 32.5t-3.5 15.5l-15 -10
q-7 -5 -15.5 -11t-17.5 -13q-20 -14 -38.5 -26.5t-25.5 -16.5q-9 -3 -18 4t-14 17q-5 8 -5 15t5 8z" />
    <glyph glyph-name="Udieresis" unicode="&#xdc;" horiz-adv-x="585" 
d="M382 605q-2 -10 -16.5 -36.5t-38 -67.5t-53.5 -97t-63 -124q-28 -58 -51.5 -112t-37 -95t-14.5 -66t15 -26q11 0 32 14t47.5 36.5t56.5 52t59.5 60t55.5 59.5t45 51q41 49 78 99.5t66.5 94t49 75t25.5 41.5q7 13 17.5 11t18.5 -11q6 -8 8.5 -18t-3.5 -21q-7 -11 -19 -28
t-29.5 -44.5t-39.5 -69t-48 -101.5q-22 -50 -33 -92t-14 -73t2 -49.5t16 -20.5q9 -2 22.5 6t29.5 22.5t33 33.5t34 39q26 31 45.5 58.5t26.5 40.5q5 10 10.5 8.5t9.5 -9.5t4 -19t-5 -19q-14 -22 -35 -53.5t-46 -62.5q-28 -35 -57.5 -61t-55.5 -29q-14 -2 -27 5.5t-24 21.5
q-20 27 -25 67q-4 32 3 77t26 86q-32 -38 -65 -75q-28 -32 -61.5 -68.5t-62.5 -65.5q-49 -50 -91.5 -79.5t-61.5 -32.5q-17 -3 -38 11q-14 10 -24 26t-10 36q0 19 4.5 44t16 60.5t32 84t52.5 114.5q34 71 64 126t51.5 94.5t33 65t10.5 37.5q-1 10 11 6.5t23 -12.5
q8 -6 12.5 -12.5t2.5 -13.5zM488 682q-7 -2 -12 4t-8 15t-4 19.5t0 18.5q2 16 13 28.5t25 14.5q15 4 27.5 -10t14.5 -28q0 -7 -6 -16.5t-14.5 -18.5t-18 -16.5t-17.5 -10.5zM614 748q14 0 27.5 -12.5t11.5 -30.5q-1 -5 -6.5 -14t-14 -18t-17 -16.5t-15.5 -9.5
q-14 -3 -22.5 13t-6.5 31q0 7 4.5 17t11 19t14 15t13.5 6z" />
    <glyph glyph-name="Yacute" unicode="&#xdd;" horiz-adv-x="463" 
d="M273 545q1 -7 -8 -32t-25 -61.5t-37.5 -81t-45.5 -90.5q-32 -62 -58.5 -114.5t-44 -92.5t-23.5 -64.5t2 -30.5q12 -9 42 12t69 56.5t82 79.5t80 82q46 46 84 86.5t67 72.5t47.5 55.5t25.5 35.5q4 7 11 8.5t14.5 -2t14.5 -10t11 -15.5q5 -11 4.5 -22.5t-10.5 -21.5
q-16 -14 -46.5 -63t-70.5 -119q-28 -50 -59.5 -106t-63.5 -116q-22 -41 -40 -78.5t-32 -69.5q-22 -51 -33 -85t-11 -39t4 -6.5t8.5 -2t9 -1.5t6.5 -5q1 -4 -5 -9.5t-16 -9.5q-11 -5 -24 -4.5t-21 12.5q-8 13 -3 48t34 105q12 29 28.5 65t38.5 80q31 61 61.5 116.5t54.5 97.5
q28 49 53 91q-40 -47 -78 -89q-16 -18 -33.5 -37t-34.5 -37t-32.5 -34t-27.5 -27q-32 -29 -60 -54t-51 -44t-42 -29.5t-34 -10.5q-28 2 -44 18q-17 16 -22 41t0 49q5 22 20 53.5t35 69.5t43 81t44 89q48 100 72 163t13 86q-3 5 0.5 7.5t10 2t14.5 -4t15 -10.5
q6 -6 10.5 -14.5t6.5 -19.5zM444 584q-2 -7 -8.5 -5.5t-12.5 9.5q-12 14 -11 35q2 18 21 38t46 38q32 23 59.5 32.5t41.5 14.5q8 2 14 -2t10 -9t3.5 -10.5t-8.5 -7.5q-14 -5 -38.5 -17t-50.5 -34q-15 -12 -26 -24.5t-19 -24t-13 -20.5t-8 -13z" />
    <glyph glyph-name="Thorn" unicode="&#xde;" horiz-adv-x="477" 
d="M-3 387q8 8 40 28t87 38q26 9 58 16t69 11l32 78q10 25 16 41.5t8 22.5q3 11 11 8t15 -13q6 -9 9.5 -19.5t0.5 -18.5l-17 -40l-23 -56q35 2 69 0t67 -10q63 -14 94.5 -43t34.5 -64q3 -34 -15.5 -69.5t-50.5 -69.5q-30 -32 -67.5 -61t-73.5 -52q-30 -19 -60 -33.5t-57 -25
t-48 -16t-32 -5.5q-9 0 -18 6q-11 7 -15 18q-11 -29 -19.5 -55.5t-16.5 -49.5q-9 -29 -14.5 -49.5t-5.5 -28.5q0 -13 -7.5 -14.5t-15.5 4.5q-8 5 -14 16.5t-6 25.5q1 14 11 44.5t24 70.5q17 48 37.5 99.5t37.5 93.5l58 140l31 76q-27 -5 -53.5 -13t-49.5 -17
q-41 -15 -68.5 -31t-32.5 -26q-5 -8 -12.5 -5t-13.5 12q-6 8 -8.5 19t4.5 17zM204 241q-16 -39 -26.5 -65t-18 -44t-12.5 -30.5t-9 -23.5q1 0 1.5 0.5t1.5 0.5q10 1 27.5 4.5t43 12.5t60.5 26t80 45q40 25 73.5 54t57 58t35.5 55t9 46q-5 26 -40 40t-84 19q-57 6 -118 0z
" />
    <glyph glyph-name="germandbls" unicode="&#xdf;" horiz-adv-x="368" 
d="M12 -9q0 3 11.5 31t29.5 71t41 97.5t47 110.5q23 54 45.5 106.5t40 95t28.5 71t12 34.5q2 10 8 11.5t12.5 -3t11 -14t2.5 -22.5q-2 -8 -13.5 -37t-30.5 -74l-67 -159q26 39 54 81.5t56 78.5q29 38 55 62t48 25q16 1 27 -6.5t19 -18.5q8 -13 11 -27.5t-1 -25.5
q-8 -28 -28 -61t-43 -65q-14 -20 -27 -37t-24 -30q-12 -15 -23 -28q16 1 31 -3q13 -3 25.5 -12t20.5 -27q8 -21 5.5 -43.5t-12 -43.5t-24 -40.5t-30.5 -34.5q-30 -31 -63 -47.5t-72 -18.5q-23 0 -41 10q-12 7 -17 15.5t-1 12.5q3 3 7.5 1.5t11 -3.5t15 -3.5t20.5 1.5
q21 7 50 22t60 47q16 17 29 35t20.5 34t10 29.5t-0.5 22.5q-5 12 -17 14.5t-26 -1t-28.5 -11t-24.5 -15.5q-11 -8 -20 -4.5t-14 12.5q-5 8 -5 17.5t7 14.5q10 8 26 24.5t34 38t37 46t36 49.5q15 22 28 42.5t22 37t12 28t-1 14.5q-5 4 -16 -3.5t-26 -23t-33 -37.5t-36 -46
q-28 -37 -54 -73.5t-44 -61.5q-12 -17 -33 -52.5t-44 -76.5q-21 -37 -41 -73t-34 -61q-8 -18 -12.5 -30t-4.5 -14q-1 -8 -7 -7.5t-13 6.5q-6 5 -10.5 11.5t-4.5 13.5z" />
    <glyph glyph-name="agrave" unicode="&#xe0;" 
d="M222 336q21 4 46 -9.5t39 -41.5l17 22q5 7 11.5 7t12.5 -5q10 -7 15.5 -19.5t0.5 -20.5q-14 -20 -31.5 -57t-30.5 -74q-13 -38 -16 -67t12 -33q7 -2 17.5 4.5t23 18.5t27 27.5t28.5 33.5q16 19 31 39t27.5 37.5t20.5 30.5t11 18q5 9 11 6.5t10 -10.5q3 -6 3.5 -14
t-2.5 -14q-7 -14 -26.5 -44.5t-43.5 -62.5q-17 -23 -33.5 -42.5t-30.5 -31.5q-29 -26 -58.5 -31.5t-52.5 20.5q-20 23 -18 64q2 42 22 81q-14 -20 -34 -44.5t-42.5 -48.5t-45.5 -45.5t-43 -35.5q-17 -12 -30.5 -10.5t-23.5 11.5q-13 13 -19 33t-1 36q8 29 27.5 70.5
t45.5 83.5q14 22 29.5 42.5t31 36t31.5 26t31 13.5zM62 25q4 -3 15.5 4.5t27.5 23t36 37t42 46.5q26 30 52.5 61.5t49.5 60.5q-8 12 -18.5 24.5t-19.5 13.5q-11 1 -23 -7t-25.5 -21.5t-27.5 -31.5t-27 -38q-18 -28 -34.5 -58t-28 -54.5t-17 -41.5t-2.5 -19zM384 398
q5 1 6 -2t-1 -8q-3 -5 -10.5 -10t-20.5 -5q-21 0 -51.5 16.5t-52.5 39.5q-19 20 -33.5 47t-14.5 47q0 8 5.5 14.5t13.5 10.5q11 5 22 3.5t11 -12.5t10.5 -35t32.5 -48q28 -32 50 -45t33 -13z" />
    <glyph glyph-name="aacute" unicode="&#xe1;" 
d="M222 336q21 4 46 -9.5t39 -41.5l17 22q5 7 11.5 7t12.5 -5q10 -7 15.5 -19.5t0.5 -20.5q-14 -20 -31.5 -57t-30.5 -74q-13 -38 -16 -67t12 -33q7 -2 17.5 4.5t23 18.5t27 27.5t28.5 33.5q16 19 31 39t27.5 37.5t20.5 30.5t11 18q5 9 11 6.5t10 -10.5q3 -6 3.5 -14
t-2.5 -14q-7 -14 -26.5 -44.5t-43.5 -62.5q-17 -23 -33.5 -42.5t-30.5 -31.5q-29 -26 -58.5 -31.5t-52.5 20.5q-20 23 -18 64q2 42 22 81q-14 -20 -34 -44.5t-42.5 -48.5t-45.5 -45.5t-43 -35.5q-17 -12 -30.5 -10.5t-23.5 11.5q-13 13 -19 33t-1 36q8 29 27.5 70.5
t45.5 83.5q14 22 29.5 42.5t31 36t31.5 26t31 13.5zM62 25q4 -3 15.5 4.5t27.5 23t36 37t42 46.5q26 30 52.5 61.5t49.5 60.5q-8 12 -18.5 24.5t-19.5 13.5q-11 1 -23 -7t-25.5 -21.5t-27.5 -31.5t-27 -38q-18 -28 -34.5 -58t-28 -54.5t-17 -41.5t-2.5 -19zM312 369
q-2 -7 -8.5 -5.5t-12.5 9.5q-12 14 -11 35q2 18 21 38t46 38q32 23 59.5 32.5t41.5 14.5q8 2 14 -2t10 -9t3.5 -10.5t-8.5 -7.5q-14 -5 -38.5 -17t-50.5 -34q-15 -12 -26 -24.5t-19 -24t-13 -20.5t-8 -13z" />
    <glyph glyph-name="acircumflex" unicode="&#xe2;" 
d="M222 336q21 4 46 -9.5t39 -41.5l17 22q5 7 11.5 7t12.5 -5q10 -7 15.5 -19.5t0.5 -20.5q-14 -20 -31.5 -57t-30.5 -74q-13 -38 -16 -67t12 -33q7 -2 17.5 4.5t23 18.5t27 27.5t28.5 33.5q16 19 31 39t27.5 37.5t20.5 30.5t11 18q5 9 11 6.5t10 -10.5q3 -6 3.5 -14
t-2.5 -14q-7 -14 -26.5 -44.5t-43.5 -62.5q-17 -23 -33.5 -42.5t-30.5 -31.5q-29 -26 -58.5 -31.5t-52.5 20.5q-20 23 -18 64q2 42 22 81q-14 -20 -34 -44.5t-42.5 -48.5t-45.5 -45.5t-43 -35.5q-17 -12 -30.5 -10.5t-23.5 11.5q-13 13 -19 33t-1 36q8 29 27.5 70.5
t45.5 83.5q14 22 29.5 42.5t31 36t31.5 26t31 13.5zM62 25q4 -3 15.5 4.5t27.5 23t36 37t42 46.5q26 30 52.5 61.5t49.5 60.5q-8 12 -18.5 24.5t-19.5 13.5q-11 1 -23 -7t-25.5 -21.5t-27.5 -31.5t-27 -38q-18 -28 -34.5 -58t-28 -54.5t-17 -41.5t-2.5 -19zM221 427
q8 0 27.5 11.5t42.5 27.5q23 17 43 33t25 24q5 7 13 5t15 -9q6 -6 10 -13.5t4 -14.5q1 -8 3.5 -23t6.5 -31q5 -17 11.5 -31t14.5 -19q15 -6 4 -17q-5 -5 -14 -8t-14 -1q-11 5 -19.5 19.5t-14.5 31.5q-7 18 -10.5 32.5t-3.5 15.5l-15 -10q-7 -5 -15.5 -11t-17.5 -13
q-20 -14 -38.5 -26.5t-25.5 -16.5q-9 -3 -18 4t-14 17q-5 8 -5 15t5 8z" />
    <glyph glyph-name="atilde" unicode="&#xe3;" 
d="M222 336q21 4 46 -9.5t39 -41.5l17 22q5 7 11.5 7t12.5 -5q10 -7 15.5 -19.5t0.5 -20.5q-14 -20 -31.5 -57t-30.5 -74q-13 -38 -16 -67t12 -33q7 -2 17.5 4.5t23 18.5t27 27.5t28.5 33.5q16 19 31 39t27.5 37.5t20.5 30.5t11 18q5 9 11 6.5t10 -10.5q3 -6 3.5 -14
t-2.5 -14q-7 -14 -26.5 -44.5t-43.5 -62.5q-17 -23 -33.5 -42.5t-30.5 -31.5q-29 -26 -58.5 -31.5t-52.5 20.5q-20 23 -18 64q2 42 22 81q-14 -20 -34 -44.5t-42.5 -48.5t-45.5 -45.5t-43 -35.5q-17 -12 -30.5 -10.5t-23.5 11.5q-13 13 -19 33t-1 36q8 29 27.5 70.5
t45.5 83.5q14 22 29.5 42.5t31 36t31.5 26t31 13.5zM62 25q4 -3 15.5 4.5t27.5 23t36 37t42 46.5q26 30 52.5 61.5t49.5 60.5q-8 12 -18.5 24.5t-19.5 13.5q-11 1 -23 -7t-25.5 -21.5t-27.5 -31.5t-27 -38q-18 -28 -34.5 -58t-28 -54.5t-17 -41.5t-2.5 -19zM217 431
q5 7 15.5 16.5t24.5 16.5q10 5 20.5 7t21.5 0q13 -2 19.5 -9.5t11.5 -16.5q5 -8 10.5 -16t16.5 -11q11 -2 21 2t18 12q12 12 10 22q0 5 3 4t7 -5q2 -2 3 -4.5t3 -4.5q2 -12 -0.5 -28t-16.5 -30q-7 -7 -16 -10t-18 -5q-21 -3 -35 6q-9 6 -14.5 13.5t-10 14.5t-8.5 12t-10 6
q-10 1 -23 -5q-10 -5 -19 -14t-14 -18q-4 -7 -10 -2.5t-10 13.5q-4 8 -4.5 17t4.5 17z" />
    <glyph glyph-name="adieresis" unicode="&#xe4;" 
d="M222 336q21 4 46 -9.5t39 -41.5l17 22q5 7 11.5 7t12.5 -5q10 -7 15.5 -19.5t0.5 -20.5q-14 -20 -31.5 -57t-30.5 -74q-13 -38 -16 -67t12 -33q7 -2 17.5 4.5t23 18.5t27 27.5t28.5 33.5q16 19 31 39t27.5 37.5t20.5 30.5t11 18q5 9 11 6.5t10 -10.5q3 -6 3.5 -14
t-2.5 -14q-7 -14 -26.5 -44.5t-43.5 -62.5q-17 -23 -33.5 -42.5t-30.5 -31.5q-29 -26 -58.5 -31.5t-52.5 20.5q-20 23 -18 64q2 42 22 81q-14 -20 -34 -44.5t-42.5 -48.5t-45.5 -45.5t-43 -35.5q-17 -12 -30.5 -10.5t-23.5 11.5q-13 13 -19 33t-1 36q8 29 27.5 70.5
t45.5 83.5q14 22 29.5 42.5t31 36t31.5 26t31 13.5zM62 25q4 -3 15.5 4.5t27.5 23t36 37t42 46.5q26 30 52.5 61.5t49.5 60.5q-8 12 -18.5 24.5t-19.5 13.5q-11 1 -23 -7t-25.5 -21.5t-27.5 -31.5t-27 -38q-18 -28 -34.5 -58t-28 -54.5t-17 -41.5t-2.5 -19zM262 401
q-7 -2 -12 4t-8 15t-4 19.5t0 18.5q2 16 13 28.5t25 14.5q15 4 27.5 -10t14.5 -28q0 -7 -6 -16.5t-14.5 -18.5t-18 -16.5t-17.5 -10.5zM388 467q14 0 27.5 -12.5t11.5 -30.5q-1 -5 -6.5 -14t-14 -18t-17 -16.5t-15.5 -9.5q-14 -3 -22.5 13t-6.5 31q0 7 4.5 17t11 19t14 15
t13.5 6z" />
    <glyph glyph-name="aring" unicode="&#xe5;" 
d="M222 336q21 4 46 -9.5t39 -41.5l17 22q5 7 11.5 7t12.5 -5q10 -7 15.5 -19.5t0.5 -20.5q-14 -20 -31.5 -57t-30.5 -74q-13 -38 -16 -67t12 -33q7 -2 17.5 4.5t23 18.5t27 27.5t28.5 33.5q16 19 31 39t27.5 37.5t20.5 30.5t11 18q5 9 11 6.5t10 -10.5q3 -6 3.5 -14
t-2.5 -14q-7 -14 -26.5 -44.5t-43.5 -62.5q-17 -23 -33.5 -42.5t-30.5 -31.5q-29 -26 -58.5 -31.5t-52.5 20.5q-20 23 -18 64q2 42 22 81q-14 -20 -34 -44.5t-42.5 -48.5t-45.5 -45.5t-43 -35.5q-17 -12 -30.5 -10.5t-23.5 11.5q-13 13 -19 33t-1 36q8 29 27.5 70.5
t45.5 83.5q14 22 29.5 42.5t31 36t31.5 26t31 13.5zM62 25q4 -3 15.5 4.5t27.5 23t36 37t42 46.5q26 30 52.5 61.5t49.5 60.5q-8 12 -18.5 24.5t-19.5 13.5q-11 1 -23 -7t-25.5 -21.5t-27.5 -31.5t-27 -38q-18 -28 -34.5 -58t-28 -54.5t-17 -41.5t-2.5 -19zM282 446
q13 19 26 29.5t25 16t22 6t15 -0.5q14 0 24.5 -10t15.5 -26t4.5 -35t-8.5 -37q-20 -29 -51.5 -41t-54.5 -4q-12 5 -18.5 17.5t-8.5 28t0.5 31t8.5 25.5zM311 393q3 -5 11.5 -6t18 1t19 7.5t14.5 12.5q8 11 6 24.5t-13 17.5l-1 -1q-1 0 -3 2h-5q-3 0 -4 3q-5 0 -17 -6
q-7 -4 -14 -11.5t-11 -15.5t-5 -16t4 -12z" />
    <glyph glyph-name="ae" unicode="&#xe6;" horiz-adv-x="446" 
d="M302 117q-6 -2 -9 2.5t-3 11.5q-8 -23 -11 -44.5t-0.5 -38t10 -26.5t21.5 -11q29 -2 66 22.5t73 60.5q21 20 40 42t35 42.5t28 38.5t18 30q4 8 9 7.5t10 -5.5q4 -5 5.5 -12.5t-0.5 -14.5q-10 -26 -37 -67.5t-64 -81.5q-36 -39 -77 -67.5t-80 -31.5q-37 -2 -65 20.5
t-36 63.5q-7 -17 -12.5 -33.5t-10.5 -33.5q-2 -7 -7.5 -9t-11.5 0q-14 3 -17 20q-2 7 3.5 22.5t14.5 35.5q12 26 26.5 52.5t22.5 42.5q-17 -24 -40.5 -53.5t-49.5 -56.5q-18 -19 -36.5 -34.5t-34.5 -24.5q-14 -8 -27.5 -3.5t-22.5 15.5q-10 12 -14 28t0 30q6 24 27.5 64.5
t48.5 84.5q16 25 32.5 48t32.5 41t30 29.5t24 14.5q23 5 45.5 -12.5t39.5 -45.5l8 -14q23 27 45 42t45 21q19 5 35 2t26.5 -12t15 -22t1.5 -29q-5 -25 -25.5 -49t-46.5 -44q-16 -12 -32 -22.5t-29.5 -18t-24 -12t-14.5 -5.5zM55 20q5 -3 28 19.5t55 57.5t68 77.5t68 80.5
q-5 11 -15 25.5t-21 16.5q-6 1 -18.5 -9.5t-28 -28t-32.5 -40t-33 -46.5q-17 -25 -31.5 -51.5t-24.5 -48.5t-14.5 -36.5t-0.5 -16.5zM435 293q-5 10 -24 -0.5t-42 -34.5q-17 -18 -34.5 -42t-30.5 -51l2 1q16 5 38 20t42 33q23 21 39 41.5t10 32.5z" />
    <glyph glyph-name="ccedilla" unicode="&#xe7;" horiz-adv-x="241" 
d="M85 -29q-5 -5 -14 -10t-18 -11t-15.5 -13t-7.5 -15q0 -5 5 -15t12 -22q8 -16 15.5 -34t4.5 -35q-3 -21 -22 -40.5t-42 -36.5q-24 -17 -46.5 -28t-30.5 -13q-6 -2 -12 3t-10 12t-3 13.5t9 8.5q9 2 29.5 14.5t39.5 29.5q14 13 23.5 26.5t11.5 26.5q2 11 -5.5 23.5
t-14.5 26.5q-5 11 -8.5 23.5t1.5 27.5q4 13 17 25t28 22q15 11 29 18l-2 2q-11 15 -16.5 35.5t-3.5 42.5q2 23 14 53.5t32 61.5q13 21 29.5 41.5t33.5 36.5t35 27.5t36 14.5q11 2 23 -2.5t22 -14.5q11 -11 17.5 -25.5t4.5 -29.5q-2 -14 -14.5 -32.5t-23.5 -26.5
q-12 -8 -23 1q-5 5 -7 11.5t3 14.5q4 7 10.5 17.5t11.5 20t7 17.5t-2 11q-11 7 -26 0t-32 -23.5t-34.5 -40t-32.5 -49.5q-23 -42 -35.5 -82t-4.5 -62q7 -18 25.5 -18t43 14t54 39.5t58.5 57.5q28 31 53.5 65t45.5 69q5 9 11 9.5t11 -4.5q6 -6 8.5 -16t-2.5 -18
q-13 -21 -37.5 -58.5t-57.5 -75.5q-32 -38 -70 -69t-79 -41q-34 -7 -58 3q-1 -1 -1.5 -2t-2.5 -2z" />
    <glyph glyph-name="egrave" unicode="&#xe8;" horiz-adv-x="263" 
d="M290 268q-5 -24 -30 -54.5t-57 -59.5q-30 -27 -60 -49.5t-50 -33.5q-1 -26 7.5 -42.5t25.5 -17.5q16 -1 36 7.5t41 23.5t43 34.5t42 41.5q34 37 60.5 72.5t37.5 56.5q5 9 11 8t10 -8q7 -13 3 -25q-10 -26 -36 -66.5t-62 -79.5q-36 -40 -78 -69.5t-82 -32.5q-49 -3 -79 35
q-22 28 -24.5 73.5t23.5 101.5q32 69 68.5 102.5t71.5 42.5q21 5 37.5 1.5t27.5 -14.5q19 -19 13 -48zM117 159q-5 -10 -8.5 -19t-5.5 -18q22 16 48 39.5t49 48.5q25 27 40.5 50.5t10.5 32.5q-5 10 -25 -3t-44 -38q-18 -20 -35.5 -44t-29.5 -49zM361 380q5 1 6 -2t-1 -8
q-3 -5 -10.5 -10t-20.5 -5q-21 0 -51.5 16.5t-52.5 39.5q-19 20 -33.5 47t-14.5 47q0 8 5.5 14.5t13.5 10.5q11 5 22 3.5t11 -12.5t10.5 -35t32.5 -48q28 -32 50 -45t33 -13z" />
    <glyph glyph-name="eacute" unicode="&#xe9;" horiz-adv-x="263" 
d="M290 268q-5 -24 -30 -54.5t-57 -59.5q-30 -27 -60 -49.5t-50 -33.5q-1 -26 7.5 -42.5t25.5 -17.5q16 -1 36 7.5t41 23.5t43 34.5t42 41.5q34 37 60.5 72.5t37.5 56.5q5 9 11 8t10 -8q7 -13 3 -25q-10 -26 -36 -66.5t-62 -79.5q-36 -40 -78 -69.5t-82 -32.5q-49 -3 -79 35
q-22 28 -24.5 73.5t23.5 101.5q32 69 68.5 102.5t71.5 42.5q21 5 37.5 1.5t27.5 -14.5q19 -19 13 -48zM117 159q-5 -10 -8.5 -19t-5.5 -18q22 16 48 39.5t49 48.5q25 27 40.5 50.5t10.5 32.5q-5 10 -25 -3t-44 -38q-18 -20 -35.5 -44t-29.5 -49zM253 371q-2 -7 -8.5 -5.5
t-12.5 9.5q-12 14 -11 35q2 18 21 38t46 38q32 23 59.5 32.5t41.5 14.5q8 2 14 -2t10 -9t3.5 -10.5t-8.5 -7.5q-14 -5 -38.5 -17t-50.5 -34q-15 -12 -26 -24.5t-19 -24t-13 -20.5t-8 -13z" />
    <glyph glyph-name="ecircumflex" unicode="&#xea;" horiz-adv-x="263" 
d="M290 268q-5 -24 -30 -54.5t-57 -59.5q-30 -27 -60 -49.5t-50 -33.5q-1 -26 7.5 -42.5t25.5 -17.5q16 -1 36 7.5t41 23.5t43 34.5t42 41.5q34 37 60.5 72.5t37.5 56.5q5 9 11 8t10 -8q7 -13 3 -25q-10 -26 -36 -66.5t-62 -79.5q-36 -40 -78 -69.5t-82 -32.5q-49 -3 -79 35
q-22 28 -24.5 73.5t23.5 101.5q32 69 68.5 102.5t71.5 42.5q21 5 37.5 1.5t27.5 -14.5q19 -19 13 -48zM117 159q-5 -10 -8.5 -19t-5.5 -18q22 16 48 39.5t49 48.5q25 27 40.5 50.5t10.5 32.5q-5 10 -25 -3t-44 -38q-18 -20 -35.5 -44t-29.5 -49zM149 420q8 0 27.5 11.5
t42.5 27.5q23 17 43 33t25 24q5 7 13 5t15 -9q6 -6 10 -13.5t4 -14.5q1 -8 3.5 -23t6.5 -31q5 -17 11.5 -31t14.5 -19q15 -6 4 -17q-5 -5 -14 -8t-14 -1q-11 5 -19.5 19.5t-14.5 31.5q-7 18 -10.5 32.5t-3.5 15.5l-15 -10q-7 -5 -15.5 -11t-17.5 -13q-20 -14 -38.5 -26.5
t-25.5 -16.5q-9 -3 -18 4t-14 17q-5 8 -5 15t5 8z" />
    <glyph glyph-name="edieresis" unicode="&#xeb;" horiz-adv-x="263" 
d="M290 268q-5 -24 -30 -54.5t-57 -59.5q-30 -27 -60 -49.5t-50 -33.5q-1 -26 7.5 -42.5t25.5 -17.5q16 -1 36 7.5t41 23.5t43 34.5t42 41.5q34 37 60.5 72.5t37.5 56.5q5 9 11 8t10 -8q7 -13 3 -25q-10 -26 -36 -66.5t-62 -79.5q-36 -40 -78 -69.5t-82 -32.5q-49 -3 -79 35
q-22 28 -24.5 73.5t23.5 101.5q32 69 68.5 102.5t71.5 42.5q21 5 37.5 1.5t27.5 -14.5q19 -19 13 -48zM117 159q-5 -10 -8.5 -19t-5.5 -18q22 16 48 39.5t49 48.5q25 27 40.5 50.5t10.5 32.5q-5 10 -25 -3t-44 -38q-18 -20 -35.5 -44t-29.5 -49zM220 388q-7 -2 -12 4t-8 15
t-4 19.5t0 18.5q2 16 13 28.5t25 14.5q15 4 27.5 -10t14.5 -28q0 -7 -6 -16.5t-14.5 -18.5t-18 -16.5t-17.5 -10.5zM346 454q14 0 27.5 -12.5t11.5 -30.5q-1 -5 -6.5 -14t-14 -18t-17 -16.5t-15.5 -9.5q-14 -3 -22.5 13t-6.5 31q0 7 4.5 17t11 19t14 15t13.5 6z" />
    <glyph glyph-name="igrave" unicode="&#xec;" horiz-adv-x="188" 
d="M192 280q-3 -5 -8.5 -16.5t-12 -27t-14.5 -34.5t-15 -38q-8 -21 -14.5 -41.5t-10 -37.5t-2.5 -29t7 -15q7 -4 19 2.5t26.5 20t31 32.5t32.5 39q29 36 51.5 68.5t27.5 43.5q4 8 10 6.5t11 -8.5q8 -11 2 -27q-6 -14 -27.5 -48t-49.5 -70q-27 -35 -56 -63t-52 -32
q-16 -2 -29.5 3t-23.5 16q-14 16 -20 40t-1 50q4 20 11 40.5t15 40.5q16 40 32.5 73t21.5 46q3 8 10 8.5t15 -4.5t13 -15.5t0 -22.5zM309 385q5 1 6 -2t-1 -8q-3 -5 -10.5 -10t-20.5 -5q-21 0 -51.5 16.5t-52.5 39.5q-19 20 -33.5 47t-14.5 47q0 8 5.5 14.5t13.5 10.5
q11 5 22 3.5t11 -12.5t10.5 -35t32.5 -48q28 -32 50 -45t33 -13z" />
    <glyph glyph-name="iacute" unicode="&#xed;" horiz-adv-x="188" 
d="M192 280q-3 -5 -8.5 -16.5t-12 -27t-14.5 -34.5t-15 -38q-8 -21 -14.5 -41.5t-10 -37.5t-2.5 -29t7 -15q7 -4 19 2.5t26.5 20t31 32.5t32.5 39q29 36 51.5 68.5t27.5 43.5q4 8 10 6.5t11 -8.5q8 -11 2 -27q-6 -14 -27.5 -48t-49.5 -70q-27 -35 -56 -63t-52 -32
q-16 -2 -29.5 3t-23.5 16q-14 16 -20 40t-1 50q4 20 11 40.5t15 40.5q16 40 32.5 73t21.5 46q3 8 10 8.5t15 -4.5t13 -15.5t0 -22.5zM212 364q-2 -7 -8.5 -5.5t-12.5 9.5q-12 14 -11 35q2 18 21 38t46 38q32 23 59.5 32.5t41.5 14.5q8 2 14 -2t10 -9t3.5 -10.5t-8.5 -7.5
q-14 -5 -38.5 -17t-50.5 -34q-15 -12 -26 -24.5t-19 -24t-13 -20.5t-8 -13z" />
    <glyph glyph-name="icircumflex" unicode="&#xee;" horiz-adv-x="188" 
d="M192 280q-3 -5 -8.5 -16.5t-12 -27t-14.5 -34.5t-15 -38q-8 -21 -14.5 -41.5t-10 -37.5t-2.5 -29t7 -15q7 -4 19 2.5t26.5 20t31 32.5t32.5 39q29 36 51.5 68.5t27.5 43.5q4 8 10 6.5t11 -8.5q8 -11 2 -27q-6 -14 -27.5 -48t-49.5 -70q-27 -35 -56 -63t-52 -32
q-16 -2 -29.5 3t-23.5 16q-14 16 -20 40t-1 50q4 20 11 40.5t15 40.5q16 40 32.5 73t21.5 46q3 8 10 8.5t15 -4.5t13 -15.5t0 -22.5zM94 415q8 0 27.5 11.5t42.5 27.5q23 17 43 33t25 24q5 7 13 5t15 -9q6 -6 10 -13.5t4 -14.5q1 -8 3.5 -23t6.5 -31q5 -17 11.5 -31
t14.5 -19q15 -6 4 -17q-5 -5 -14 -8t-14 -1q-11 5 -19.5 19.5t-14.5 31.5q-7 18 -10.5 32.5t-3.5 15.5l-15 -10q-7 -5 -15.5 -11t-17.5 -13q-20 -14 -38.5 -26.5t-25.5 -16.5q-9 -3 -18 4t-14 17q-5 8 -5 15t5 8z" />
    <glyph glyph-name="idieresis" unicode="&#xef;" horiz-adv-x="188" 
d="M192 280q-3 -5 -8.5 -16.5t-12 -27t-14.5 -34.5t-15 -38q-8 -21 -14.5 -41.5t-10 -37.5t-2.5 -29t7 -15q7 -4 19 2.5t26.5 20t31 32.5t32.5 39q29 36 51.5 68.5t27.5 43.5q4 8 10 6.5t11 -8.5q8 -11 2 -27q-6 -14 -27.5 -48t-49.5 -70q-27 -35 -56 -63t-52 -32
q-16 -2 -29.5 3t-23.5 16q-14 16 -20 40t-1 50q4 20 11 40.5t15 40.5q16 40 32.5 73t21.5 46q3 8 10 8.5t15 -4.5t13 -15.5t0 -22.5zM151 392q-7 -2 -12 4t-8 15t-4 19.5t0 18.5q2 16 13 28.5t25 14.5q15 4 27.5 -10t14.5 -28q0 -7 -6 -16.5t-14.5 -18.5t-18 -16.5
t-17.5 -10.5zM277 458q14 0 27.5 -12.5t11.5 -30.5q-1 -5 -6.5 -14t-14 -18t-17 -16.5t-15.5 -9.5q-14 -3 -22.5 13t-6.5 31q0 7 4.5 17t11 19t14 15t13.5 6z" />
    <glyph glyph-name="eth" unicode="&#xf0;" horiz-adv-x="266" 
d="M229 466q4 1 14.5 6t25.5 13l47 22q-2 30 -8 50.5t-12 28.5t0 12.5t18 0.5q5 -2 11 -5t12 -9q5 -5 10.5 -20.5t8.5 -39.5q17 7 30 11t20 2q9 -2 15 -13q4 -7 3 -13t-9 -7q-7 -1 -21.5 -6.5t-33.5 -13.5q1 -35 -4.5 -78t-20.5 -93q-22 -69 -50.5 -124t-58.5 -97
q-35 -48 -65.5 -75t-48.5 -34q-17 -6 -32.5 0.5t-28.5 20.5q-14 16 -22 36.5t-4 37.5q2 13 17 43t35 65q14 24 30 47.5t31.5 42.5t30.5 31.5t27 14.5q23 4 42.5 -10t33.5 -34q4 11 8 21.5t8 21.5q14 42 20 77.5t8 65.5q-11 -5 -21 -9.5t-19 -8.5q-24 -10 -31 -11t-12 3.5
t-8 9.5t-2 10t6 7zM213 281q-6 -1 -16 -10.5t-22 -25t-25 -35.5t-25 -41q-14 -24 -26 -48.5t-19.5 -44.5t-9 -34t6.5 -18q8 -5 38.5 20t68.5 75q19 26 38 57t36 69q-6 15 -17 27.5t-28 8.5z" />
    <glyph glyph-name="ntilde" unicode="&#xf1;" horiz-adv-x="381" 
d="M183 271q-5 -11 -16 -32.5t-23 -47.5q-13 -26 -24 -53t-19 -49q6 9 18 25t28 36t35 43t39 44q29 31 57 54.5t48 28.5q10 2 20 -3t18 -16q10 -14 13.5 -31t-4.5 -31q-7 -12 -21 -41t-26 -61q-13 -34 -18 -62t8 -35q6 -3 17 3t24.5 18t29 28.5t30.5 35.5q30 36 55 71t33 51
q3 6 9 6t11 -5t6 -13.5t-4 -19.5q-8 -17 -28.5 -49t-46.5 -65q-23 -29 -47.5 -54t-45.5 -38q-23 -14 -41.5 -9t-31.5 21q-12 15 -17.5 36.5t-1.5 42.5q5 29 15.5 54t21.5 46q17 31 28.5 51t6.5 26q-4 5 -15.5 -1.5t-27.5 -21.5t-35.5 -35.5t-40.5 -44.5q-25 -28 -49 -57.5
t-44 -55t-34 -44.5t-17 -26q-5 -9 -22 5q-10 8 -17 20t-3 26q5 16 20 52t33 77q20 44 38 81t26 49q3 5 9 4.5t11 -5.5q7 -5 11 -13.5t1 -15.5zM200 421q5 7 15.5 16.5t24.5 16.5q10 5 20.5 7t21.5 0q13 -2 19.5 -9.5t11.5 -16.5q5 -8 10.5 -16t16.5 -11q11 -2 21 2t18 12
q12 12 10 22q0 5 3 4t7 -5q2 -2 3 -4.5t3 -4.5q2 -12 -0.5 -28t-16.5 -30q-7 -7 -16 -10t-18 -5q-21 -3 -35 6q-9 6 -14.5 13.5t-10 14.5t-8.5 12t-10 6q-10 1 -23 -5q-10 -5 -19 -14t-14 -18q-4 -7 -10 -2.5t-10 13.5q-4 8 -4.5 17t4.5 17z" />
    <glyph glyph-name="ograve" unicode="&#xf2;" horiz-adv-x="285" 
d="M335 283q2 -19 -4.5 -40.5t-17.5 -44.5q-10 -20 -23 -40t-28 -39q20 3 42 15.5t45 35.5q14 14 27.5 32.5t27.5 41.5q8 12 14.5 10t9.5 -12q5 -16 -2 -31q-32 -56 -71 -90q-64 -57 -128 -43q-12 -13 -23.5 -24.5t-22.5 -21.5q-34 -29 -53 -34q-16 -4 -29 -1t-24 11
q-14 10 -21.5 25t-7.5 30q1 35 18 78t40 81q22 38 44 65t35 34q11 5 19 2t13 -10q21 19 45 27t43 0q29 -11 32 -57zM294 291q-3 16 -12 19t-19.5 -3t-22 -17.5t-19.5 -23.5q-13 -19 -22 -41t-12 -42q-2 -17 1.5 -31.5t16.5 -22.5q2 -2 3 -2q29 33 50 67q19 29 29 54.5
t7 42.5zM92 32q7 -4 23 5.5t36 28.5q15 14 32 32q-18 13 -27 32q-11 21 -9 46q0 6 0.5 12t1.5 11q-14 -23 -26.5 -46.5t-21.5 -45.5q-12 -29 -16 -49.5t7 -25.5zM391 388q5 1 6 -2t-1 -8q-3 -5 -10.5 -10t-20.5 -5q-21 0 -51.5 16.5t-52.5 39.5q-19 20 -33.5 47t-14.5 47
q0 8 5.5 14.5t13.5 10.5q11 5 22 3.5t11 -12.5t10.5 -35t32.5 -48q28 -32 50 -45t33 -13z" />
    <glyph glyph-name="oacute" unicode="&#xf3;" horiz-adv-x="285" 
d="M335 283q2 -19 -4.5 -40.5t-17.5 -44.5q-10 -20 -23 -40t-28 -39q20 3 42 15.5t45 35.5q14 14 27.5 32.5t27.5 41.5q8 12 14.5 10t9.5 -12q5 -16 -2 -31q-32 -56 -71 -90q-64 -57 -128 -43q-12 -13 -23.5 -24.5t-22.5 -21.5q-34 -29 -53 -34q-16 -4 -29 -1t-24 11
q-14 10 -21.5 25t-7.5 30q1 35 18 78t40 81q22 38 44 65t35 34q11 5 19 2t13 -10q21 19 45 27t43 0q29 -11 32 -57zM294 291q-3 16 -12 19t-19.5 -3t-22 -17.5t-19.5 -23.5q-13 -19 -22 -41t-12 -42q-2 -17 1.5 -31.5t16.5 -22.5q2 -2 3 -2q29 33 50 67q19 29 29 54.5
t7 42.5zM92 32q7 -4 23 5.5t36 28.5q15 14 32 32q-18 13 -27 32q-11 21 -9 46q0 6 0.5 12t1.5 11q-14 -23 -26.5 -46.5t-21.5 -45.5q-12 -29 -16 -49.5t7 -25.5zM255 375q-2 -7 -8.5 -5.5t-12.5 9.5q-12 14 -11 35q2 18 21 38t46 38q32 23 59.5 32.5t41.5 14.5q8 2 14 -2
t10 -9t3.5 -10.5t-8.5 -7.5q-14 -5 -38.5 -17t-50.5 -34q-15 -12 -26 -24.5t-19 -24t-13 -20.5t-8 -13z" />
    <glyph glyph-name="ocircumflex" unicode="&#xf4;" horiz-adv-x="285" 
d="M335 283q2 -19 -4.5 -40.5t-17.5 -44.5q-10 -20 -23 -40t-28 -39q20 3 42 15.5t45 35.5q14 14 27.5 32.5t27.5 41.5q8 12 14.5 10t9.5 -12q5 -16 -2 -31q-32 -56 -71 -90q-64 -57 -128 -43q-12 -13 -23.5 -24.5t-22.5 -21.5q-34 -29 -53 -34q-16 -4 -29 -1t-24 11
q-14 10 -21.5 25t-7.5 30q1 35 18 78t40 81q22 38 44 65t35 34q11 5 19 2t13 -10q21 19 45 27t43 0q29 -11 32 -57zM294 291q-3 16 -12 19t-19.5 -3t-22 -17.5t-19.5 -23.5q-13 -19 -22 -41t-12 -42q-2 -17 1.5 -31.5t16.5 -22.5q2 -2 3 -2q29 33 50 67q19 29 29 54.5
t7 42.5zM92 32q7 -4 23 5.5t36 28.5q15 14 32 32q-18 13 -27 32q-11 21 -9 46q0 6 0.5 12t1.5 11q-14 -23 -26.5 -46.5t-21.5 -45.5q-12 -29 -16 -49.5t7 -25.5zM169 420q8 0 27.5 11.5t42.5 27.5q23 17 43 33t25 24q5 7 13 5t15 -9q6 -6 10 -13.5t4 -14.5q1 -8 3.5 -23
t6.5 -31q5 -17 11.5 -31t14.5 -19q15 -6 4 -17q-5 -5 -14 -8t-14 -1q-11 5 -19.5 19.5t-14.5 31.5q-7 18 -10.5 32.5t-3.5 15.5l-15 -10q-7 -5 -15.5 -11t-17.5 -13q-20 -14 -38.5 -26.5t-25.5 -16.5q-9 -3 -18 4t-14 17q-5 8 -5 15t5 8z" />
    <glyph glyph-name="otilde" unicode="&#xf5;" horiz-adv-x="285" 
d="M335 283q2 -19 -4.5 -40.5t-17.5 -44.5q-10 -20 -23 -40t-28 -39q20 3 42 15.5t45 35.5q14 14 27.5 32.5t27.5 41.5q8 12 14.5 10t9.5 -12q5 -16 -2 -31q-32 -56 -71 -90q-64 -57 -128 -43q-12 -13 -23.5 -24.5t-22.5 -21.5q-34 -29 -53 -34q-16 -4 -29 -1t-24 11
q-14 10 -21.5 25t-7.5 30q1 35 18 78t40 81q22 38 44 65t35 34q11 5 19 2t13 -10q21 19 45 27t43 0q29 -11 32 -57zM294 291q-3 16 -12 19t-19.5 -3t-22 -17.5t-19.5 -23.5q-13 -19 -22 -41t-12 -42q-2 -17 1.5 -31.5t16.5 -22.5q2 -2 3 -2q29 33 50 67q19 29 29 54.5
t7 42.5zM92 32q7 -4 23 5.5t36 28.5q15 14 32 32q-18 13 -27 32q-11 21 -9 46q0 6 0.5 12t1.5 11q-14 -23 -26.5 -46.5t-21.5 -45.5q-12 -29 -16 -49.5t7 -25.5zM183 425q5 7 15.5 16.5t24.5 16.5q10 5 20.5 7t21.5 0q13 -2 19.5 -9.5t11.5 -16.5q5 -8 10.5 -16t16.5 -11
q11 -2 21 2t18 12q12 12 10 22q0 5 3 4t7 -5q2 -2 3 -4.5t3 -4.5q2 -12 -0.5 -28t-16.5 -30q-7 -7 -16 -10t-18 -5q-21 -3 -35 6q-9 6 -14.5 13.5t-10 14.5t-8.5 12t-10 6q-10 1 -23 -5q-10 -5 -19 -14t-14 -18q-4 -7 -10 -2.5t-10 13.5q-4 8 -4.5 17t4.5 17z" />
    <glyph glyph-name="odieresis" unicode="&#xf6;" horiz-adv-x="285" 
d="M335 283q2 -19 -4.5 -40.5t-17.5 -44.5q-10 -20 -23 -40t-28 -39q20 3 42 15.5t45 35.5q14 14 27.5 32.5t27.5 41.5q8 12 14.5 10t9.5 -12q5 -16 -2 -31q-32 -56 -71 -90q-64 -57 -128 -43q-12 -13 -23.5 -24.5t-22.5 -21.5q-34 -29 -53 -34q-16 -4 -29 -1t-24 11
q-14 10 -21.5 25t-7.5 30q1 35 18 78t40 81q22 38 44 65t35 34q11 5 19 2t13 -10q21 19 45 27t43 0q29 -11 32 -57zM294 291q-3 16 -12 19t-19.5 -3t-22 -17.5t-19.5 -23.5q-13 -19 -22 -41t-12 -42q-2 -17 1.5 -31.5t16.5 -22.5q2 -2 3 -2q29 33 50 67q19 29 29 54.5
t7 42.5zM92 32q7 -4 23 5.5t36 28.5q15 14 32 32q-18 13 -27 32q-11 21 -9 46q0 6 0.5 12t1.5 11q-14 -23 -26.5 -46.5t-21.5 -45.5q-12 -29 -16 -49.5t7 -25.5zM237 397q-7 -2 -12 4t-8 15t-4 19.5t0 18.5q2 16 13 28.5t25 14.5q15 4 27.5 -10t14.5 -28q0 -7 -6 -16.5
t-14.5 -18.5t-18 -16.5t-17.5 -10.5zM363 463q14 0 27.5 -12.5t11.5 -30.5q-1 -5 -6.5 -14t-14 -18t-17 -16.5t-15.5 -9.5q-14 -3 -22.5 13t-6.5 31q0 7 4.5 17t11 19t14 15t13.5 6z" />
    <glyph glyph-name="divide" unicode="&#xf7;" horiz-adv-x="498" 
d="M149 306q7 2 19 2.5t33 0.5t53 -0.5t79 0.5q42 -1 72 -1t50.5 -1t34 -3.5t24.5 -7.5q10 -5 16 -13.5t8 -16.5q2 -6 -1.5 -10t-11.5 -3q-10 -1 -31.5 -1.5t-48.5 -0.5h-56.5h-55.5q-31 0 -54.5 -1t-41.5 -2t-32.5 -1.5t-26.5 0.5q-10 0 -18.5 7t-13.5 16q-6 11 -6.5 21.5
t9.5 14.5zM370 367q-15 -4 -24.5 4t-15.5 21q-18 31 14 40q7 4 16 5.5t18 0t16 -6t11 -12.5q3 -5 -1 -14t-10.5 -17t-13.5 -14.5t-10 -6.5zM256 170q3 0 12.5 1t20.5 1t22 -2.5t17 -9.5q8 -7 5 -15t-11 -15t-18.5 -11.5t-17.5 -4.5q-13 -5 -28 -4.5t-23 9.5q-4 4 -5 11.5
t1.5 15.5t8.5 14.5t16 9.5z" />
    <glyph glyph-name="oslash" unicode="&#xf8;" horiz-adv-x="274" 
d="M322 276q2 -20 -4 -42.5t-18 -45.5t-28.5 -46.5t-34.5 -44.5q-32 -38 -62.5 -63.5t-47.5 -30.5q-15 -4 -27.5 -1t-22.5 10q-14 9 -21.5 24t-7.5 29q1 29 13.5 65t30.5 70q23 42 47.5 74.5t38.5 40.5q11 5 16 4q17 9 38.5 12.5t40.5 -1t32.5 -17.5t16.5 -37zM82 50
q3 -7 8 -9q7 -4 19 0t26.5 14.5t31 25.5t32.5 33q24 27 44.5 58t31.5 59q-15 -11 -39.5 -33t-51.5 -48q-31 -29 -59.5 -57.5zM282 286q-5 15 -19.5 17t-30.5 -6q-15 -7 -27.5 -19.5t-15.5 -26.5q-1 -5 -4.5 -5t-8.5 2q-20 -27 -43.5 -64.5t-37.5 -70.5q17 17 40.5 41.5
t49.5 48.5q29 28 55 51t42 32z" />
    <glyph glyph-name="ugrave" unicode="&#xf9;" horiz-adv-x="388" 
d="M163 320q5 9 14 7t16 -10t9.5 -18t-3.5 -18q-11 -13 -32 -49.5t-41 -77.5q-11 -23 -19.5 -45t-12.5 -39t-2.5 -28.5t10.5 -12.5q6 -1 16.5 6.5t23.5 21t28 32t31 38.5q19 24 37.5 49t34 46.5t26.5 37.5t16 23q6 9 16.5 7t19.5 -9q10 -8 15.5 -18t0.5 -18q-10 -14 -21 -45
t-19 -63q-4 -18 -6.5 -34.5t-2.5 -29.5t3 -21.5t9 -10.5q7 -2 20.5 8t29.5 26.5t34 38t35 43.5q25 32 43.5 58t21.5 32q7 11 16 0q5 -5 8 -14.5t-2 -17.5q-4 -8 -20.5 -34.5t-40.5 -59.5q-13 -18 -27.5 -36t-29.5 -33.5t-30 -27t-28 -16.5q-26 -11 -49.5 0t-33.5 40
q-5 14 -5 32t3 35q2 13 5 24t5 20q3 10 6 19q-8 -14 -27 -41.5t-42 -56.5t-47 -53.5t-44 -35.5q-17 -9 -33 -2.5t-27 22.5q-11 14 -15.5 33t-2.5 37q3 23 11.5 48t19.5 50q20 44 43 82t36 59zM386 374q5 1 6 -2t-1 -8q-3 -5 -10.5 -10t-20.5 -5q-21 0 -51.5 16.5t-52.5 39.5
q-19 20 -33.5 47t-14.5 47q0 8 5.5 14.5t13.5 10.5q11 5 22 3.5t11 -12.5t10.5 -35t32.5 -48q28 -32 50 -45t33 -13z" />
    <glyph glyph-name="uacute" unicode="&#xfa;" horiz-adv-x="388" 
d="M163 320q5 9 14 7t16 -10t9.5 -18t-3.5 -18q-11 -13 -32 -49.5t-41 -77.5q-11 -23 -19.5 -45t-12.5 -39t-2.5 -28.5t10.5 -12.5q6 -1 16.5 6.5t23.5 21t28 32t31 38.5q19 24 37.5 49t34 46.5t26.5 37.5t16 23q6 9 16.5 7t19.5 -9q10 -8 15.5 -18t0.5 -18q-10 -14 -21 -45
t-19 -63q-4 -18 -6.5 -34.5t-2.5 -29.5t3 -21.5t9 -10.5q7 -2 20.5 8t29.5 26.5t34 38t35 43.5q25 32 43.5 58t21.5 32q7 11 16 0q5 -5 8 -14.5t-2 -17.5q-4 -8 -20.5 -34.5t-40.5 -59.5q-13 -18 -27.5 -36t-29.5 -33.5t-30 -27t-28 -16.5q-26 -11 -49.5 0t-33.5 40
q-5 14 -5 32t3 35q2 13 5 24t5 20q3 10 6 19q-8 -14 -27 -41.5t-42 -56.5t-47 -53.5t-44 -35.5q-17 -9 -33 -2.5t-27 22.5q-11 14 -15.5 33t-2.5 37q3 23 11.5 48t19.5 50q20 44 43 82t36 59zM276 330q-2 -7 -8.5 -5.5t-12.5 9.5q-12 14 -11 35q2 18 21 38t46 38
q32 23 59.5 32.5t41.5 14.5q8 2 14 -2t10 -9t3.5 -10.5t-8.5 -7.5q-14 -5 -38.5 -17t-50.5 -34q-15 -12 -26 -24.5t-19 -24t-13 -20.5t-8 -13z" />
    <glyph glyph-name="ucircumflex" unicode="&#xfb;" horiz-adv-x="388" 
d="M163 320q5 9 14 7t16 -10t9.5 -18t-3.5 -18q-11 -13 -32 -49.5t-41 -77.5q-11 -23 -19.5 -45t-12.5 -39t-2.5 -28.5t10.5 -12.5q6 -1 16.5 6.5t23.5 21t28 32t31 38.5q19 24 37.5 49t34 46.5t26.5 37.5t16 23q6 9 16.5 7t19.5 -9q10 -8 15.5 -18t0.5 -18q-10 -14 -21 -45
t-19 -63q-4 -18 -6.5 -34.5t-2.5 -29.5t3 -21.5t9 -10.5q7 -2 20.5 8t29.5 26.5t34 38t35 43.5q25 32 43.5 58t21.5 32q7 11 16 0q5 -5 8 -14.5t-2 -17.5q-4 -8 -20.5 -34.5t-40.5 -59.5q-13 -18 -27.5 -36t-29.5 -33.5t-30 -27t-28 -16.5q-26 -11 -49.5 0t-33.5 40
q-5 14 -5 32t3 35q2 13 5 24t5 20q3 10 6 19q-8 -14 -27 -41.5t-42 -56.5t-47 -53.5t-44 -35.5q-17 -9 -33 -2.5t-27 22.5q-11 14 -15.5 33t-2.5 37q3 23 11.5 48t19.5 50q20 44 43 82t36 59zM191 428q8 0 27.5 11.5t42.5 27.5q23 17 43 33t25 24q5 7 13 5t15 -9
q6 -6 10 -13.5t4 -14.5q1 -8 3.5 -23t6.5 -31q5 -17 11.5 -31t14.5 -19q15 -6 4 -17q-5 -5 -14 -8t-14 -1q-11 5 -19.5 19.5t-14.5 31.5q-7 18 -10.5 32.5t-3.5 15.5l-15 -10q-7 -5 -15.5 -11t-17.5 -13q-20 -14 -38.5 -26.5t-25.5 -16.5q-9 -3 -18 4t-14 17q-5 8 -5 15t5 8
z" />
    <glyph glyph-name="udieresis" unicode="&#xfc;" horiz-adv-x="388" 
d="M163 320q5 9 14 7t16 -10t9.5 -18t-3.5 -18q-11 -13 -32 -49.5t-41 -77.5q-11 -23 -19.5 -45t-12.5 -39t-2.5 -28.5t10.5 -12.5q6 -1 16.5 6.5t23.5 21t28 32t31 38.5q19 24 37.5 49t34 46.5t26.5 37.5t16 23q6 9 16.5 7t19.5 -9q10 -8 15.5 -18t0.5 -18q-10 -14 -21 -45
t-19 -63q-4 -18 -6.5 -34.5t-2.5 -29.5t3 -21.5t9 -10.5q7 -2 20.5 8t29.5 26.5t34 38t35 43.5q25 32 43.5 58t21.5 32q7 11 16 0q5 -5 8 -14.5t-2 -17.5q-4 -8 -20.5 -34.5t-40.5 -59.5q-13 -18 -27.5 -36t-29.5 -33.5t-30 -27t-28 -16.5q-26 -11 -49.5 0t-33.5 40
q-5 14 -5 32t3 35q2 13 5 24t5 20q3 10 6 19q-8 -14 -27 -41.5t-42 -56.5t-47 -53.5t-44 -35.5q-17 -9 -33 -2.5t-27 22.5q-11 14 -15.5 33t-2.5 37q3 23 11.5 48t19.5 50q20 44 43 82t36 59zM237 386q-7 -2 -12 4t-8 15t-4 19.5t0 18.5q2 16 13 28.5t25 14.5q15 4 27.5 -10
t14.5 -28q0 -7 -6 -16.5t-14.5 -18.5t-18 -16.5t-17.5 -10.5zM363 452q14 0 27.5 -12.5t11.5 -30.5q-1 -5 -6.5 -14t-14 -18t-17 -16.5t-15.5 -9.5q-14 -3 -22.5 13t-6.5 31q0 7 4.5 17t11 19t14 15t13.5 6z" />
    <glyph glyph-name="yacute" unicode="&#xfd;" horiz-adv-x="372" 
d="M150 0q-24 -12 -44 -6.5t-31 25.5q-20 32 -9 82q5 24 14.5 49.5t20.5 50.5q11 24 22 46.5t21 41t17 31t10 17.5q4 6 12.5 2t16.5 -12t11.5 -17t-1.5 -15q-2 -3 -8 -13t-14.5 -25.5t-19 -35.5t-20.5 -41q-12 -24 -22 -48.5t-17 -45.5t-8.5 -36t4.5 -20t22 6.5t38 33t48 51
t52 60.5q18 22 35 43t31 39t25.5 32.5t17.5 23.5q5 6 13.5 3t16.5 -11t12 -17.5t-1 -17.5q-11 -19 -26.5 -51t-33.5 -73l-57 -131q32 26 58.5 52t49.5 52q37 42 59.5 75t30.5 47q4 7 9.5 6t9.5 -7t5 -15.5t-4 -18.5q-9 -17 -30 -51.5t-68 -84.5q-40 -43 -106 -97
q-13 -11 -25.5 -20t-23.5 -18q-15 -33 -31.5 -62.5t-33.5 -53.5q-43 -62 -81 -84q-24 -13 -46 -11.5t-39 12.5q-20 14 -25.5 37.5t14.5 46.5q14 15 34 30.5t46 32.5q29 20 62.5 40t66.5 43q3 8 6 15t7 15q11 27 22 55t20 51t15 39t7 18q-2 -4 -20 -27t-43 -52
q-23 -27 -48.5 -51.5t-45.5 -34.5zM57 -198q-13 -14 -8 -24.5t25 -6.5q17 3 32.5 15t32.5 31q13 15 26 33.5t25 41.5q-51 -33 -84 -52.5t-49 -37.5zM309 386q-2 -7 -8.5 -5.5t-12.5 9.5q-12 14 -11 35q2 18 21 38t46 38q32 23 59.5 32.5t41.5 14.5q8 2 14 -2t10 -9
t3.5 -10.5t-8.5 -7.5q-14 -5 -38.5 -17t-50.5 -34q-15 -12 -26 -24.5t-19 -24t-13 -20.5t-8 -13z" />
    <glyph glyph-name="thorn" unicode="&#xfe;" horiz-adv-x="285" 
d="M305 548q-5 -8 -20 -39t-37 -79q-11 -26 -24.5 -55.5t-27.5 -63.5q24 24 58 34q32 8 56 -12q25 -19 28 -55q2 -28 -16.5 -72t-47.5 -88q-15 -23 -31.5 -43.5t-33 -38t-32.5 -29.5t-30 -16q-22 -7 -41.5 0t-33.5 21q-13 -32 -24 -61.5t-21 -55.5q-14 -39 -23 -66.5
t-10 -37.5q-2 -17 -10.5 -15.5t-15.5 15.5q-4 7 -6.5 16t-1.5 20q1 14 18 60.5t41 107.5q15 37 30.5 75.5t30.5 74.5t27.5 66.5t21.5 51.5q20 48 41 97.5t41 94.5q20 47 36 81.5t21 48.5q4 8 10.5 8t13.5 -5q9 -8 13.5 -20t-0.5 -20zM191 245q-6 -11 -13.5 -11t-12.5 6
l-10 -25q-17 -41 -35.5 -85.5t-36.5 -89.5q4 -5 10.5 -8t17.5 -4q20 -2 54.5 31t76.5 93q14 20 26 42.5t20 42.5t10 37t-4 26q-5 7 -24.5 1.5t-39.5 -19.5q-26 -16 -39 -37z" />
    <glyph glyph-name="ydieresis" unicode="&#xff;" horiz-adv-x="372" 
d="M150 0q-24 -12 -44 -6.5t-31 25.5q-20 32 -9 82q5 24 14.5 49.5t20.5 50.5q11 24 22 46.5t21 41t17 31t10 17.5q4 6 12.5 2t16.5 -12t11.5 -17t-1.5 -15q-2 -3 -8 -13t-14.5 -25.5t-19 -35.5t-20.5 -41q-12 -24 -22 -48.5t-17 -45.5t-8.5 -36t4.5 -20t22 6.5t38 33t48 51
t52 60.5q18 22 35 43t31 39t25.5 32.5t17.5 23.5q5 6 13.5 3t16.5 -11t12 -17.5t-1 -17.5q-11 -19 -26.5 -51t-33.5 -73l-57 -131q32 26 58.5 52t49.5 52q37 42 59.5 75t30.5 47q4 7 9.5 6t9.5 -7t5 -15.5t-4 -18.5q-9 -17 -30 -51.5t-68 -84.5q-40 -43 -106 -97
q-13 -11 -25.5 -20t-23.5 -18q-15 -33 -31.5 -62.5t-33.5 -53.5q-43 -62 -81 -84q-24 -13 -46 -11.5t-39 12.5q-20 14 -25.5 37.5t14.5 46.5q14 15 34 30.5t46 32.5q29 20 62.5 40t66.5 43q3 8 6 15t7 15q11 27 22 55t20 51t15 39t7 18q-2 -4 -20 -27t-43 -52
q-23 -27 -48.5 -51.5t-45.5 -34.5zM57 -198q-13 -14 -8 -24.5t25 -6.5q17 3 32.5 15t32.5 31q13 15 26 33.5t25 41.5q-51 -33 -84 -52.5t-49 -37.5zM256 407q-7 -2 -12 4t-8 15t-4 19.5t0 18.5q2 16 13 28.5t25 14.5q15 4 27.5 -10t14.5 -28q0 -7 -6 -16.5t-14.5 -18.5
t-18 -16.5t-17.5 -10.5zM382 473q14 0 27.5 -12.5t11.5 -30.5q-1 -5 -6.5 -14t-14 -18t-17 -16.5t-15.5 -9.5q-14 -3 -22.5 13t-6.5 31q0 7 4.5 17t11 19t14 15t13.5 6z" />
    <glyph glyph-name="dotlessi" unicode="&#x131;" horiz-adv-x="188" 
d="M192 280q-3 -5 -8.5 -16.5t-12 -27t-14.5 -34.5t-15 -38q-8 -21 -14.5 -41.5t-10 -37.5t-2.5 -29t7 -15q7 -4 19 2.5t26.5 20t31 32.5t32.5 39q29 36 51.5 68.5t27.5 43.5q4 8 10 6.5t11 -8.5q8 -11 2 -27q-6 -14 -27.5 -48t-49.5 -70q-27 -35 -56 -63t-52 -32
q-16 -2 -29.5 3t-23.5 16q-14 16 -20 40t-1 50q4 20 11 40.5t15 40.5q16 40 32.5 73t21.5 46q3 8 10 8.5t15 -4.5t13 -15.5t0 -22.5z" />
    <glyph glyph-name="OE" unicode="&#x152;" horiz-adv-x="656" 
d="M556 513q14 2 47 8t71 11q24 3 48.5 5.5t44 3.5t33 -1t16.5 -6q4 -5 5.5 -10.5t2.5 -10.5q1 -11 -5 -16t-14 1q-5 4 -31.5 2.5t-61.5 -5.5q-29 -3 -59 -7.5t-55 -9.5q-10 -13 -26.5 -36t-36.5 -53q-17 -25 -35.5 -53t-36.5 -58q26 2 54 3t52.5 2t43 0.5t26.5 -1.5
q10 -2 14.5 -8.5t5.5 -14.5t-3.5 -14.5t-13.5 -4.5t-32 3t-52.5 0t-61.5 -2.5t-58 -4.5q-23 -40 -40 -77.5t-25 -69.5q-8 -34 -3 -58t28 -33q12 -5 29 -4t37 5.5t41.5 12.5t41.5 17q31 14 56.5 28.5t36.5 24.5q8 8 14.5 6t8.5 -8q2 -7 -0.5 -17t-12.5 -18q-9 -7 -29.5 -22.5
t-48.5 -31t-60.5 -28t-65.5 -13.5q-45 -2 -76.5 18t-40.5 60q-19 -27 -42.5 -50.5t-51.5 -39.5q-15 -8 -40.5 -12t-52 4t-48.5 31.5t-31 71.5q-5 31 -1.5 70.5t14.5 83t28.5 89t40.5 88.5q57 106 113 157.5t100 60.5q38 8 70 -2t55 -29q37 -31 39 -69v-21l12 18q1 11 6 21.5
t16 12.5zM370 267q10 3 36 6l44 75q-2 4 -0.5 12t8.5 22q21 44 19 87.5t-28 69.5q-17 17 -51 11t-76 -40q-32 -26 -65 -68t-65 -102q-35 -68 -54.5 -128.5t-25.5 -109.5q-8 -62 1.5 -100.5t28.5 -46.5q10 -5 23.5 -2t28.5 12t31 22.5t32 30.5q23 24 44 51.5t35 51.5
q8 23 20 50.5t27 56.5q-10 0 -19 12q-5 8 -5 16t11 11z" />
    <glyph glyph-name="oe" unicode="&#x153;" horiz-adv-x="443" 
d="M306 11q16 -2 36 6.5t41.5 23.5t43.5 35t42 42q34 36 60 72t37 57q5 9 11 8t10 -8q7 -13 3 -25q-9 -24 -33.5 -62t-57.5 -76q-37 -42 -81 -74.5t-86 -35.5q-21 -2 -40 6t-33 22t-22 32.5t-10 41.5q-30 -32 -57 -53t-42 -25q-32 -7 -55 11q-13 10 -20 25t-7 29q1 29 13 63
t29 67q12 23 26 44.5t26.5 38.5t23.5 29t19 16q9 5 17 5q16 9 35.5 13t37.5 2q20 -2 36.5 -13t22.5 -32q30 25 60 33q18 5 33 2.5t26 -10.5q25 -18 19 -53q-5 -25 -32 -52.5t-62 -51.5q-26 -19 -52 -34t-45 -25q-8 -38 -0.5 -65t27.5 -29zM252 184q7 14 14 26.5t14 23.5
q15 34 14 57q-2 17 -18 18.5t-34 -6.5q-17 -8 -30.5 -21t-16.5 -28q-1 -8 -12 -3q-14 -20 -30.5 -46.5t-30.5 -53.5q-11 -21 -19.5 -41t-13.5 -36t-4.5 -27.5t7.5 -14.5q11 -5 38.5 16t59.5 56q33 36 61 78zM427 290q-9 6 -28 -5.5t-41 -35.5q-17 -18 -33 -41.5t-28 -48.5
q21 15 44 33t43 36q24 22 37.5 39t5.5 23z" />
    <glyph glyph-name="Scaron" unicode="&#x160;" horiz-adv-x="401" 
d="M-24 -92q-27 8 -35.5 26t-3.5 37q4 16 11.5 25.5t14.5 13.5t10.5 0t-0.5 -9q-8 -11 -8.5 -23.5t9.5 -18.5q18 -11 63 -8.5t116 24.5q76 23 119.5 51t51.5 62q6 25 -0.5 45.5t-23 43t-42.5 49.5t-59 64q-19 21 -35.5 42t-28.5 42.5t-16.5 43.5t0.5 44q8 35 46.5 69.5
t91.5 60.5q68 34 144 45q26 4 42 -1t25 -14q12 -12 14 -27.5t-2 -26.5q-3 -10 -9 -24t-13 -28q-5 -11 -10.5 -20.5t-8.5 -16.5q-4 -13 -13 -4q-9 8 -13 22q-3 7 1 18.5t10 24.5q6 14 11 27t2 18q-4 5 -19.5 5t-39 -5t-52.5 -15.5t-61 -26.5q-55 -28 -79 -60.5t-19 -67.5
q3 -21 15 -40.5t30.5 -41t43 -47t52.5 -58.5q14 -17 27.5 -34.5t23.5 -37t14 -41t0 -45.5q-4 -20 -21 -39.5t-43.5 -36.5t-59 -32t-67.5 -27q-61 -20 -118 -28t-88 1zM421 805q-3 -6 -4.5 -16t-1.5 -19t2 -15.5t7 -5.5q6 1 25.5 11.5t41.5 24.5q21 13 38 24.5t20 14.5
t8.5 0.5t7.5 -8.5q2 -5 1 -11.5t-6 -12.5q-6 -8 -20.5 -19.5t-31.5 -24.5q-20 -15 -40 -28.5t-28 -18.5q-14 -8 -30 -7t-26 15q-6 8 -9 21.5t-3 29.5t2 31.5t7 26.5q2 6 8 7t13 -1q8 -3 14.5 -8.5t4.5 -10.5z" />
    <glyph glyph-name="scaron" unicode="&#x161;" horiz-adv-x="220" 
d="M30 25q2 8 21.5 18t48.5 24q14 6 28.5 12.5t29.5 14.5q-5 15 -12 29.5t-13.5 30.5t-10.5 34t-2 39q2 23 17 48.5t35 48.5q18 20 37 34t34 18q9 2 17.5 -1t14.5 -8q11 -10 12.5 -22t-12.5 -14t-33 -15t-37 -31t-31 -38t-14 -35q-2 -25 9 -49.5t22 -51.5q8 5 16.5 9.5
t16.5 9.5q22 14 38.5 26.5t30.5 25.5q17 15 28.5 31.5t22.5 33.5q4 6 9 6t9 -5q5 -5 6.5 -13.5t-2.5 -19.5q-10 -29 -43 -60q-17 -16 -36.5 -31t-40.5 -28q-11 -7 -22.5 -13t-22.5 -12q1 -9 0.5 -18.5t-2.5 -19.5q-5 -20 -16 -34t-26 -23q-20 -12 -44.5 -15t-46.5 1
q-19 5 -30 24q-5 9 -7 19.5t1 19.5zM162 53q-16 -8 -30.5 -14t-27.5 -12q-17 -8 -28 -14.5t-15 -13.5l-2 -3q8 -3 29 0t40 14q13 7 22 17.5t12 25.5zM292 542q-3 -6 -4.5 -16t-1.5 -19t2 -15.5t7 -5.5q6 1 25.5 11.5t41.5 24.5q21 13 38 24.5t20 14.5t8.5 0.5t7.5 -8.5
q2 -5 1 -11.5t-6 -12.5q-6 -8 -20.5 -19.5t-31.5 -24.5q-20 -15 -40 -28.5t-28 -18.5q-14 -8 -30 -7t-26 15q-6 8 -9 21.5t-3 29.5t2 31.5t7 26.5q2 6 8 7t13 -1q8 -3 14.5 -8.5t4.5 -10.5z" />
    <glyph glyph-name="Ydieresis" unicode="&#x178;" horiz-adv-x="463" 
d="M273 545q1 -7 -8 -32t-25 -61.5t-37.5 -81t-45.5 -90.5q-32 -62 -58.5 -114.5t-44 -92.5t-23.5 -64.5t2 -30.5q12 -9 42 12t69 56.5t82 79.5t80 82q46 46 84 86.5t67 72.5t47.5 55.5t25.5 35.5q4 7 11 8.5t14.5 -2t14.5 -10t11 -15.5q5 -11 4.5 -22.5t-10.5 -21.5
q-16 -14 -46.5 -63t-70.5 -119q-28 -50 -59.5 -106t-63.5 -116q-22 -41 -40 -78.5t-32 -69.5q-22 -51 -33 -85t-11 -39t4 -6.5t8.5 -2t9 -1.5t6.5 -5q1 -4 -5 -9.5t-16 -9.5q-11 -5 -24 -4.5t-21 12.5q-8 13 -3 48t34 105q12 29 28.5 65t38.5 80q31 61 61.5 116.5t54.5 97.5
q28 49 53 91q-40 -47 -78 -89q-16 -18 -33.5 -37t-34.5 -37t-32.5 -34t-27.5 -27q-32 -29 -60 -54t-51 -44t-42 -29.5t-34 -10.5q-28 2 -44 18q-17 16 -22 41t0 49q5 22 20 53.5t35 69.5t43 81t44 89q48 100 72 163t13 86q-3 5 0.5 7.5t10 2t14.5 -4t15 -10.5
q6 -6 10.5 -14.5t6.5 -19.5zM375 604q-7 -2 -12 4t-8 15t-4 19.5t0 18.5q2 16 13 28.5t25 14.5q15 4 27.5 -10t14.5 -28q0 -7 -6 -16.5t-14.5 -18.5t-18 -16.5t-17.5 -10.5zM501 670q14 0 27.5 -12.5t11.5 -30.5q-1 -5 -6.5 -14t-14 -18t-17 -16.5t-15.5 -9.5
q-14 -3 -22.5 13t-6.5 31q0 7 4.5 17t11 19t14 15t13.5 6z" />
    <glyph glyph-name="Zcaron" unicode="&#x17d;" horiz-adv-x="455" 
d="M168 541q8 10 24 27t39 30q15 8 32.5 13t37.5 2q11 -2 26 -8t32.5 -15t36.5 -19.5t38 -20.5q26 -14 49.5 -24.5t41.5 -14.5q22 5 38 17t30 23q5 6 14 3.5t15 -10.5t6 -19t-13 -21q-11 -8 -47 -37.5t-82.5 -67.5t-96.5 -79t-87 -73q-29 -24 -65.5 -56.5t-69.5 -61.5
q-39 -34 -78 -70q21 2 48 2q23 0 56 -2t76 -8q21 -3 48 -9t54 -13t50 -13.5t36 -10.5q14 -5 20.5 -12.5t8.5 -15.5q2 -10 -4 -16.5t-17 -1.5q-14 6 -40.5 14.5t-62 16.5t-78 15t-87.5 10q-139 11 -166 -16q-18 -11 -36.5 -27t-30.5 -24q-7 -5 -16 4.5t-14 24.5q-5 14 -4 29
t13 25q13 8 25.5 12.5t22.5 7.5q11 4 22 5q58 49 113 97q24 20 49 42t49.5 43.5t47 41.5t41.5 37q30 26 61.5 55t57.5 52q30 27 59 53q-11 5 -22 11q-10 5 -23 12t-28 15q-33 17 -66.5 32t-49.5 18q-30 0 -54.5 -15.5t-41.5 -32.5q-8 -8 -17 -9t-16 3q-8 5 -10 13t5 17z
M459 775q-3 -6 -4.5 -16t-1.5 -19t2 -15.5t7 -5.5q6 1 25.5 11.5t41.5 24.5q21 13 38 24.5t20 14.5t8.5 0.5t7.5 -8.5q2 -5 1 -11.5t-6 -12.5q-6 -8 -20.5 -19.5t-31.5 -24.5q-20 -15 -40 -28.5t-28 -18.5q-14 -8 -30 -7t-26 15q-6 8 -9 21.5t-3 29.5t2 31.5t7 26.5q2 6 8 7
t13 -1q8 -3 14.5 -8.5t4.5 -10.5z" />
    <glyph glyph-name="zcaron" unicode="&#x17e;" horiz-adv-x="271" 
d="M226 64q-5 11 -18.5 12.5t-30.5 -2.5t-33.5 -10t-24.5 -9q-7 -3 -13.5 3t-10.5 16t-3 20t12 17q15 10 38.5 31.5t48.5 47.5q19 21 36.5 42.5t29 41t15 35.5t-3.5 25q-6 7 -14.5 5t-19.5 -10.5t-22.5 -21t-23.5 -26.5q-16 -20 -29.5 -39t-22.5 -32q-5 -8 -12 -7.5t-12 5.5
q-11 11 -4 24q11 20 26.5 44.5t33.5 46.5q18 23 37.5 38t37.5 15q13 0 25 -8t21 -21q11 -17 15.5 -37.5t-3.5 -38.5q-12 -26 -29.5 -51t-36.5 -45q-13 -14 -25 -26t-21 -20q-11 -10 -20 -18q13 8 29 10.5t31 -2.5q13 -4 23.5 -12.5t15.5 -22.5q20 21 36 40t30 38
q17 22 30.5 43t26.5 41q5 8 11 6.5t11 -8.5q4 -6 5.5 -14t-3.5 -15q-11 -18 -25.5 -39.5t-32.5 -45.5q-19 -26 -42 -53t-49 -53q-5 -14 -11 -29t-14 -32q-10 -19 -21.5 -38t-25.5 -36q-14 -18 -34.5 -39t-42.5 -38q-21 -17 -41 -28t-34 -11q-12 0 -21 6t-16 15
q-9 13 -10.5 28t6.5 27q7 10 14.5 18t18 16.5t24.5 19.5t35 27q16 12 35 27.5t44 36.5q30 25 56 50v11t-2 9zM45 -189q24 10 52.5 35.5t65.5 67.5q10 12 18.5 24t15.5 24q-54 -47 -92 -77q-26 -21 -43.5 -35t-22.5 -21q-11 -13 -5.5 -16.5t11.5 -1.5zM296 524
q-3 -6 -4.5 -16t-1.5 -19t2 -15.5t7 -5.5q6 1 25.5 11.5t41.5 24.5q21 13 38 24.5t20 14.5t8.5 0.5t7.5 -8.5q2 -5 1 -11.5t-6 -12.5q-6 -8 -20.5 -19.5t-31.5 -24.5q-20 -15 -40 -28.5t-28 -18.5q-14 -8 -30 -7t-26 15q-6 8 -9 21.5t-3 29.5t2 31.5t7 26.5q2 6 8 7t13 -1
q8 -3 14.5 -8.5t4.5 -10.5z" />
    <glyph glyph-name="florin" unicode="&#x192;" horiz-adv-x="251" 
d="M160 287q14 48 28.5 90t28.5 74q52 131 128 136q19 1 33.5 -3.5t25 -12t16.5 -16.5t9 -17q3 -13 -4 -21q-10 -12 -24 0q-5 6 -10.5 14t-13 13.5t-17.5 6.5t-25 -7q-16 -9 -32 -35.5t-33 -64.5q-15 -34 -30.5 -74.5t-29.5 -84.5q29 -1 53.5 -1.5t36.5 -0.5q10 0 12.5 -5
t0.5 -13q-2 -10 -10.5 -18.5t-18.5 -9.5q-7 -2 -32.5 -2t-57.5 1q-21 -63 -39 -120.5t-32 -95.5q-23 -65 -45 -107q-24 -48 -47.5 -73t-50.5 -23q-19 1 -30.5 9.5t-16.5 19.5q-6 12 -4.5 23t7.5 14q5 2 9 -2.5t9 -10.5t11.5 -10t16.5 0q5 3 13 11q7 7 16.5 20t21.5 35
q8 13 15.5 29.5t16.5 37.5q8 19 17.5 46.5t20 59.5t21 67.5t21.5 71.5q-23 1 -42.5 1t-27.5 -1q-9 -1 -9 8.5t6 20.5q5 8 11 13.5t14 6.5h63z" />
    <glyph glyph-name="circumflex" unicode="&#x2c6;" horiz-adv-x="365" 
d="M198 591q8 0 27.5 11.5t42.5 27.5q23 17 43 33t25 24q5 7 13 5t15 -9q6 -6 10 -13.5t4 -14.5q1 -8 3.5 -23t6.5 -31q5 -17 11.5 -31t14.5 -19q15 -6 4 -17q-5 -5 -14 -8t-14 -1q-11 5 -19.5 19.5t-14.5 31.5q-7 18 -10.5 32.5t-3.5 15.5l-15 -10q-7 -5 -15.5 -11
t-17.5 -13q-20 -14 -38.5 -26.5t-25.5 -16.5q-9 -3 -18 4t-14 17q-5 8 -5 15t5 8z" />
    <glyph glyph-name="tilde" unicode="&#x2dc;" horiz-adv-x="330" 
d="M206 592q5 7 15.5 16.5t24.5 16.5q10 5 20.5 7t21.5 0q13 -2 19.5 -9.5t11.5 -16.5q5 -8 10.5 -16t16.5 -11q11 -2 21 2t18 12q12 12 10 22q0 5 3 4t7 -5q2 -2 3 -4.5t3 -4.5q2 -12 -0.5 -28t-16.5 -30q-7 -7 -16 -10t-18 -5q-21 -3 -35 6q-9 6 -14.5 13.5t-10 14.5
t-8.5 12t-10 6q-10 1 -23 -5q-10 -5 -19 -14t-14 -18q-4 -7 -10 -2.5t-10 13.5q-4 8 -4.5 17t4.5 17z" />
    <glyph glyph-name="endash" unicode="&#x2013;" horiz-adv-x="626" 
d="M162 189q13 -2 36.5 -3t51 -2t57 -1.5t55.5 -1.5q73 -2 111 1t60 2q9 0 16.5 -7t11.5 -16q5 -12 2 -22t-19 -7q-14 2 -35 3.5t-45 2t-50 0.5h-49q-11 0 -33 0.5t-47 0.5h-48.5t-36.5 -1q-17 -2 -30.5 4.5t-21.5 15.5q-11 12 -9 22.5t23 8.5z" />
    <glyph glyph-name="emdash" unicode="&#x2014;" horiz-adv-x="878" 
d="M190 194q35 -8 113 -8.5t185 -2.5q53 -2 103 -2t90.5 0.5t69 1t39.5 0.5q11 -1 19 -10t11 -20t-0.5 -18t-17.5 -5t-48 4t-78.5 3.5t-93 2t-91.5 0.5q-85 0 -150.5 -3t-106.5 -1q-17 2 -30 9t-22 16q-14 14 -13.5 26t21.5 7z" />
    <glyph glyph-name="quoteleft" unicode="&#x2018;" horiz-adv-x="290" 
d="M282 303q8 -5 5 -9.5t-11 -6.5q-7 -2 -15 -2.5t-15 2.5q-8 4 -15 15t-11 27.5t-4.5 37.5t5.5 46q11 45 26 78t38 53q10 9 20.5 9.5t19.5 -4.5q11 -6 16.5 -15t-0.5 -14q-7 -3 -16.5 -15t-19.5 -27.5t-18.5 -34t-12.5 -35.5q-11 -42 -8.5 -69.5t16.5 -35.5z" />
    <glyph glyph-name="quoteright" unicode="&#x2019;" horiz-adv-x="240" 
d="M277 516q-3 7 6.5 8.5t22.5 -2.5q17 -5 25 -16q5 -8 6 -20.5t-0.5 -26.5t-5.5 -28.5t-8 -24.5q-17 -54 -35 -82.5t-32 -37.5q-7 -6 -15.5 -6t-14.5 4t-8.5 9.5t3.5 11.5q9 13 21.5 37t24.5 60q14 40 14.5 71.5t-4.5 42.5z" />
    <glyph glyph-name="quotesinglbase" unicode="&#x201a;" horiz-adv-x="371" 
d="M187 -59q-2 5 4.5 7.5t17.5 0.5q9 -2 18 -6t15 -12q5 -8 6 -20.5t-0.5 -26.5t-5.5 -28.5t-8 -24.5q-17 -54 -35 -82.5t-33 -37.5q-6 -5 -13.5 -5.5t-13.5 2.5q-7 3 -10 9t2 13q10 13 22.5 37t24.5 60q13 40 13.5 71.5t-4.5 42.5z" />
    <glyph glyph-name="quotedblleft" unicode="&#x201c;" horiz-adv-x="410" 
d="M213 511q-2 -2 -7.5 -11t-13 -22t-15.5 -29t-14 -32q-12 -33 -15.5 -61t1.5 -39q5 -8 2.5 -14t-8.5 -8q-8 -3 -18 -0.5t-18 11.5q-8 7 -11 17.5t-3 23.5q1 26 10.5 53.5t16.5 43.5q12 26 28 50.5t27 34.5q9 8 17.5 8t14.5 -4q7 -4 9 -10.5t-3 -11.5zM295 297q8 -5 5 -9.5
t-11 -6.5q-7 -2 -15 -2.5t-15 2.5q-20 10 -28 53q-3 15 -2.5 33.5t5.5 39.5q11 45 26 78t38 53q10 9 20 9.5t19 -4.5q11 -6 17 -15t0 -14q-7 -3 -16.5 -15t-19.5 -27.5t-18.5 -34t-12.5 -35.5q-11 -42 -8.5 -69.5t16.5 -35.5z" />
    <glyph glyph-name="quotedblright" unicode="&#x201d;" horiz-adv-x="422" 
d="M282 509q-3 6 4.5 7.5t18.5 -0.5q8 -2 17 -6t14 -11q5 -8 6 -20.5t-0.5 -26.5t-5.5 -28.5t-8 -24.5q-17 -54 -35 -82.5t-32 -37.5q-7 -6 -15.5 -6t-14.5 4t-8.5 9.5t3.5 11.5q9 13 21.5 37t24.5 60q14 40 14.5 71.5t-4.5 42.5zM405 506q-1 9 6.5 13t17.5 3q9 -1 18 -6
t14 -15q5 -11 6 -27t-1 -34t-6 -36t-9 -33q-20 -57 -37.5 -86.5t-29.5 -37.5q-12 -7 -25 0q-7 4 -10 9.5t0 10.5q8 15 21 40t28 77q12 44 10 74.5t-3 47.5z" />
    <glyph glyph-name="quotedblbase" unicode="&#x201e;" horiz-adv-x="496" 
d="M195 53q-3 7 7.5 8.5t23.5 -2.5q14 -5 24 -16q5 -8 6 -20.5t-0.5 -26.5t-5.5 -28.5t-8 -24.5q-17 -54 -35 -82.5t-33 -37.5q-7 -6 -15.5 -6t-14.5 4t-8 9.5t3 11.5q10 13 22.5 37t24.5 60q13 40 13.5 71.5t-4.5 42.5zM318 50q0 8 6 12t15 4q9 -1 19 -5.5t16 -15.5
q5 -9 6.5 -22.5t0.5 -28.5q-2 -20 -6.5 -41t-9.5 -38q-20 -57 -37.5 -86.5t-29.5 -37.5q-12 -7 -23 -1q-8 4 -11.5 10t-1.5 11q9 15 21.5 40t28.5 77q12 44 10 74.5t-4 47.5z" />
    <glyph glyph-name="dagger" unicode="&#x2020;" horiz-adv-x="429" 
d="M100 -280q-1 -14 -8 -17t-15 0q-6 2 -10.5 7.5t-3.5 12.5t6.5 31t15 59t21.5 78t26 89q20 66 39.5 131.5t36.5 115.5l55 169q-71 0 -107 -11q-9 -3 -13 3t-3 15q1 8 5.5 16.5t14.5 10.5q15 2 44.5 4t71.5 2q12 38 23 72t20 61t15 45.5t8 24.5q4 10 14 6t18 -15t12 -25.5
t-3 -29.5q-8 -17 -21.5 -53t-31.5 -87q66 -3 105 -10.5t53 -14.5q8 -4 7 -9t-6 -10q-6 -5 -14.5 -8.5t-14.5 -1.5q-9 3 -24 5t-34 4t-40.5 3t-42.5 2h-3l-61 -176q-21 -64 -44 -133.5t-43 -134.5q-14 -44 -26 -82.5t-21 -69t-14.5 -51.5t-6.5 -28z" />
    <glyph glyph-name="daggerdbl" unicode="&#x2021;" horiz-adv-x="511" 
d="M9 -30q10 4 31 7t50 6l50 4l60 154q20 52 38.5 99t32.5 83q5 14 10.5 27t11.5 27q-31 -4 -54.5 -8t-35.5 -2q-13 0 -25 12q-8 8 -10 18t8 13q30 6 136 14q15 35 29.5 67t28.5 61q21 43 38.5 72t25.5 36q7 5 16 2t16 -11q8 -10 10 -23.5t-11 -22.5q-7 -5 -21 -28t-34 -60
q-20 -39 -43 -89q48 3 75 2.5t37 -3.5q6 -2 15.5 -8t15.5 -13q5 -5 4.5 -9.5t-11.5 -5.5q-25 -2 -68 -2.5t-89 -5.5q-13 -30 -26 -62t-27 -66q-23 -58 -49.5 -128t-51.5 -139q17 0 32 0.5t29 -0.5q40 -2 58 -9q18 -6 22 -17q4 -13 -18 -14h-31t-38 -1q-19 -1 -37.5 -1.5
t-32.5 -0.5q-15 -43 -28 -81.5t-22 -69t-13.5 -51t-2.5 -27.5q2 -11 -1 -18q-5 -8 -16 -4.5t-16 6.5q-4 2 -7.5 7t-5 15.5t0 27t7.5 41.5q5 19 18.5 59t33.5 93l-35 -4l-51 -7q-8 -2 -16 2t-13 10q-7 8 -8 16t8 10z" />
    <glyph glyph-name="bullet" unicode="&#x2022;" horiz-adv-x="304" 
d="M189 415q12 2 27.5 -3.5t28 -15t21 -23t7.5 -28.5q0 -14 -11 -28.5t-27 -26.5t-34.5 -19.5t-33.5 -6.5q-14 0 -23.5 8t-15.5 19t-8 23t0 21q3 13 9.5 26t15.5 24t20 19t24 11z" />
    <glyph glyph-name="ellipsis" unicode="&#x2026;" horiz-adv-x="468" 
d="M75 39q10 5 26 4t30 -9q14 -7 19 -19.5t-5 -18.5q-5 -3 -13.5 -4t-18.5 -0.5t-19.5 2.5t-15.5 5q-12 6 -12.5 20.5t9.5 19.5zM231 39q10 5 26 4t30 -9q14 -7 19 -19.5t-5 -18.5q-5 -3 -13.5 -4t-18.5 -0.5t-19.5 2.5t-15.5 5q-12 6 -12.5 20.5t9.5 19.5zM387 39
q10 5 26 4t30 -9q14 -7 19 -19.5t-5 -18.5q-5 -3 -13.5 -4t-18.5 -0.5t-19.5 2.5t-15.5 5q-12 6 -12.5 20.5t9.5 19.5z" />
    <glyph glyph-name="perthousand" unicode="&#x2030;" horiz-adv-x="750" 
d="M310 506q-9 5 -21.5 -1t-27 -19.5t-29.5 -33t-28 -41.5q-11 -19 -20 -39t-13.5 -37.5t-4.5 -30t6 -16.5q17 -8 47.5 15t58.5 68q14 23 24 45t14.5 40.5t3 31.5t-9.5 18zM535 238q-6 3 -15 1.5t-20.5 -12t-27 -31.5t-35.5 -57q-54 -100 -24 -124q5 -4 16.5 -0.5t26 16
t31 33.5t33.5 53q7 14 14.5 33t11 36.5t1.5 32t-12 19.5zM278 549q14 2 30.5 -6t30.5 -20q12 -11 20.5 -23t10.5 -22q5 -19 -8 -53t-35 -70q-12 -21 -27 -40t-30.5 -34.5t-31 -26t-30.5 -13.5q-14 -2 -27.5 2t-24.5 12q-16 11 -26 26t-12 24q-7 29 9 71.5t43 82.5
q25 35 53.5 61t54.5 29zM497 284q13 2 28 -4t29 -17q17 -14 28.5 -36t8.5 -49q-2 -22 -10.5 -45t-21.5 -45q-22 -38 -49.5 -68t-49.5 -38q-29 -11 -57 5q-17 10 -29.5 26.5t-17.5 36.5q-4 20 6.5 52.5t28.5 67.5q11 21 24 40t27 35t28 26t27 13zM623 505q-7 -3 -33.5 -28
t-65 -63t-84.5 -85.5t-91 -96.5q-38 -41 -72.5 -80.5t-61 -73t-42 -58t-15.5 -36.5q0 -11 -8.5 -13t-17.5 6q-8 7 -12.5 19.5t2.5 31.5q4 12 21.5 36.5t44 57t59 70.5t68.5 77q42 46 85.5 91.5t80.5 82t65.5 61t40.5 29.5q14 6 23.5 2.5t14.5 -10.5q9 -14 -2 -20zM772 238
q-6 3 -16.5 1.5t-24 -12.5t-30 -32.5t-36.5 -57.5q-27 -50 -31.5 -80.5t11.5 -41.5q6 -4 17 -1t25.5 14t31 31.5t33.5 52.5q7 14 15 33.5t12.5 38.5t3.5 34t-11 20zM727 276q14 2 31.5 -3t33.5 -17t26 -30t7 -43q-3 -24 -13.5 -51t-24.5 -53q-21 -37 -46 -64.5t-45 -35.5
q-14 -5 -30 -3.5t-30 9.5q-18 9 -30.5 24.5t-17.5 35.5q-5 22 8 59.5t35 75.5q21 36 46.5 63.5t49.5 32.5z" />
    <glyph glyph-name="guilsinglleft" unicode="&#x2039;" horiz-adv-x="374" 
d="M387 395q-2 -5 -16 -20.5t-32 -33.5l-22 -22t-20 -20.5t-15 -16.5t-7 -10q-2 -7 1.5 -21.5t10.5 -30.5q6 -14 12.5 -27t10.5 -18q6 -8 -6 -13q-7 -3 -16 -4t-16 4q-5 3 -12 13t-13 24q-8 16 -13.5 32.5t-7.5 26.5q-3 11 0 24t12 24q6 7 28 27.5t45 43.5q19 18 33.5 33
t17.5 19q4 4 9 1t10 -10q5 -6 6.5 -13t-0.5 -12z" />
    <glyph glyph-name="guilsinglright" unicode="&#x203a;" horiz-adv-x="374" 
d="M259 413q6 -6 19.5 -25.5t27.5 -42.5l43 -66q11 -15 10 -34q-2 -14 -12 -29q-6 -8 -22 -24t-34 -32q-20 -17 -36.5 -31t-20.5 -17q-9 -5 -16 7q-4 8 -3 19.5t9 20.5l43 40q17 16 31.5 30t13.5 19q0 4 -9.5 20t-21.5 35t-22.5 35.5t-13.5 23.5q-5 8 -5.5 17t1.5 17
q2 11 7.5 16.5t10.5 0.5z" />
    <glyph glyph-name="Euro" unicode="&#x20ac;" horiz-adv-x="440" 
d="M102 343q8 -5 37.5 -6t67.5 -1q30 44 61.5 80t63.5 65q29 26 56 44.5t51 29.5q23 11 41.5 8.5t31.5 -12.5q14 -11 21 -25t8 -26q1 -11 -1 -22.5t-4 -22.5q-4 -15 -7.5 -28t-2.5 -21q3 -16 -10 -16q-7 0 -15 4.5t-12 9.5q-3 6 -2.5 21t2.5 32q2 15 2 29t-3 24
q-6 4 -16.5 2.5t-28.5 -12t-44 -31.5t-63 -57q-38 -36 -65 -75q20 0 38.5 0.5t34.5 0.5q40 0 48 -3q11 -3 21.5 -11t13.5 -16q5 -13 -17 -16q-9 -1 -28 -1t-45 -1q-23 -1 -48 -1h-51q-22 -37 -36 -70l98 -3q47 -2 72 0q12 1 25 -7.5t18 -17.5q4 -7 2 -12.5t-13 -7.5
t-38.5 -2.5t-63.5 -0.5q-29 0 -59 0.5t-59 2.5q-11 -32 -14.5 -59.5t1.5 -46.5q6 -21 22 -32t38.5 -14.5t49 -0.5t53.5 9q42 10 78.5 23.5t50.5 20.5q14 6 19.5 1.5t2.5 -14.5q-5 -19 -34 -36q-19 -11 -59.5 -25t-86.5 -21q-42 -6 -80 -1t-62 30q-24 27 -32 64
q-5 24 -4 50.5t7 54.5q-16 2 -28 3t-19 3q-14 3 -23 10.5t-13 15.5q-5 10 -3 17.5t10 5.5t32.5 -3.5t57.5 -3.5q6 17 14 34t16 33q-27 1 -45.5 2.5t-23.5 4.5q-6 2 -11 9t-8 15q-5 12 -3 20.5t15 2.5z" />
    <glyph glyph-name="trademark" unicode="&#x2122;" horiz-adv-x="466" 
d="M320 487q2 4 13.5 20.5t26.5 36.5q9 13 18.5 26t17.5 24t13.5 19t6.5 11q3 9 17 9q7 0 13 -3t5 -7q0 -4 -2.5 -15t-5.5 -24q-3 -17 -6 -26q-2 -6 -3 -11q4 6 9 11q4 5 9.5 10.5t11.5 12.5q11 13 21.5 24t15.5 14q3 2 11.5 0.5t14.5 -6.5q10 -8 4 -24q-4 -11 -9 -34
t-9 -46q-3 -17 -4.5 -30t-1.5 -16q1 -6 -8 -4q-11 2 -17 8q-5 5 -5 18t2 27q1 9 2.5 17t3.5 15q2 8 3 15l-8 -10t-9 -10t-10 -11q-11 -13 -20 -25t-11 -15q0 -3 -4.5 -3.5t-9.5 1t-9 4t-4 5.5t1.5 13t3.5 21l6 34q-6 -8 -11 -16q-5 -7 -10.5 -16t-11.5 -18l-32 -50
q-1 -3 -6 -2t-10 5q-6 4 -10.5 9.5t-2.5 11.5zM208 615q10 2 30.5 5.5t49.5 6.5q32 3 52 3t26 -3q5 -3 9.5 -7.5t7.5 -9.5t3.5 -9.5t-4.5 -5.5q-7 0 -26 -0.5t-37 -1.5q-8 -10 -21 -28.5t-25 -37.5q-11 -17 -18.5 -31t-8.5 -19q0 -5 -3.5 -7.5t-8.5 -4.5q-8 -2 -16 0t-10 7
t6.5 21.5t19.5 36.5q10 17 19.5 33t16.5 26q-17 -2 -27 -3.5t-16 -1.5q-7 -2 -12.5 2t-9.5 10t-3.5 12t6.5 7z" />
    </font>
</defs>
</svg>
